<svg width="16" height="16" viewBox="0 0 16 16" fill="none" xmlns="http://www.w3.org/2000/svg">
<g clip-path="url(#clip0_901_5602)">
<path fill-rule="evenodd" clip-rule="evenodd" d="M7.54766 2.81131C7.35276 2.76052 6.96731 2.60754 7.00222 2.4717C7.02555 2.38093 7.24213 2.2914 7.46535 2.19913C7.65973 2.11878 7.85914 2.03635 7.94038 1.94921C8.00936 1.87521 8.06948 1.71214 8.13233 1.54167C8.22849 1.28081 8.33104 1.00265 8.48146 1.00002C8.61186 0.997735 8.68229 1.21205 8.75751 1.44095C8.82577 1.64868 8.89799 1.86842 9.02254 1.94921C9.12305 2.0144 9.29109 2.08279 9.45974 2.15144C9.73041 2.26162 10.0027 2.37244 9.99998 2.4717C9.99806 2.54259 9.81022 2.62361 9.59117 2.71809C9.31247 2.83829 8.98326 2.98028 8.92218 3.15093C8.90428 3.20094 8.88545 3.25727 8.86563 3.31653C8.76467 3.61847 8.63831 3.99634 8.48146 3.99998C8.36549 4.00267 8.28286 3.76582 8.20059 3.53003C8.14976 3.38435 8.09907 3.23906 8.04075 3.15093C7.91857 2.96632 7.66112 2.8476 7.54766 2.81131ZM0.00740022 10.9057C-0.108961 11.3585 1.17586 11.8684 1.82555 12.0377C2.20372 12.1587 3.06189 12.5544 3.46915 13.1698C3.66357 13.4635 3.83253 13.9478 4.00197 14.4334C4.27618 15.2194 4.55163 16.0089 4.93821 15.9999C5.46104 15.9878 5.88223 14.7282 6.21877 13.7218C6.28482 13.5242 6.34762 13.3365 6.40728 13.1698C6.61088 12.6009 7.70825 12.1276 8.63723 11.727C9.36739 11.412 9.99353 11.142 9.99993 10.9057C10.0089 10.5748 9.10135 10.2054 8.19913 9.83814C7.63696 9.60931 7.07685 9.38132 6.74182 9.16402C6.32662 8.89473 6.08591 8.16226 5.85837 7.46984C5.60762 6.70683 5.37286 5.99245 4.93821 6.00006C4.4368 6.00884 4.09498 6.93602 3.77442 7.80557C3.56495 8.37378 3.36455 8.91738 3.13461 9.16402C2.86381 9.45451 2.1991 9.72927 1.55118 9.9971C0.807091 10.3047 0.0851503 10.6031 0.00740022 10.9057ZM11.0037 8.45283C10.9455 8.67924 11.5879 8.93419 11.9128 9.01886C12.1019 9.07933 12.5309 9.2772 12.7346 9.58489C12.8318 9.73177 12.9163 9.97391 13.001 10.2167C13.1381 10.6097 13.2758 11.0044 13.4691 11C13.7305 10.9939 13.9411 10.3641 14.1094 9.86089C14.1424 9.76212 14.1738 9.66823 14.2036 9.58489C14.3054 9.30046 14.8541 9.06382 15.3186 8.86348C15.6837 8.70602 15.9968 8.57099 16 8.45283C16.0044 8.2874 15.5507 8.1027 15.0996 7.91907C14.8185 7.80466 14.5384 7.69066 14.3709 7.58201C14.1633 7.44737 14.043 7.08113 13.9292 6.73492C13.8038 6.35342 13.6864 5.99623 13.4691 6.00003C13.2184 6.00442 13.0475 6.46801 12.8872 6.90279C12.7825 7.18689 12.6823 7.45869 12.5673 7.58201C12.4319 7.72725 12.0995 7.86464 11.7756 7.99855C11.4035 8.15233 11.0426 8.30154 11.0037 8.45283Z" fill="#121214"/>
</g>
<defs>
<clipPath id="clip0_901_5602">
<rect width="16" height="16" fill="white"/>
</clipPath>
</defs>
</svg>
