<svg width="16" height="16" viewBox="0 0 16 16" fill="none" xmlns="http://www.w3.org/2000/svg">
<path fill-rule="evenodd" clip-rule="evenodd" d="M8 1.22058C7.58579 1.22058 7.25 1.55637 7.25 1.97058C7.25 2.38479 7.58579 2.72058 8 2.72058H11.8414C13.1717 2.72058 14.2501 3.79897 14.2501 5.12923V11.8414C14.2501 13.1716 13.1717 14.25 11.8414 14.25H4.73445C3.40419 14.25 2.32581 13.1716 2.32581 11.8414V8C2.32581 7.58579 1.99002 7.25 1.57581 7.25C1.16159 7.25 0.825806 7.58579 0.825806 8V11.8414C0.825806 14 2.57577 15.75 4.73445 15.75H11.8414C14.0001 15.75 15.7501 14 15.7501 11.8414V5.12923C15.7501 2.97054 14.0001 1.22058 11.8414 1.22058H8ZM12.1965 5.91895C12.1965 5.50473 11.8607 5.16895 11.4465 5.16895C11.0323 5.16895 10.6965 5.50473 10.6965 5.91895V12.2362C10.6965 12.6505 11.0323 12.9862 11.4465 12.9862C11.8607 12.9862 12.1965 12.6505 12.1965 12.2362V5.91895ZM8.28784 6.74817C8.70206 6.74817 9.03784 7.08396 9.03784 7.49817V12.2361C9.03784 12.6504 8.70206 12.9861 8.28784 12.9861C7.87363 12.9861 7.53784 12.6504 7.53784 12.2361V7.49817C7.53784 7.08396 7.87363 6.74817 8.28784 6.74817ZM5.87927 9.86719C5.87927 9.45297 5.54349 9.11719 5.12927 9.11719C4.71506 9.11719 4.37927 9.45297 4.37927 9.86719V12.2362C4.37927 12.6504 4.71506 12.9862 5.12927 12.9862C5.54349 12.9862 5.87927 12.6504 5.87927 12.2362V9.86719Z" fill="#121214"/>
<path d="M3.43751 5.7541L3.94678 7.30563C3.96906 7.37377 4.01232 7.43312 4.07036 7.4752C4.1284 7.51728 4.19826 7.53994 4.26995 7.53994C4.34164 7.53994 4.41149 7.51728 4.46953 7.4752C4.52757 7.43312 4.57083 7.37377 4.59312 7.30563L5.10238 5.7541C5.15205 5.60197 5.23687 5.46369 5.34997 5.35047C5.46306 5.23724 5.60124 5.15225 5.75331 5.1024L7.3056 4.59314C7.37374 4.57085 7.43309 4.5276 7.47517 4.46956C7.51726 4.41152 7.53992 4.34166 7.53992 4.26997C7.53992 4.19828 7.51726 4.12842 7.47517 4.07038C7.43309 4.01234 7.37374 3.96909 7.3056 3.9468L5.75408 3.43754C5.44546 3.33645 5.20347 3.09446 5.10238 2.7866L4.59312 1.23431C4.57083 1.16618 4.52757 1.10682 4.46953 1.06474C4.41149 1.02266 4.34164 1 4.26995 1C4.19826 1 4.1284 1.02266 4.07036 1.06474C4.01232 1.10682 3.96906 1.16618 3.94678 1.23431L3.43751 2.78584C3.33643 3.09446 3.09443 3.33645 2.78658 3.43754L1.23429 3.9468C1.16615 3.96909 1.1068 4.01234 1.06472 4.07038C1.02264 4.12842 0.999977 4.19828 0.999977 4.26997C0.999977 4.34166 1.02264 4.41152 1.06472 4.46956C1.1068 4.5276 1.16615 4.57085 1.23429 4.59314L2.78581 5.1024C2.93794 5.15208 3.07623 5.2369 3.18945 5.34999C3.30268 5.46308 3.38766 5.60203 3.43751 5.7541Z" fill="#121214"/>
</svg>
