<svg width="16" height="16" viewBox="0 0 16 16" fill="none" xmlns="http://www.w3.org/2000/svg">
<g clip-path="url(#clip0_1596_196)">
<path fill-rule="evenodd" clip-rule="evenodd" d="M2 1.5H5C5.27614 1.5 5.5 1.72386 5.5 2V5C5.5 5.27614 5.27614 5.5 5 5.5H2C1.72386 5.5 1.5 5.27614 1.5 5V2C1.5 1.72386 1.72386 1.5 2 1.5ZM0 2C0 0.89543 0.895431 0 2 0H5C6.10457 0 7 0.895431 7 2V5C7 6.10457 6.10457 7 5 7H2C0.89543 7 0 6.10457 0 5V2ZM11 1.5H14C14.2761 1.5 14.5 1.72386 14.5 2V5C14.5 5.27614 14.2761 5.5 14 5.5H11C10.7239 5.5 10.5 5.27614 10.5 5V2C10.5 1.72386 10.7239 1.5 11 1.5ZM9 2C9 0.89543 9.89543 0 11 0H14C15.1046 0 16 0.895431 16 2V5C16 6.10457 15.1046 7 14 7H11C9.89543 7 9 6.10457 9 5V2ZM5 10.5H2C1.72386 10.5 1.5 10.7239 1.5 11V14C1.5 14.2761 1.72386 14.5 2 14.5H5C5.27614 14.5 5.5 14.2761 5.5 14V11C5.5 10.7239 5.27614 10.5 5 10.5ZM2 9C0.895431 9 0 9.89543 0 11V14C0 15.1046 0.89543 16 2 16H5C6.10457 16 7 15.1046 7 14V11C7 9.89543 6.10457 9 5 9H2ZM12.5 14.5C11.3954 14.5 10.5 13.6046 10.5 12.5C10.5 11.3954 11.3954 10.5 12.5 10.5C13.6046 10.5 14.5 11.3954 14.5 12.5C14.5 13.6046 13.6046 14.5 12.5 14.5ZM9 12.5C9 10.567 10.567 9 12.5 9C14.433 9 16 10.567 16 12.5C16 14.433 14.433 16 12.5 16C10.567 16 9 14.433 9 12.5Z" fill="#121214"/>
</g>
<defs>
<clipPath id="clip0_1596_196">
<rect width="16" height="16" fill="white"/>
</clipPath>
</defs>
</svg>
