<svg width="16" height="16" viewBox="0 0 16 16" fill="none" xmlns="http://www.w3.org/2000/svg">
<path fill-rule="evenodd" clip-rule="evenodd" d="M6 1.5C6 0.947715 5.55228 0.5 5 0.5C4.44772 0.5 4 0.947715 4 1.5V2.5H3.5C2.11929 2.5 1 3.61929 1 5V13C1 14.3807 2.11929 15.5 3.5 15.5H12.5C13.8807 15.5 15 14.3807 15 13V5C15 3.61929 13.8807 2.5 12.5 2.5H12V1.5C12 0.947715 11.5523 0.5 11 0.5C10.4477 0.5 10 0.947715 10 1.5V2.5H6V1.5ZM4 4.5C4 5.05228 4.44772 5.5 5 5.5C5.55228 5.5 6 5.05228 6 4.5H10C10 5.05228 10.4477 5.5 11 5.5C11.5523 5.5 12 5.05228 12 4.5H12.5C12.7761 4.5 13 4.72386 13 5V6.5L3 6.5V5C3 4.72386 3.22386 4.5 3.5 4.5H4ZM3 13V8.5L13 8.5V13C13 13.2761 12.7761 13.5 12.5 13.5H3.5C3.22386 13.5 3 13.2761 3 13Z" fill="#121214"/>
</svg>
