<svg width="16" height="16" viewBox="0 0 16 16" fill="none" xmlns="http://www.w3.org/2000/svg">
<path fill-rule="evenodd" clip-rule="evenodd" d="M7.81526 1.25C7.47244 1.25 7.16119 1.4502 7.01903 1.76216L6.51762 2.86248H2.40629C1.20865 2.86248 0.224976 3.84616 0.224976 5.0438V12.1061C0.224976 13.3037 1.20865 14.2874 2.40629 14.2874H13.6937C14.8913 14.2874 15.875 13.3037 15.875 12.1061V5.0438C15.875 5.03547 15.8749 5.02714 15.8746 5.01881C15.8406 3.82796 14.858 2.8829 13.6733 2.8829H13.4226L12.92 1.76593C12.7787 1.45194 12.4663 1.25 12.122 1.25H7.81526ZM7.87668 4.10032L8.37809 3H11.5563L12.0589 4.11696C12.2002 4.43096 12.5125 4.6329 12.8568 4.6329H13.6733C13.9142 4.6329 14.1134 4.82582 14.125 5.05967V12.1061C14.125 12.3372 13.9248 12.5374 13.6937 12.5374H2.40629C2.17515 12.5374 1.97498 12.3372 1.97498 12.1061V5.0438C1.97498 4.81266 2.17515 4.61248 2.40629 4.61248H7.08046C7.42328 4.61248 7.73452 4.41228 7.87668 4.10032ZM8.47498 8.31866C8.47498 7.58688 9.0682 6.99365 9.79999 6.99365C10.5318 6.99365 11.125 7.58688 11.125 8.31866C11.125 9.05045 10.5318 9.64368 9.79999 9.64368C9.0682 9.64368 8.47498 9.05045 8.47498 8.31866ZM9.79999 5.24365C8.10171 5.24365 6.72498 6.62038 6.72498 8.31866C6.72498 10.0169 8.10171 11.3937 9.79999 11.3937C11.4983 11.3937 12.875 10.0169 12.875 8.31866C12.875 6.62038 11.4983 5.24365 9.79999 5.24365Z" fill="#121214"/>
</svg>
