<svg width="16" height="16" viewBox="0 0 16 16" fill="none" xmlns="http://www.w3.org/2000/svg">
<path fill-rule="evenodd" clip-rule="evenodd" d="M14 4.75H2C1.86193 4.75 1.75 4.86193 1.75 5V6H14.25V5C14.25 4.86193 14.1381 4.75 14 4.75ZM1.75 12V8H14.25V12C14.25 12.1381 14.1381 12.25 14 12.25H2C1.86193 12.25 1.75 12.1381 1.75 12ZM2 3C0.895431 3 0 3.89543 0 5V12C0 13.1046 0.895431 14 2 14H14C15.1046 14 16 13.1046 16 12V5C16 3.89543 15.1046 3 14 3H2ZM4 9.125C3.51675 9.125 3.125 9.51675 3.125 10C3.125 10.4832 3.51675 10.875 4 10.875H9C9.48325 10.875 9.875 10.4832 9.875 10C9.875 9.51675 9.48325 9.125 9 9.125H4Z" fill="#121214"/>
</svg>
