<svg width="16" height="16" viewBox="0 0 16 16" fill="none" xmlns="http://www.w3.org/2000/svg">
<path fill-rule="evenodd" clip-rule="evenodd" d="M6.32993 8H9.67007C10.1513 8 10.5643 7.65726 10.6529 7.18429L11.7779 1.18429C11.8933 0.568875 11.4212 0 10.7951 0H5.20493C4.57879 0 4.10666 0.568875 4.22205 1.18429L5.34705 7.18429C5.43574 7.65726 5.84871 8 6.32993 8ZM4.5 8.5H11.5C12.0523 8.5 12.5 8.94771 12.5 9.5V10C12.5 10.2761 12.2762 10.5 12 10.5H4C3.72386 10.5 3.5 10.2761 3.5 10V9.5C3.5 8.94771 3.94772 8.5 4.5 8.5ZM11.25 11H9.75C9.61193 11 9.5 11.1119 9.5 11.25V15C9.5 15.5523 9.94772 16 10.5 16C11.0523 16 11.5 15.5523 11.5 15V11.25C11.5 11.1119 11.3881 11 11.25 11ZM4.75 11H6.25C6.38807 11 6.5 11.1119 6.5 11.25V15C6.5 15.5523 6.05228 16 5.5 16C4.94772 16 4.5 15.5523 4.5 15V11.25C4.5 11.1119 4.61193 11 4.75 11Z" fill="#121214"/>
</svg>
