<svg width="16" height="16" viewBox="0 0 16 16" fill="none" xmlns="http://www.w3.org/2000/svg">
<g clip-path="url(#clip0_1402_272)">
<path d="M13.5 6.5C13.5 6.5 14.5 5.5 14.5 3.5" stroke="#941E1E" stroke-width="1.42859" stroke-linecap="round"/>
<path d="M13 5.79224C10.2 4.19224 9 6.79225 6.5 9.29224C5.17096 10.6213 3.40034 11.0671 1.62829 11.2167C0.712031 11.2941 0.347094 12.3483 1.14349 12.8079C3.01534 13.8883 5.57569 14.831 8 14.2922C12.5 13.2922 16.5 7.79224 13 5.79224Z" fill="#DD3030"/>
<path d="M10 6.66913V5.79224C10.6667 5.29224 12.5 4.29222 14 5.79223C15.1016 6.89383 14.5 8.79224 14 9.29224L13.6351 9.41388C13.0228 9.61797 12.3663 9.25762 12.2098 8.63149C12.0865 8.13825 11.6382 7.79224 11.1298 7.79224C10.5095 7.79224 10 7.28941 10 6.66913Z" fill="#941E1E"/>
</g>
<defs>
<clipPath id="clip0_1402_272">
<rect width="16" height="16" fill="white"/>
</clipPath>
</defs>
</svg>
