<svg width="16" height="16" viewBox="0 0 16 16" fill="none" xmlns="http://www.w3.org/2000/svg">
<g clip-path="url(#clip0_390_817)">
<path fill-rule="evenodd" clip-rule="evenodd" d="M14 8C14 11.3137 11.3137 14 8 14C4.68629 14 2 11.3137 2 8C2 4.68629 4.68629 2 8 2C11.3137 2 14 4.68629 14 8ZM16 8C16 12.4183 12.4183 16 8 16C3.58172 16 0 12.4183 0 8C0 3.58172 3.58172 0 8 0C12.4183 0 16 3.58172 16 8ZM9 4.5C9 3.94772 8.55229 3.5 8 3.5C7.44772 3.5 7 3.94772 7 4.5V8.5C7 9.05228 7.44772 9.5 8 9.5H10.5C11.0523 9.5 11.5 9.05228 11.5 8.5C11.5 7.94772 11.0523 7.5 10.5 7.5H9V4.5Z" fill="#121214"/>
</g>
<defs>
<clipPath id="clip0_390_817">
<rect width="16" height="16" fill="white"/>
</clipPath>
</defs>
</svg>
