<svg width="16" height="16" viewBox="0 0 16 16" fill="none" xmlns="http://www.w3.org/2000/svg">
<g clip-path="url(#clip0_1359_218)">
<path fill-rule="evenodd" clip-rule="evenodd" d="M6 2.5C6 2.22386 6.22386 2 6.5 2H13C13.5523 2 14 2.44772 14 3V9C14 9.27614 13.7761 9.5 13.5 9.5C12.9477 9.5 12.5 9.94771 12.5 10.5C12.5 11.0523 12.9477 11.5 13.5 11.5C14.8807 11.5 16 10.3807 16 9V3C16 1.34315 14.6569 0 13 0H6.5C5.11929 0 4 1.11929 4 2.5C4 3.05228 4.44772 3.5 5 3.5C5.55228 3.5 6 3.05228 6 2.5ZM2 8C2 6.89543 2.89543 6 4 6H8C9.10457 6 10 6.89543 10 8V12C10 13.1046 9.10457 14 8 14H4C2.89543 14 2 13.1046 2 12V8ZM0 8C0 5.79086 1.79086 4 4 4H8C10.2091 4 12 5.79086 12 8V12C12 14.2091 10.2091 16 8 16H4C1.79086 16 0 14.2091 0 12V8Z" fill="#121214"/>
</g>
<defs>
<clipPath id="clip0_1359_218">
<rect width="16" height="16" fill="white"/>
</clipPath>
</defs>
</svg>
