<svg width="16" height="16" viewBox="0 0 16 16" fill="none" xmlns="http://www.w3.org/2000/svg">
<g clip-path="url(#clip0_561_347)">
<path fill-rule="evenodd" clip-rule="evenodd" d="M8 16C12.4183 16 16 12.4183 16 8C16 3.58172 12.4183 0 8 0C3.58172 0 0 3.58172 0 8C0 12.4183 3.58172 16 8 16ZM6.4714 5.5286C6.21106 5.26825 5.78895 5.26825 5.5286 5.5286C5.26825 5.78894 5.26825 6.21105 5.5286 6.4714L7.05719 8L5.5286 9.52859C5.26825 9.78895 5.26825 10.2111 5.5286 10.4714C5.78895 10.7318 6.21105 10.7318 6.4714 10.4714L8 8.94281L9.52859 10.4714C9.78894 10.7318 10.2111 10.7318 10.4714 10.4714C10.7318 10.2111 10.7318 9.78895 10.4714 9.52859L8.94281 8L10.4714 6.4714C10.7318 6.21106 10.7318 5.78895 10.4714 5.5286C10.2111 5.26825 9.78895 5.26825 9.52859 5.5286L8 7.05719L6.4714 5.5286Z" fill="#121214"/>
</g>
<defs>
<clipPath id="clip0_561_347">
<rect width="16" height="16" fill="white"/>
</clipPath>
</defs>
</svg>
