<svg width="16" height="16" viewBox="0 0 16 16" fill="none" xmlns="http://www.w3.org/2000/svg">
<g clip-path="url(#clip0_784_84)">
<path d="M8.00033 -0.000305176C8.19322 -0.000305176 8.37821 0.0763195 8.5146 0.212712C8.65099 0.349105 8.72762 0.534094 8.72762 0.726982V1.49427C10.2033 1.65951 11.579 2.32139 12.6291 3.37132C13.6792 4.42125 14.3412 5.79689 14.5066 7.27257H15.2732C15.4661 7.27257 15.6511 7.34919 15.7875 7.48559C15.9239 7.62198 16.0005 7.80697 16.0005 7.99986C16.0005 8.19275 15.9239 8.37773 15.7875 8.51413C15.6511 8.65052 15.4661 8.72714 15.2732 8.72714H14.5059C14.3406 10.2026 13.6787 11.5781 12.6289 12.628C11.5792 13.6779 10.2038 14.3399 8.72834 14.5054L8.72762 15.2727C8.72762 15.4656 8.65099 15.6506 8.5146 15.787C8.37821 15.9234 8.19322 16 8.00033 16C7.80744 16 7.62245 15.9234 7.48606 15.787C7.34967 15.6506 7.27304 15.4656 7.27304 15.2727V14.5054C5.79758 14.3401 4.42211 13.6782 3.37221 12.6285C2.3223 11.5787 1.66029 10.2033 1.49474 8.72787L0.727455 8.72714C0.534567 8.72714 0.349578 8.65052 0.213185 8.51413C0.0767925 8.37773 0.000167847 8.19275 0.000167847 7.99986C0.000167847 7.80697 0.0767925 7.62198 0.213185 7.48559C0.349578 7.34919 0.534567 7.27257 0.727455 7.27257H1.49474C1.66014 5.797 2.32208 4.42145 3.372 3.37153C4.42192 2.32161 5.79747 1.65966 7.27304 1.49427V0.726982C7.27304 0.534094 7.34967 0.349105 7.48606 0.212712C7.62245 0.0763195 7.80744 -0.000305176 8.00033 -0.000305176ZM8.00033 2.90884C7.33177 2.90884 6.66975 3.04053 6.05208 3.29637C5.43441 3.55222 4.87318 3.92722 4.40044 4.39997C3.9277 4.87271 3.5527 5.43394 3.29685 6.05161C3.041 6.66928 2.90932 7.3313 2.90932 7.99986C2.90932 8.66842 3.041 9.33043 3.29685 9.9481C3.5527 10.5658 3.9277 11.127 4.40044 11.5997C4.87318 12.0725 5.43441 12.4475 6.05208 12.7033C6.66975 12.9592 7.33177 13.0909 8.00033 13.0909C9.35055 13.0909 10.6455 12.5545 11.6002 11.5997C12.555 10.645 13.0913 9.35008 13.0913 7.99986C13.0913 6.64964 12.555 5.35472 11.6002 4.39997C10.6455 3.44522 9.35055 2.90884 8.00033 2.90884ZM8.00033 5.09071C8.57571 5.09071 9.13816 5.26133 9.61657 5.58099C10.095 5.90065 10.4678 6.355 10.688 6.88657C10.9082 7.41815 10.9658 8.00308 10.8536 8.5674C10.7413 9.13172 10.4643 9.65008 10.0574 10.0569C9.65056 10.4638 9.1322 10.7409 8.56788 10.8531C8.00356 10.9654 7.41862 10.9077 6.88705 10.6876C6.35547 10.4674 5.90112 10.0945 5.58146 9.61609C5.2618 9.13769 5.09118 8.57523 5.09118 7.99986L5.09482 7.8544C5.13214 7.10896 5.45454 6.40638 5.99534 5.89198C6.53613 5.37757 7.25396 5.09071 8.00033 5.09071Z" fill="#121214"/>
</g>
<defs>
<clipPath id="clip0_784_84">
<rect width="16" height="16" fill="white"/>
</clipPath>
</defs>
</svg>
