<svg width="16" height="16" viewBox="0 0 16 16" fill="none" xmlns="http://www.w3.org/2000/svg">
<g clip-path="url(#clip0_695_879)">
<path fill-rule="evenodd" clip-rule="evenodd" d="M6.5 1.75C5.80964 1.75 5.25 2.30964 5.25 3V3.25H10.75V3C10.75 2.30964 10.1904 1.75 9.5 1.75H6.5ZM3.75 3V3.25H1C0.585786 3.25 0.25 3.58579 0.25 4C0.25 4.41421 0.585786 4.75 1 4.75H1.81509L2.58772 13.249C2.71649 14.6654 3.90412 15.75 5.32643 15.75H10.6814C12.0992 15.75 13.2846 14.6721 13.419 13.2607L14.2296 4.75H15C15.4142 4.75 15.75 4.41421 15.75 4C15.75 3.58579 15.4142 3.25 15 3.25H12.25V3C12.25 1.48122 11.0188 0.25 9.5 0.25H6.5C4.98122 0.25 3.75 1.48122 3.75 3ZM12.7228 4.75H3.32127L4.08156 13.1132C4.14009 13.757 4.67993 14.25 5.32643 14.25H10.6814C11.3259 14.25 11.8647 13.7601 11.9258 13.1185L12.7228 4.75ZM6.5 6.25C6.91421 6.25 7.25 6.58579 7.25 7V12C7.25 12.4142 6.91421 12.75 6.5 12.75C6.08579 12.75 5.75 12.4142 5.75 12V7C5.75 6.58579 6.08579 6.25 6.5 6.25ZM9.5 6.25C9.91421 6.25 10.25 6.58579 10.25 7V12C10.25 12.4142 9.91421 12.75 9.5 12.75C9.08579 12.75 8.75 12.4142 8.75 12V7C8.75 6.58579 9.08579 6.25 9.5 6.25Z" fill="#121214"/>
</g>
<defs>
<clipPath id="clip0_695_879">
<rect width="16" height="16" fill="white"/>
</clipPath>
</defs>
</svg>
