<svg width="16" height="16" viewBox="0 0 16 16" fill="none" xmlns="http://www.w3.org/2000/svg">
<path fill-rule="evenodd" clip-rule="evenodd" d="M5.57853 4.57855C5.89805 4.25903 5.89805 3.74099 5.57853 3.42146C5.259 3.10194 4.74096 3.10194 4.42144 3.42146L1.42295 6.41995C1.41825 6.42462 1.41361 6.42936 1.40902 6.43414C1.26827 6.5811 1.18179 6.78045 1.18179 7.00001C1.18179 7.11026 1.2036 7.21543 1.24314 7.31141C1.28307 7.40859 1.34251 7.49963 1.42143 7.57856L4.42144 10.5786C4.74096 10.8981 5.259 10.8981 5.57853 10.5786C5.89805 10.259 5.89805 9.74099 5.57853 9.42147L3.97524 7.81819H7.99999C9.37429 7.81819 10.6923 8.36413 11.6641 9.33591C12.6359 10.3077 13.1818 11.6257 13.1818 13C13.1818 13.4519 13.5481 13.8182 14 13.8182C14.4519 13.8182 14.8182 13.4519 14.8182 13C14.8182 11.1917 14.0998 9.45749 12.8212 8.17883C11.5425 6.90017 9.80828 6.18182 7.99999 6.18182H3.97525L5.57853 4.57855Z" fill="black"/>
</svg>
