<svg width="16" height="16" viewBox="0 0 16 16" fill="none" xmlns="http://www.w3.org/2000/svg">
<g clip-path="url(#clip0_784_75)">
<path d="M6.39997 7.99996H9.19998V9.03996C9.19998 9.22663 9.27998 9.3533 9.43998 9.41996C9.59998 9.48663 9.74665 9.4533 9.87998 9.31996L11.44 7.75996C11.6 7.59996 11.68 7.41329 11.68 7.19996C11.68 6.98662 11.6 6.79996 11.44 6.63996L9.87998 5.07995C9.74665 4.94662 9.59998 4.91329 9.43998 4.97995C9.27998 5.04662 9.19998 5.17329 9.19998 5.35995V6.39996H5.59997C5.3733 6.39996 5.18343 6.47676 5.03037 6.63036C4.8773 6.78396 4.8005 6.97382 4.79997 7.19996V9.59996C4.79997 9.82663 4.87677 10.0168 5.03037 10.1704C5.18397 10.324 5.37384 10.4005 5.59997 10.4C5.8261 10.3994 6.01624 10.3226 6.17037 10.1696C6.3245 10.0165 6.40104 9.82663 6.39997 9.59996V7.99996ZM7.99998 16C7.79997 16 7.60344 15.96 7.41037 15.88C7.21731 15.8 7.04051 15.68 6.87997 15.52L0.479955 9.11996C0.319955 8.95996 0.199955 8.78316 0.119955 8.58956C0.0399544 8.39596 -4.57764e-05 8.19943 -4.57764e-05 7.99996C-4.57764e-05 7.80049 0.0399544 7.60396 0.119955 7.41036C0.199955 7.21676 0.319955 7.03996 0.479955 6.87996L6.87997 0.47994C7.03997 0.31994 7.21677 0.19994 7.41037 0.119939C7.60397 0.0399392 7.80051 -6.10352e-05 7.99998 -6.10352e-05C8.19944 -6.10352e-05 8.39624 0.0399392 8.59038 0.119939C8.78451 0.19994 8.96104 0.31994 9.11998 0.47994L15.52 6.87996C15.68 7.03996 15.8 7.21676 15.88 7.41036C15.96 7.60396 16 7.80049 16 7.99996C16 8.19943 15.96 8.39623 15.88 8.59036C15.8 8.7845 15.68 8.96103 15.52 9.11996L9.11998 15.52C8.95998 15.68 8.78318 15.8 8.58958 15.88C8.39598 15.96 8.19944 16 7.99998 16Z" fill="#121214"/>
</g>
<defs>
<clipPath id="clip0_784_75">
<rect width="16" height="16" fill="white"/>
</clipPath>
</defs>
</svg>
