<svg width="24" height="24" viewBox="0 0 24 24" fill="none" xmlns="http://www.w3.org/2000/svg">
<g clip-path="url(#clip0_1575_494)">
<path d="M14.991 3.41829L13.2186 1.39264C12.5908 0.675173 11.4617 0.717719 10.8897 1.4804L9.49779 3.33628C9.18804 3.74928 8.68768 3.97397 8.17322 3.9311L4.98634 3.66553C3.99183 3.58265 3.19519 4.47594 3.3909 5.45452L3.82973 7.64867C3.93506 8.1753 3.7508 8.71805 3.34662 9.07171L1.20663 10.9442C0.553621 11.5156 0.520171 12.5202 1.13372 13.1337L2.99738 14.9974C3.3155 15.3155 3.47404 15.7596 3.42927 16.2073L3.16493 18.8507C3.07662 19.7338 3.77005 20.5 4.65748 20.5H7.87868C8.2765 20.5 8.65804 20.658 8.93934 20.9393L10.9393 22.9393C11.5251 23.5251 12.4749 23.5251 13.0607 22.9393L15.0607 20.9393C15.342 20.658 15.7235 20.5 16.1213 20.5H19C19.8284 20.5 20.5 19.8284 20.5 19V16.1213C20.5 15.7235 20.658 15.342 20.9393 15.0607L22.9393 13.0607C23.5251 12.4749 23.5251 11.5251 22.9393 10.9393L20.9393 8.93934C20.658 8.65804 20.5 8.2765 20.5 7.87868V5.15748C20.5 4.27005 19.7338 3.57662 18.8507 3.66493L16.2691 3.92309C15.7865 3.97135 15.3104 3.78329 14.991 3.41829Z" fill="#2A4FD6"/>
<path fill-rule="evenodd" clip-rule="evenodd" d="M8.99322 9.32881C8.62627 9.32881 8.32881 9.62627 8.32881 9.99322C8.32881 10.3602 8.62627 10.6576 8.99322 10.6576C9.36016 10.6576 9.65762 10.3602 9.65762 9.99322C9.65762 9.62627 9.36016 9.32881 8.99322 9.32881ZM7 9.99322C7 8.89239 7.89239 8 8.99322 8C10.094 8 10.9864 8.89239 10.9864 9.99322C10.9864 11.094 10.094 11.9864 8.99322 11.9864C7.89239 11.9864 7 11.094 7 9.99322ZM14.8068 14.3118C14.4398 14.3118 14.1424 14.6093 14.1424 14.9763C14.1424 15.3432 14.4398 15.6407 14.8068 15.6407C15.1737 15.6407 15.4712 15.3432 15.4712 14.9763C15.4712 14.6093 15.1737 14.3118 14.8068 14.3118ZM12.8135 14.9763C12.8135 13.8754 13.7059 12.983 14.8068 12.983C15.9076 12.983 16.8 13.8754 16.8 14.9763C16.8 16.0771 15.9076 16.9695 14.8068 16.9695C13.7059 16.9695 12.8135 16.0771 12.8135 14.9763ZM14.7953 10.3623C15.045 10.0934 15.0294 9.67298 14.7606 9.42329C14.4917 9.17361 14.0713 9.18918 13.8216 9.45807L8.42329 15.2716C8.17361 15.5405 8.18918 15.9609 8.45807 16.2106C8.72696 16.4603 9.14735 16.4447 9.39704 16.1758L14.7953 10.3623Z" fill="#F8F8FB"/>
</g>
<defs>
<clipPath id="clip0_1575_494">
<rect width="24" height="24" fill="white"/>
</clipPath>
</defs>
</svg>
