<svg width="16" height="16" viewBox="0 0 16 16" fill="none" xmlns="http://www.w3.org/2000/svg">
<path d="M13.2638 9.68772C13.1524 9.34568 12.982 9.02482 12.7531 8.72514C12.5237 8.42579 12.2389 8.15993 11.8984 7.92761C11.5578 7.69554 11.1584 7.51225 10.7001 7.37761C10.5164 7.32893 10.1934 7.25239 9.76782 7.14839C9.46368 7.07432 9.17854 6.99839 8.85711 6.921V3.14518C9.17854 3.23075 9.40182 3.36668 9.64018 3.51768C10.1501 3.84054 10.4699 4.39286 10.5636 5.14286H13.0341C13.0107 4.5 12.868 3.97286 12.6056 3.49929C12.3174 2.97989 11.9279 2.53414 11.4367 2.17943C10.9456 1.82507 10.3573 1.55479 9.70897 1.37746C9.42739 1.30057 9.17857 1.23589 8.85714 1.19236V0H6.57143V1.18454C6.32143 1.22182 6.03043 1.27186 5.7705 1.33632C5.15471 1.48929 4.61379 1.72446 4.12939 2.04218C3.64471 2.36021 3.25968 2.76046 2.96496 3.24314C2.67029 3.72611 2.52525 4.29743 2.52525 4.95743C2.52525 5.29975 2.5755 5.63575 2.67371 5.96582C2.772 6.29586 2.9395 6.6075 3.17521 6.90086C3.41104 7.19421 3.72861 7.46007 4.12832 7.69843C4.52771 7.93671 5.01064 8.12929 5.61318 8.27596C5.94486 8.35971 6.28568 8.43789 6.57139 8.51082V12.7818C6.17854 12.6775 5.78964 12.5175 5.47575 12.3004C5.14825 12.0744 4.90196 11.802 4.71868 11.4474C4.548 11.1178 4.46607 10.7143 4.45414 10.2857H2C2.02482 11.0357 2.1875 11.6962 2.48829 12.2633C2.80254 12.8563 3.22161 13.3333 3.74557 13.7119C4.26921 14.0909 4.86675 14.3675 5.57407 14.5509C5.89139 14.6331 6.25 14.6923 6.57143 14.7376V16H8.85714V14.7664C9.21429 14.7283 9.53418 14.6704 9.87597 14.5922C10.5439 14.4396 11.149 14.198 11.673 13.868C12.1966 13.538 12.6237 13.1135 12.9448 12.5937C13.2655 12.0744 13.4285 11.4478 13.4285 10.7145C13.4286 10.3724 13.3749 10.03 13.2638 9.68772ZM6.57143 6.34639C6.14286 6.21271 5.71743 6.02182 5.42675 5.77325C5.11886 5.51057 4.97414 5.14704 4.97414 4.68236C4.97414 4.35232 5.06036 4.07736 5.22429 3.85729C5.38786 3.63725 5.57829 3.46307 5.82714 3.33475C6.04786 3.22086 6.32143 3.136 6.57143 3.07982V6.34639ZM10.8179 11.6954C10.713 11.9337 10.543 12.1445 10.3071 12.3279C10.0713 12.5113 9.74482 12.6611 9.36507 12.7771C9.20436 12.8263 9.07139 12.8644 8.85711 12.8927V9.06732C9.21425 9.16104 9.50639 9.25775 9.79732 9.35771C10.0853 9.45571 10.3598 9.62354 10.6022 9.86186C10.8445 10.1003 10.9704 10.4701 10.9704 10.9711C10.9704 11.2158 10.9226 11.457 10.8179 11.6954Z" fill="#121214"/>
</svg>
