<svg width="16" height="16" viewBox="0 0 16 16" fill="none" xmlns="http://www.w3.org/2000/svg">
<g clip-path="url(#clip0_1220_141)">
<path fill-rule="evenodd" clip-rule="evenodd" d="M8.875 1C8.875 0.516751 8.48325 0.125 8 0.125C7.51675 0.125 7.125 0.516751 7.125 1V8.38756L5.11872 6.38128C4.77701 6.03957 4.22299 6.03957 3.88128 6.38128C3.53957 6.72299 3.53957 7.27701 3.88128 7.61872L7.38128 11.1187C7.72299 11.4604 8.27701 11.4604 8.61872 11.1187L12.1187 7.61872C12.4604 7.27701 12.4604 6.72299 12.1187 6.38128C11.777 6.03957 11.223 6.03957 10.8813 6.38128L8.875 8.38756V1ZM1.875 10C1.875 9.51675 1.48325 9.125 1 9.125C0.516751 9.125 0.125 9.51675 0.125 10V13C0.125 14.5878 1.41218 15.875 3 15.875H13C14.5878 15.875 15.875 14.5878 15.875 13V10C15.875 9.51675 15.4832 9.125 15 9.125C14.5168 9.125 14.125 9.51675 14.125 10V13C14.125 13.6213 13.6213 14.125 13 14.125H3C2.37868 14.125 1.875 13.6213 1.875 13V10Z" fill="#121214"/>
</g>
<defs>
<clipPath id="clip0_1220_141">
<rect width="16" height="16" fill="white"/>
</clipPath>
</defs>
</svg>
