<svg width="16" height="16" viewBox="0 0 16 16" fill="none" xmlns="http://www.w3.org/2000/svg">
<path fill-rule="evenodd" clip-rule="evenodd" d="M2.57 0.429993C1.9404 0.429993 1.43 0.940388 1.43 1.56999V6.12999C1.43 6.7596 1.94039 7.26999 2.57 7.26999H4.28L4.28 14.68C4.28 15.3096 4.79039 15.82 5.42 15.82H12.83C13.4596 15.82 13.97 15.3096 13.97 14.68V1.56999C13.97 0.940387 13.4596 0.429993 12.83 0.429993H2.57ZM2.57 0.429993L2.57 1.56999V6.12999L4.28 6.12999C4.9096 6.12999 5.42 6.64039 5.42 7.26999V14.68H4.28L5.42 14.68H12.83V1.56999H2.57V0.429993ZM11.5 4C11.5 3.72386 11.2761 3.5 11 3.5C10.7239 3.5 10.5 3.72386 10.5 4V4.5C10.5 5.32843 9.82843 6 9.00001 6H8.70711L8.85356 5.85355C9.04882 5.65829 9.04882 5.34171 8.85356 5.14645C8.6583 4.95118 8.34172 4.95118 8.14645 5.14645L7.14645 6.14645C6.95119 6.34171 6.95119 6.65829 7.14645 6.85355L8.14645 7.85355C8.34172 8.04882 8.6583 8.04882 8.85356 7.85355C9.04882 7.65829 9.04882 7.34171 8.85356 7.14645L8.70711 7H9.00001C10.3807 7 11.5 5.88071 11.5 4.5V4Z" fill="#121214"/>
</svg>
