<svg width="16" height="16" viewBox="0 0 16 16" fill="none" xmlns="http://www.w3.org/2000/svg">
<g clip-path="url(#clip0_846_5491)">
<path fill-rule="evenodd" clip-rule="evenodd" d="M10.5 0C9.94771 0 9.5 0.447715 9.5 1C9.5 1.55228 9.94771 2 10.5 2H12.5858L8.79289 5.79289C8.40237 6.18342 8.40237 6.81658 8.79289 7.20711C9.18342 7.59763 9.81658 7.59763 10.2071 7.20711L14 3.41421V5.5C14 6.05228 14.4477 6.5 15 6.5C15.5523 6.5 16 6.05228 16 5.5V1C16 0.447715 15.5523 0 15 0H10.5ZM1 16L5.5 16C6.05229 16 6.5 15.5523 6.5 15C6.5 14.4477 6.05229 14 5.5 14L3.41422 14L7.20711 10.2071C7.59763 9.81658 7.59763 9.18342 7.20711 8.79289C6.81658 8.40237 6.18342 8.40237 5.79289 8.79289L2 12.5858L2 10.5C2 9.94771 1.55229 9.5 1 9.5C0.447718 9.5 2.34903e-06 9.94771 2.30075e-06 10.5L0 15C0 15.2652 0.105358 15.5196 0.292895 15.7071C0.480431 15.8946 0.734785 16 1 16Z" fill="#121214"/>
</g>
<defs>
<clipPath id="clip0_846_5491">
<rect width="16" height="16" fill="white"/>
</clipPath>
</defs>
</svg>
