<svg width="16" height="16" viewBox="0 0 16 16" fill="none" xmlns="http://www.w3.org/2000/svg">
<path d="M5.45528 5.34932L5.45383 5.35004L5.45166 5.35149L5.45528 5.34932ZM12.6552 5.21406C12.6048 5.16551 12.549 5.12302 12.4888 5.08748C12.4036 5.03729 12.3089 5.00512 12.2108 4.99296C12.1126 4.9808 12.013 4.9889 11.9181 5.01676C11.8232 5.04462 11.735 5.09166 11.659 5.15495C11.583 5.21825 11.5207 5.29646 11.4762 5.38476C11.227 5.87583 10.8834 6.31288 10.465 6.67081C10.5291 6.31028 10.5616 5.94481 10.5619 5.57861C10.5633 4.4648 10.2695 3.37052 9.71043 2.40718C9.15138 1.44383 8.34704 0.645833 7.3793 0.0944265C7.27266 0.0338334 7.15236 0.00135395 7.02971 4.14247e-05C6.90706 -0.0012711 6.7861 0.0286264 6.67818 0.0869234C6.57027 0.14522 6.47895 0.230002 6.41281 0.333298C6.34668 0.436594 6.3079 0.555012 6.30011 0.677419C6.25962 1.36319 6.08033 2.03361 5.7731 2.64806C5.46588 3.2625 5.03712 3.80818 4.5128 4.25205L4.34644 4.38731C3.79788 4.75637 3.31235 5.21138 2.90849 5.73484C2.28085 6.52551 1.84607 7.45154 1.63864 8.4395C1.43122 9.42746 1.45684 10.4502 1.71349 11.4265C1.97014 12.4028 2.45075 13.3059 3.1172 14.0641C3.78365 14.8224 4.61761 15.4149 5.55293 15.7947C5.66274 15.8394 5.78186 15.8564 5.89979 15.8443C6.01773 15.8321 6.13087 15.7912 6.22925 15.725C6.32764 15.6588 6.40825 15.5695 6.46399 15.4649C6.51974 15.3602 6.54891 15.2435 6.54893 15.1249C6.54833 15.0483 6.53614 14.9722 6.51277 14.8993C6.35093 14.291 6.30432 13.6578 6.37534 13.0324C7.05994 14.3232 8.15871 15.3463 9.495 15.9372C9.65804 16.0101 9.84232 16.0199 10.0122 15.9647C11.0678 15.6239 12.0188 15.0189 12.7748 14.207C13.5308 13.3952 14.0667 12.4036 14.3315 11.3264C14.5963 10.2491 14.5813 9.1221 14.2879 8.05229C13.9945 6.98249 13.4325 6.00547 12.6552 5.21406ZM9.83062 14.4949C9.2001 14.1754 8.64387 13.7268 8.19811 13.1783C7.75235 12.6297 7.42704 11.9934 7.24332 11.3109C7.18715 11.081 7.14368 10.8482 7.11312 10.6136C7.09254 10.4642 7.02576 10.3249 6.92214 10.2154C6.81851 10.1058 6.68322 10.0313 6.53519 10.0024C6.48968 9.99357 6.4434 9.98921 6.39704 9.98939C6.26995 9.98926 6.14507 10.0226 6.03498 10.0861C5.92489 10.1496 5.83347 10.241 5.76992 10.351C5.16989 11.3863 4.86822 12.5675 4.89833 13.7636C4.37042 13.3533 3.92921 12.8423 3.60028 12.2602C3.27134 11.678 3.06122 11.0364 2.9821 10.3725C2.90298 9.70856 2.95642 9.03553 3.13934 8.39241C3.32226 7.74929 3.63102 7.14887 4.04771 6.62597C4.3641 6.21501 4.74577 5.85874 5.17753 5.57137C5.19642 5.55926 5.21454 5.54597 5.23178 5.53159C5.23178 5.53159 5.44588 5.35438 5.45311 5.35076C6.48398 4.4792 7.21725 3.30773 7.55073 1.99964C8.33873 2.72828 8.86409 3.69673 9.04524 4.75458C9.22639 5.81243 9.05318 6.9005 8.55252 7.84982C8.48626 7.97653 8.45904 8.12003 8.47431 8.2622C8.48957 8.40437 8.54663 8.53883 8.63827 8.64859C8.72992 8.75834 8.85204 8.83848 8.9892 8.87886C9.12637 8.91924 9.27243 8.91807 9.40892 8.87548C10.5168 8.52802 11.4917 7.84948 12.2024 6.93121C12.6296 7.56211 12.909 8.28131 13.0196 9.03519C13.1303 9.78908 13.0693 10.5582 12.8413 11.2853C12.6133 12.0123 12.2242 12.6786 11.7029 13.2343C11.1816 13.79 10.5416 14.2209 9.83062 14.4949Z" fill="black"/>
</svg>
