<svg width="16" height="16" viewBox="0 0 16 16" fill="none" xmlns="http://www.w3.org/2000/svg">
<g clip-path="url(#clip0_1483_1247)">
<path fill-rule="evenodd" clip-rule="evenodd" d="M8.03034 0C8.44455 0 8.78034 0.335786 8.78034 0.75V2.59344C8.78034 3.00766 8.44455 3.34344 8.03034 3.34344C7.61612 3.34344 7.28034 3.00766 7.28034 2.59344V0.75C7.28034 0.335786 7.61612 0 8.03034 0ZM4.42554 2.116C4.15925 1.79873 4.20059 1.32566 4.51786 1.05937C4.83514 0.793083 5.30821 0.83442 5.5745 1.1517L6.76137 2.56585C7.02766 2.88312 6.98632 3.35619 6.66905 3.62248C6.35177 3.88877 5.8787 3.84743 5.61241 3.53015L4.42554 2.116ZM11.7362 2.116C12.0024 1.79873 11.9611 1.32566 11.6438 1.05937C11.3265 0.793083 10.8535 0.83442 10.5872 1.1517L9.40031 2.56585C9.13403 2.88312 9.17536 3.35619 9.49264 3.62248C9.80992 3.88877 10.283 3.84743 10.5493 3.53015L11.7362 2.116ZM5.68914 4.35001C4.89114 4.35001 4.36702 5.18353 4.71279 5.90273L5.99141 8.56225V14.9622C5.99141 15.5605 6.47643 16.0456 7.07473 16.0456H9.469C10.0673 16.0456 10.5523 15.5605 10.5523 14.9622V8.55868L11.8 5.89248C12.1361 5.17416 11.6118 4.35001 10.8188 4.35001H5.68914ZM7.2914 14.7456V9.06411H9.25234V14.7456H7.2914ZM10.4782 5.64999L9.48885 7.76413H7.05012L6.03371 5.64999H10.4782Z" fill="#121214"/>
</g>
<defs>
<clipPath id="clip0_1483_1247">
<rect width="16" height="16" fill="white"/>
</clipPath>
</defs>
</svg>
