<svg width="24" height="24" viewBox="0 0 24 24" fill="none" xmlns="http://www.w3.org/2000/svg">
<path fill-rule="evenodd" clip-rule="evenodd" d="M22.099 1.02736C22.2449 1.65957 22.4029 1.81763 23.0351 1.96353C23.0716 1.97568 23.0716 2.03647 23.0351 2.03647C22.4029 2.18237 22.2449 2.34043 22.099 2.97264C22.0868 3.00912 22.026 3.00912 22.026 2.97264C21.8801 2.34043 21.7221 2.18237 21.0899 2.03647C21.0534 2.02432 21.0534 1.96353 21.0899 1.96353C21.7221 1.81763 21.8801 1.65957 22.026 1.02736C22.0382 0.990881 22.099 0.990881 22.099 1.02736ZM3.74 3.27H8.11L8.12 3.26C8.19 3.24 8.41 3.17 8.59 2.96C8.77 2.74 8.8 2.51 8.8 2.43C8.81 2.36 8.84 2.12 8.7 1.88C8.54411 1.60719 8.29328 1.52424 8.22501 1.50166L8.22 1.5H3.47C3.2 1.55 2.33 1.76 1.67 2.56C1.17 3.16 1.04 3.79 1 4.08V7.32C1.01 7.39 1.05 7.67 1.3 7.88C1.55087 8.10192 1.84829 8.10041 1.92277 8.10003L1.93 8.1C1.98 8.1 2.3 8.1 2.55 7.85C2.79 7.61 2.79 7.32 2.79 7.26V4.38C2.79 4.29 2.8 3.97 3.03 3.68C3.29 3.35 3.66 3.28 3.74 3.27ZM3.74 20.73H8.11L8.12 20.74C8.19 20.76 8.41 20.83 8.59 21.04C8.77 21.26 8.8 21.49 8.8 21.57C8.81 21.64 8.84 21.88 8.7 22.12C8.5441 22.3928 8.29327 22.4758 8.22501 22.4983L8.22 22.5H3.47C3.2 22.45 2.33 22.24 1.67 21.44C1.17 20.84 1.04 20.21 1 19.92V16.68C1.01 16.61 1.05 16.33 1.3 16.12C1.55087 15.8981 1.8483 15.8996 1.92277 15.9L1.93 15.9C1.98 15.9 2.3 15.9 2.55 16.15C2.79 16.39 2.79 16.68 2.79 16.74V19.62C2.79 19.71 2.8 20.03 3.03 20.32C3.29 20.65 3.66 20.72 3.74 20.73ZM14.82 20.73H19.19C19.27 20.72 19.64 20.65 19.9 20.32C20.13 20.03 20.14 19.71 20.14 19.62V16.74C20.14 16.68 20.14 16.39 20.38 16.15C20.63 15.9 20.95 15.9 21 15.9L21.0072 15.9C21.0817 15.8996 21.3791 15.8981 21.63 16.12C21.88 16.33 21.92 16.61 21.93 16.68V19.92C21.89 20.21 21.76 20.84 21.26 21.44C20.6 22.24 19.73 22.45 19.46 22.5H14.71L14.705 22.4983C14.6367 22.4758 14.3859 22.3928 14.23 22.12C14.09 21.88 14.12 21.64 14.13 21.57C14.13 21.49 14.16 21.26 14.34 21.04C14.52 20.83 14.74 20.76 14.81 20.74L14.82 20.73ZM10.83 15.97V10.02L10.82 10.01C10.475 10.01 10.1275 10.005 9.77999 10C9.43249 9.99501 9.08499 9.99001 8.73999 9.99001L8.73652 9.98988C8.71684 9.98897 8.63484 9.98516 8.56999 10.05C8.51999 10.11 8.51999 10.2 8.51999 10.21C8.52999 10.57 8.52999 10.93 8.52999 11.29C8.51999 11.35 8.47999 11.53 8.30999 11.68C8.10999 11.84 7.88999 11.84 7.83999 11.84C7.78999 11.84 7.56999 11.83 7.37999 11.67C7.20999 11.52 7.15999 11.33 7.14999 11.27V10.04C7.15999 9.91001 7.22999 9.42001 7.63999 9.03001C8.01999 8.67001 8.44999 8.61001 8.58999 8.60001H14.41L14.432 8.60196C14.5711 8.61376 15.0548 8.65481 15.45 9.05001C15.82 9.43001 15.87 9.89001 15.87 10.01V11.33L15.8671 11.3426C15.8541 11.4018 15.8147 11.5813 15.64 11.71C15.4754 11.838 15.2941 11.8323 15.2337 11.8303L15.22 11.83C15.16 11.83 14.96 11.83 14.77 11.69C14.62 11.57 14.56 11.43 14.54 11.37L14.52 10.22C14.52 10.2 14.52 10.13 14.46 10.07C14.4 10 14.34 10 14.32 10H12.21V15.95C12.2126 15.95 12.2168 15.9497 12.2224 15.9492C12.2252 15.949 12.2284 15.9487 12.2319 15.9483C12.3264 15.9395 12.6669 15.9079 12.91 16.16C13.1 16.35 13.12 16.58 13.12 16.65C13.13 16.69 13.16 16.92 13 17.12C12.86 17.31 12.61 17.35 12.61 17.35H10.49C10.44 17.35 10.21 17.32 10.04 17.11C9.89999 16.95 9.88999 16.77 9.88999 16.71C9.88999 16.66 9.89999 16.37 10.13 16.15C10.42 15.88 10.83 15.97 10.83 15.97ZM21.4425 4.6625C19.9525 4.2425 19.4025 3.6925 18.9825 2.2025C18.9025 1.9325 18.5125 1.9325 18.4325 2.2025C18.0125 3.6925 17.4625 4.2425 15.9725 4.6625C15.7025 4.7425 15.7025 5.1325 15.9725 5.2125C17.4625 5.6325 18.0125 6.1825 18.4325 7.6725C18.5125 7.9425 18.9025 7.9425 18.9825 7.6725C19.4025 6.1825 19.9525 5.6325 21.4425 5.2125C21.7125 5.1325 21.7125 4.7425 21.4425 4.6625Z" fill="#121214"/>
</svg>
