<svg width="24" height="24" viewBox="0 0 24 24" fill="none" xmlns="http://www.w3.org/2000/svg">
<mask id="mask0_742_238" style="mask-type:luminance" maskUnits="userSpaceOnUse" x="1" y="1" width="22" height="22">
<path d="M20.99 1H3.01C1.89991 1 1 1.89991 1 3.01V20.99C1 22.1001 1.89991 23 3.01 23H20.99C22.1001 23 23 22.1001 23 20.99V3.01C23 1.89991 22.1001 1 20.99 1Z" fill="white"/>
</mask>
<g mask="url(#mask0_742_238)">
<path d="M20.9075 5.53957C19.3009 5.0823 18.7077 4.48909 18.2504 2.88246C18.1639 2.58585 17.7437 2.58585 17.6695 2.88246C17.2123 4.48909 16.6191 5.0823 15.0124 5.53957C14.7158 5.62608 14.7158 6.04628 15.0124 6.12043C16.6191 6.5777 17.2123 7.17092 17.6695 8.77754C17.7561 9.07415 18.1763 9.07415 18.2504 8.77754C18.7077 7.17092 19.3009 6.5777 20.9075 6.12043C21.2041 6.03392 21.2041 5.61373 20.9075 5.53957Z" fill="#121214"/>
<path d="M22.6658 2.20441C21.8755 2.02204 21.678 1.82447 21.4956 1.03419C21.4956 0.988602 21.4196 0.988602 21.4044 1.03419C21.222 1.82447 21.0245 2.02204 20.2342 2.20441C20.1886 2.20441 20.1886 2.2804 20.2342 2.29559C21.0245 2.47796 21.222 2.67553 21.4044 3.46581C21.4044 3.5114 21.4804 3.5114 21.4956 3.46581C21.678 2.67553 21.8755 2.47796 22.6658 2.29559C22.7114 2.29559 22.7114 2.21961 22.6658 2.20441Z" fill="#121214"/>
<path d="M22 12V20.52C22 21.63 21.61 22 20.5 22H3.48C2.37 22 2 21.63 2 20.52V3.5C2 2.39 2.37 2 3.48 2H12" stroke="#121214" stroke-width="2" stroke-miterlimit="10" stroke-linecap="round"/>
<circle cx="8.25" cy="7.5" r="2" fill="#121214"/>
<path d="M27.6 22.31L19.59 14.3C19.2 13.91 18.57 13.91 18.18 14.3L10.17 22.31C10.18 22.22 27.61 22.31 27.61 22.31H27.6Z" stroke="#121214" stroke-width="2" stroke-linecap="round" stroke-linejoin="round"/>
<path d="M20.49 22.11L10.47 12.09C10.05 11.67 9.36999 11.67 8.94999 12.09L-1.07001 22.11C-1.05001 21.99 20.49 22.11 20.49 22.11Z" fill="#121214"/>
</g>
</svg>
