<svg width="16" height="16" viewBox="0 0 16 16" fill="none" xmlns="http://www.w3.org/2000/svg">
<path fill-rule="evenodd" clip-rule="evenodd" d="M0.25 4.5C0.25 2.98122 1.48122 1.75 3 1.75H13C14.5188 1.75 15.75 2.98122 15.75 4.5V11C15.75 12.5188 14.5188 13.75 13 13.75H3C1.48122 13.75 0.25 12.5188 0.25 11V4.5ZM3 3.25C2.30964 3.25 1.75 3.80964 1.75 4.5V11C1.75 11.6904 2.30964 12.25 3 12.25H13C13.6904 12.25 14.25 11.6904 14.25 11V4.5C14.25 3.80964 13.6904 3.25 13 3.25H3ZM3.25 6.11538C3.25 5.3613 3.8613 4.75 4.61538 4.75H5.25V4.5C5.25 4.08579 5.58579 3.75 6 3.75C6.41421 3.75 6.75 4.08579 6.75 4.5V4.75H7.5C8.19036 4.75 8.75 5.30964 8.75 6C8.75 6.41421 8.41421 6.75 8 6.75C7.67345 6.75 7.39564 6.5413 7.29268 6.25H6.75V6.75H7C7.9665 6.75 8.75 7.5335 8.75 8.5C8.75 9.4665 7.9665 10.25 7 10.25H6.75V10.5C6.75 10.9142 6.41421 11.25 6 11.25C5.58579 11.25 5.25 10.9142 5.25 10.5V10.25H4C3.58579 10.25 3.25 9.91421 3.25 9.5C3.25 9.08579 3.58579 8.75 4 8.75H5.25V8.25H5C4.0335 8.25 3.25 7.4665 3.25 6.5V6.11538ZM5.25 6.75V6.25H4.75V6.5C4.75 6.63807 4.86193 6.75 5 6.75H5.25ZM6.75 8.25V8.75H7C7.13807 8.75 7.25 8.63807 7.25 8.5C7.25 8.36193 7.13807 8.25 7 8.25H6.75Z" fill="#121214"/>
</svg>
