<svg width="16" height="16" viewBox="0 0 16 16" fill="none" xmlns="http://www.w3.org/2000/svg">
<g clip-path="url(#clip0_558_980)">
<path fill-rule="evenodd" clip-rule="evenodd" d="M14 8C14 11.3137 11.3137 14 8 14C4.68629 14 2 11.3137 2 8C2 4.68629 4.68629 2 8 2C11.3137 2 14 4.68629 14 8ZM16 8C16 12.4183 12.4183 16 8 16C3.58172 16 0 12.4183 0 8C0 3.58172 3.58172 0 8 0C12.4183 0 16 3.58172 16 8ZM7.49755 6.07065C7.46135 6.59001 7.02856 7.0001 6.5 7.0001C5.94772 7.0001 5.5 6.55238 5.5 6.0001C5.5 5.37672 5.83842 4.88198 6.17074 4.56405C6.51697 4.23282 6.96544 3.98197 7.43718 3.84534C7.90876 3.70875 8.46943 3.66816 9.01858 3.84564C9.59319 4.03135 10.0858 4.43554 10.3944 5.0528C10.8607 5.98542 10.5767 6.92104 10.1387 7.56336C9.84755 7.99046 9.44667 8.36131 9 8.63067V9.00002C9 9.5523 8.55228 10 8 10C7.44772 10 7 9.5523 7 9.00002V8.00009C7 7.56966 7.27543 7.18753 7.68377 7.05141C7.97359 6.9548 8.29548 6.71655 8.48626 6.43672C8.67333 6.16234 8.63925 6.0146 8.60558 5.94725C8.53473 5.80557 8.46258 5.76781 8.40354 5.74872C8.31904 5.72141 8.17715 5.71321 7.99359 5.76638C7.8102 5.8195 7.65098 5.91577 7.5533 6.00922C7.52509 6.03621 7.50773 6.05686 7.49755 6.07065ZM7.4848 6.09096C7.48476 6.09096 7.48481 6.09076 7.48497 6.09037L7.48698 6.08651C7.48575 6.08951 7.48491 6.09098 7.4848 6.09096ZM9 11.5C9 12.0523 8.55229 12.5 8 12.5C7.44772 12.5 7 12.0523 7 11.5C7 10.9477 7.44772 10.5 8 10.5C8.55229 10.5 9 10.9477 9 11.5Z" fill="#121214"/>
</g>
<defs>
<clipPath id="clip0_558_980">
<rect width="16" height="16" fill="white"/>
</clipPath>
</defs>
</svg>
