<svg width="16" height="16" viewBox="0 0 16 16" fill="none" xmlns="http://www.w3.org/2000/svg">
<path fill-rule="evenodd" clip-rule="evenodd" d="M15.7115 8.23719C15.8425 7.84423 15.6301 7.41949 15.2372 7.28851C14.8442 7.15752 14.4195 7.36989 14.2885 7.76285C13.8642 9.03571 12.001 11.75 8 11.75C4.028 11.75 2.2962 9.06981 1.68536 7.69542C1.51713 7.3169 1.07391 7.14643 0.695396 7.31466C0.316883 7.48289 0.146414 7.92611 0.314642 8.30462C0.591158 8.92679 1.07456 9.79711 1.83664 10.6345L0.4 12.55C0.151472 12.8814 0.218629 13.3515 0.55 13.6C0.881371 13.8485 1.35147 13.7814 1.6 13.45L2.94923 11.651C4.00352 12.4456 5.39515 13.0752 7.20609 13.219L7.20608 14.9999C7.20608 15.4142 7.54186 15.7499 7.95607 15.7499C8.37029 15.7499 8.70608 15.4142 8.70608 14.9999L8.70609 13.2257C10.676 13.0878 12.1916 12.3806 13.3097 11.4962L14.4 12.95C14.6485 13.2814 15.1186 13.3485 15.45 13.1C15.7814 12.8515 15.8485 12.3814 15.6 12.05L14.4002 10.4503C15.0804 9.66067 15.507 8.85063 15.7115 8.23719Z" fill="#121214"/>
</svg>
