<svg width="16" height="16" viewBox="0 0 16 16" fill="none" xmlns="http://www.w3.org/2000/svg">
<path fill-rule="evenodd" clip-rule="evenodd" d="M7.38968 2.39574C7.87011 1.98923 8.57785 2.00328 9.04177 2.42854L13.0947 6.14368C13.3529 6.38044 13.5 6.71474 13.5 7.06512V12.6853C13.5 13.3757 12.9404 13.9353 12.25 13.9353H11.2V10.6853C11.2 8.91799 9.76731 7.4853 8 7.4853C6.23269 7.4853 4.8 8.91799 4.8 10.6853V13.9353H3.75C3.05964 13.9353 2.5 13.3757 2.5 12.6853V7.11292C2.5 6.74523 2.66188 6.39619 2.94257 6.15869L7.38968 2.39574ZM6.2 13.9353H9.8V10.6853C9.8 9.69119 8.99411 8.8853 8 8.8853C7.00589 8.8853 6.2 9.69119 6.2 10.6853V13.9353ZM10.0554 1.3228C9.03473 0.387233 7.47771 0.356329 6.42077 1.25067L1.97366 5.01361C1.35615 5.53612 1 6.30401 1 7.11292V12.6853C1 14.2041 2.23122 15.4353 3.75 15.4353H12.25C13.7688 15.4353 15 14.2041 15 12.6853V7.06512C15 6.29428 14.6765 5.55883 14.1082 5.03795L10.0554 1.3228Z" fill="#121214"/>
</svg>
