<svg width="24" height="24" viewBox="0 0 24 24" fill="none" xmlns="http://www.w3.org/2000/svg">
<path d="M20 21.8993L20 2.09877C19.9994 1.8983 19.9457 1.7018 19.8447 1.53041C19.7436 1.35903 19.5991 1.21925 19.4267 1.12613C19.2542 1.03301 19.0603 0.990069 18.8659 1.00193C18.6715 1.01379 18.484 1.08001 18.3234 1.19345L4.43197 11.0937C3.85601 11.504 3.85601 12.4919 4.43197 12.9033L18.3234 22.8036C18.4836 22.9182 18.6713 22.9854 18.866 22.9979C19.0607 23.0104 19.2551 22.9677 19.4279 22.8745C19.6007 22.7813 19.7454 22.6411 19.8463 22.4692C19.9471 22.2973 20.0003 22.1002 20 21.8993Z" fill="black"/>
</svg>
