<svg width="16" height="16" viewBox="0 0 16 16" fill="none" xmlns="http://www.w3.org/2000/svg">
<path fill-rule="evenodd" clip-rule="evenodd" d="M2 5.88364C2 2.64436 4.59636 0 7.81818 0C11.04 0 13.6364 2.64364 13.6364 5.88364C13.6364 6.79127 13.4509 7.53745 13.0727 8.18473C12.6996 8.82182 12.1702 9.31055 11.5716 9.74982C11.5371 9.77337 11.5086 9.80461 11.4883 9.84109C11.468 9.87757 11.4564 9.91828 11.4545 9.96C11.4545 10.4046 11.2779 10.831 10.9635 11.1454C10.6492 11.4597 10.2228 11.6364 9.77818 11.6364H5.85818C5.41358 11.6364 4.98719 11.4597 4.67281 11.1454C4.35843 10.831 4.18182 10.4046 4.18182 9.96C4.17987 9.91822 4.1682 9.87747 4.14775 9.84099C4.1273 9.8045 4.09862 9.77329 4.064 9.74982C3.46618 9.31055 2.93673 8.82182 2.56364 8.18473C2.18545 7.53745 2 6.79127 2 5.88364ZM7.81818 1.45455C5.41673 1.45455 3.45455 3.42909 3.45455 5.88364C3.45455 6.58182 3.59345 7.06473 3.81964 7.45018C4.05091 7.84582 4.40509 8.19491 4.92655 8.57818C5.352 8.89164 5.63636 9.39491 5.63636 9.96C5.63636 10.0822 5.736 10.1818 5.85818 10.1818H9.77818C9.83701 10.1818 9.89343 10.1584 9.93503 10.1168C9.97663 10.0753 10 10.0188 10 9.96C10 9.39491 10.2836 8.89164 10.7098 8.57818C11.2313 8.19491 11.5855 7.84582 11.8167 7.45091C12.0422 7.06473 12.1818 6.58255 12.1818 5.88436C12.1818 3.42909 10.2196 1.45455 7.81818 1.45455ZM4.90909 13.0909C4.90909 12.898 4.98571 12.713 5.1221 12.5766C5.25849 12.4403 5.44348 12.3636 5.63636 12.3636H10C10.1929 12.3636 10.3779 12.4403 10.5143 12.5766C10.6507 12.713 10.7273 12.898 10.7273 13.0909C10.7273 13.2838 10.6507 13.4688 10.5143 13.6052C10.3779 13.7416 10.1929 13.8182 10 13.8182C10 14.3968 9.77013 14.9518 9.36096 15.361C8.95179 15.7701 8.39684 16 7.81818 16C7.23953 16 6.68457 15.7701 6.2754 15.361C5.86623 14.9518 5.63636 14.3968 5.63636 13.8182C5.44348 13.8182 5.25849 13.7416 5.1221 13.6052C4.98571 13.4688 4.90909 13.2838 4.90909 13.0909ZM7.09091 13.8182C7.09091 14.0111 7.16753 14.1961 7.30392 14.3324C7.44031 14.4688 7.6253 14.5455 7.81818 14.5455C8.01107 14.5455 8.19605 14.4688 8.33244 14.3324C8.46883 14.1961 8.54545 14.0111 8.54545 13.8182H7.09091Z" fill="#121214"/>
</svg>
