<svg width="16" height="16" viewBox="0 0 16 16" fill="none" xmlns="http://www.w3.org/2000/svg">
<path fill-rule="evenodd" clip-rule="evenodd" d="M11.9222 1.67987C10.6358 0.782407 9.14422 0.5 8 0.5C6.85578 0.5 5.36419 0.782407 4.07782 1.67987C2.75401 2.60346 1.73284 4.12176 1.50496 6.4005C1.50166 6.43356 1.5 6.46677 1.5 6.5C1.5 8.58772 2.54068 10.394 3.73081 11.8265C4.86613 13.1931 6.23253 14.3301 7.21092 15.1443L7.34667 15.2573C7.53202 15.4176 7.76529 15.4999 8 15.5C8.23471 15.4999 8.46798 15.4176 8.65333 15.2573L8.78908 15.1443C9.76747 14.3301 11.1339 13.1931 12.2692 11.8265C13.4593 10.394 14.5 8.58772 14.5 6.5C14.5 6.46677 14.4983 6.43356 14.495 6.4005C14.2672 4.12176 13.246 2.60346 11.9222 1.67987ZM5.26919 10.5485C6.11348 11.5648 7.11401 12.4504 8 13.1969C8.88599 12.4504 9.88652 11.5648 10.7308 10.5485C11.7785 9.28743 12.4836 7.94367 12.4997 6.54888C12.3185 4.85895 11.5959 3.89086 10.7778 3.32013C9.91419 2.71759 8.85578 2.5 8 2.5C7.14422 2.5 6.08581 2.71759 5.22218 3.32013C4.40413 3.89086 3.68152 4.85895 3.50028 6.54888C3.51642 7.94367 4.22155 9.28743 5.26919 10.5485ZM9 7C9 7.55228 8.55228 8 8 8C7.44772 8 7 7.55228 7 7C7 6.44772 7.44772 6 8 6C8.55228 6 9 6.44772 9 7ZM11 7C11 8.65685 9.65685 10 8 10C6.34315 10 5 8.65685 5 7C5 5.34315 6.34315 4 8 4C9.65685 4 11 5.34315 11 7Z" fill="black"/>
</svg>
