<svg width="16" height="16" viewBox="0 0 16 16" fill="none" xmlns="http://www.w3.org/2000/svg">
<path d="M8.50001 7.18032C8.80684 7.18032 9.10678 7.08934 9.3619 6.91887C9.61702 6.74841 9.81586 6.50612 9.93328 6.22264C10.0507 5.93917 10.0814 5.62724 10.0216 5.32631C9.9617 5.02538 9.81395 4.74895 9.59699 4.53199C9.38003 4.31503 9.1036 4.16728 8.80267 4.10742C8.50173 4.04756 8.18981 4.07828 7.90633 4.1957C7.62286 4.31312 7.38057 4.51196 7.21011 4.76708C7.03964 5.0222 6.94866 5.32214 6.94866 5.62897C6.94866 6.04041 7.1121 6.435 7.40304 6.72594C7.69397 7.01688 8.08857 7.18032 8.50001 7.18032ZM7.94928 12.5403C8.02139 12.613 8.10718 12.6707 8.20171 12.71C8.29623 12.7494 8.39761 12.7697 8.50001 12.7697C8.60241 12.7697 8.7038 12.7494 8.79832 12.71C8.89284 12.6707 8.97864 12.613 9.05075 12.5403L12.2233 9.35998C12.9601 8.6235 13.462 7.68505 13.6655 6.6633C13.8689 5.64156 13.7648 4.58243 13.3662 3.61987C12.9677 2.65732 12.2926 1.83459 11.4264 1.25574C10.5602 0.676885 9.54182 0.36792 8.50001 0.36792C7.45821 0.36792 6.43981 0.676885 5.57362 1.25574C4.70743 1.83459 4.03236 2.65732 3.63381 3.61987C3.23525 4.58243 3.13111 5.64156 3.33456 6.6633C3.53801 7.68505 4.0399 8.6235 4.77676 9.35998L7.94928 12.5403ZM4.80003 5.27215C4.85303 4.71911 5.02887 4.18488 5.31471 3.70848C5.60055 3.23207 5.98918 2.82552 6.45222 2.5185C7.06051 2.1191 7.77232 1.9063 8.50001 1.9063C9.22771 1.9063 9.93951 2.1191 10.5478 2.5185C11.0078 2.82446 11.3942 3.22855 11.6793 3.7017C11.9644 4.17486 12.1412 4.70531 12.1968 5.25492C12.2524 5.80454 12.1856 6.35965 12.001 6.88033C11.8165 7.40102 11.5189 7.87435 11.1296 8.26627L8.50001 10.8958L5.87046 8.26627C5.4807 7.87815 5.18238 7.40801 4.99721 6.89007C4.81204 6.37212 4.74468 5.81941 4.80003 5.27215ZM13.9298 14.3166H3.07026C2.86454 14.3166 2.66725 14.3983 2.52178 14.5438C2.37631 14.6892 2.29459 14.8865 2.29459 15.0922C2.29459 15.298 2.37631 15.4953 2.52178 15.6407C2.66725 15.7862 2.86454 15.8679 3.07026 15.8679H13.9298C14.1355 15.8679 14.3328 15.7862 14.4783 15.6407C14.6237 15.4953 14.7054 15.298 14.7054 15.0922C14.7054 14.8865 14.6237 14.6892 14.4783 14.5438C14.3328 14.3983 14.1355 14.3166 13.9298 14.3166Z" fill="#121214"/>
</svg>
