<svg width="16" height="16" viewBox="0 0 16 16" fill="none" xmlns="http://www.w3.org/2000/svg">
<g clip-path="url(#clip0_308_147)">
<path d="M0.99997 7.54809H-3.02792e-05H0.99997ZM0.999969 12.7894H1.99997H0.999969ZM12.7895 15V14V15ZM3.2105 15V16V15ZM15 7.5481H14H15ZM15 12.7894H16H15ZM12.7895 5.33757L12.7895 4.33757L12.7895 5.33757ZM3.21051 5.33755L3.21051 6.33755L3.21051 5.33755ZM7 11.0214C7 11.5736 7.44771 12.0214 8 12.0214C8.55228 12.0214 9 11.5736 9 11.0214L7 11.0214ZM9 8.74784C9 8.19555 8.55228 7.74784 8 7.74784C7.44771 7.74784 7 8.19556 7 8.74784L9 8.74784ZM-3.02792e-05 7.54809L-3.05176e-05 12.7894H1.99997L1.99997 7.54809H-3.02792e-05ZM12.7895 14H3.2105V16H12.7895V14ZM14 7.5481V12.7894H16V7.5481H14ZM12.7895 4.33757L3.21051 4.33755L3.21051 6.33755L12.7895 6.33757L12.7895 4.33757ZM16 7.5481C16 5.77497 14.5626 4.33757 12.7895 4.33757L12.7895 6.33757C13.458 6.33757 14 6.87954 14 7.5481H16ZM1.99997 7.54809C1.99997 6.87952 2.54195 6.33755 3.21051 6.33755L3.21051 4.33755C1.43738 4.33755 -3.02196e-05 5.77495 -3.02792e-05 7.54809H1.99997ZM-3.05176e-05 12.7894C-3.06368e-05 14.5626 1.43737 16 3.2105 16L3.2105 14C2.54194 14 1.99997 13.458 1.99997 12.7894H-3.05176e-05ZM12.7895 16C14.5626 16 16 14.5626 16 12.7894H14C14 13.458 13.458 14 12.7895 14L12.7895 16ZM4.69229 5.54697C4.69229 3.53636 6.22345 1.99994 8 1.99994V-6.10352e-05C5.01837 -6.10352e-05 2.69229 2.53506 2.69229 5.54697H4.69229ZM8 1.99994C9.77654 1.99994 11.3077 3.53636 11.3077 5.54697H13.3077C13.3077 2.53506 10.9816 -6.10352e-05 8 -6.10352e-05V1.99994ZM9 11.0214V8.74784L7 8.74784L7 11.0214L9 11.0214Z" fill="#121214"/>
</g>
<defs>
<clipPath id="clip0_308_147">
<rect width="16" height="16" fill="white"/>
</clipPath>
</defs>
</svg>
