<svg width="16" height="16" viewBox="0 0 16 16" fill="none" xmlns="http://www.w3.org/2000/svg">
<g clip-path="url(#clip0_932_75)">
<path fill-rule="evenodd" clip-rule="evenodd" d="M7.85068 1.5399C8.04515 1.34543 8.35983 1.34722 8.54916 1.53655C8.99308 1.98048 9.62665 2.17848 10.2444 2.06616L10.4088 2.03626C10.581 2.00496 10.7465 2.11741 10.7809 2.28901C10.9104 2.9365 11.3946 3.45525 12.0316 3.62898L12.1058 3.64922C12.3395 3.71296 12.4794 3.95184 12.4207 4.18685L12.37 4.38958C12.2091 5.03319 12.4021 5.71343 12.8675 6.17891C13.0464 6.35781 13.0437 6.64647 12.8722 6.81787C12.3975 7.29261 12.2135 7.98534 12.3902 8.63308L12.3987 8.66441C12.4613 8.89366 12.3261 9.1302 12.0968 9.19272L12.0316 9.21052C11.3946 9.38425 10.9104 9.903 10.7809 10.5505C10.7465 10.7221 10.581 10.8345 10.4088 10.8032L10.2113 10.7673C9.62417 10.6606 9.02041 10.8328 8.57635 11.2214C8.36338 11.4077 8.03828 11.4064 7.83085 11.2249C7.38377 10.8337 6.78166 10.6601 6.19258 10.7582L5.92098 10.8035C5.62238 10.8533 5.32942 10.6884 5.217 10.4073L5.18207 10.32C4.97023 9.79044 4.52846 9.38635 3.98212 9.22245C3.74874 9.15243 3.61373 8.90911 3.67784 8.67403L3.68901 8.63308C3.86567 7.98534 3.6817 7.29261 3.20696 6.81787C3.03555 6.64647 3.03277 6.35781 3.21167 6.17891C3.67715 5.71343 3.87013 5.03319 3.70923 4.38958L3.65644 4.17844C3.59609 3.93704 3.73613 3.69085 3.97446 3.61935C4.52564 3.454 4.97133 3.04633 5.18504 2.51204L5.217 2.43215C5.32942 2.15109 5.62238 1.98623 5.92098 2.036L6.17454 2.07826C6.78815 2.18053 7.4131 1.97748 7.85068 1.5399ZM9.55497 0.53074C8.80502 -0.219212 7.58969 -0.210738 6.84487 0.534082C6.72982 0.649132 6.56568 0.701391 6.40838 0.675175L6.15482 0.632915C5.19687 0.473255 4.25698 1.00216 3.8963 1.90387L3.86434 1.98376C3.81163 2.11555 3.70169 2.21611 3.56573 2.2569C2.59955 2.54676 2.03182 3.54483 2.27647 4.52343L2.32926 4.73458C2.36774 4.8885 2.32166 5.05729 2.20585 5.1731C1.47897 5.89998 1.46677 7.0893 2.20114 7.82368C2.31494 7.93748 2.35904 8.10354 2.3167 8.25881L2.30553 8.29976C2.09827 9.0597 2.39041 9.84032 2.98593 10.2884L1.11096 13.1008C0.673692 13.7567 1.10076 14.6412 1.88633 14.7066L2.9046 14.7915L3.28017 15.4675C3.65034 16.1338 4.58927 16.1851 5.02984 15.5632L7.19207 12.5106C7.73548 12.8304 8.39906 12.868 8.97121 12.6293L11.0493 15.5632C11.4899 16.1851 12.4288 16.1338 12.799 15.4675L13.1746 14.7915L14.1928 14.7066C14.9784 14.6412 15.4055 13.7567 14.9682 13.1008L13.0814 10.2707C13.6806 9.82989 13.9785 9.05071 13.7711 8.29014L13.7625 8.25881C13.7202 8.10354 13.7643 7.93748 13.8781 7.82368C14.6124 7.0893 14.6002 5.89998 13.8734 5.1731C13.7575 5.05729 13.7115 4.8885 13.7499 4.73458L13.8006 4.53184C14.0471 3.54613 13.4603 2.54425 12.4801 2.27691L12.4059 2.25667C12.2886 2.22469 12.1995 2.12922 12.1757 2.01005C11.9892 1.07765 11.0899 0.466677 10.1544 0.636773L9.98998 0.666667C9.83154 0.695474 9.66892 0.644688 9.55497 0.53074ZM11.8544 14.2388L10.432 12.2308C11.1115 12.2449 11.7346 11.8593 12.0303 11.2583L13.4205 13.3436L12.8505 13.3911C12.5064 13.4198 12.1992 13.6182 12.0315 13.92L11.8544 14.2388ZM5.64895 12.2282C4.99571 12.1757 4.4001 11.8137 4.05424 11.2502L2.65863 13.3436L3.2287 13.3911C3.57281 13.4198 3.87996 13.6182 4.04765 13.92L4.22477 14.2388L5.64895 12.2282ZM9.85691 6.50079C9.85691 7.50448 9.04326 8.31813 8.03957 8.31813C7.03588 8.31813 6.22222 7.50448 6.22222 6.50079C6.22222 5.4971 7.03588 4.68344 8.03957 4.68344C9.04326 4.68344 9.85691 5.4971 9.85691 6.50079ZM11.2793 6.50079C11.2793 8.29007 9.82885 9.74057 8.03957 9.74057C6.25029 9.74057 4.79979 8.29007 4.79979 6.50079C4.79979 4.71151 6.25029 3.26101 8.03957 3.26101C9.82885 3.26101 11.2793 4.71151 11.2793 6.50079Z" fill="black"/>
</g>
<defs>
<clipPath id="clip0_932_75">
<rect width="16" height="16" fill="white"/>
</clipPath>
</defs>
</svg>
