<svg width="24" height="24" viewBox="0 0 24 24" fill="none" xmlns="http://www.w3.org/2000/svg">
<circle cx="8" cy="7" r="6.25" stroke="black" stroke-width="1.5"/>
<path d="M19.5 8V9.58579C19.5 9.851 19.3946 10.1054 19.2071 10.2929L19 10.5" stroke="#121214" stroke-width="1.5" stroke-linecap="round"/>
<circle cx="14.5" cy="17.5" r="1.5" fill="#D9D9D9" stroke="black" stroke-width="1.5"/>
<path d="M12 22.5V20C12 19.4477 12.4477 19 13 19H16C16.5523 19 17 19.4477 17 20V22.5" stroke="#121214" stroke-width="1.5" stroke-linecap="round"/>
<circle cx="19.5" cy="9.5" r="3.75" stroke="black" stroke-width="1.5"/>
<path fill-rule="evenodd" clip-rule="evenodd" d="M7.95921 2.5C8.37342 2.5 8.70921 2.83579 8.70921 3.25V3.86432C9.05709 3.96798 9.34034 4.13158 9.5543 4.29091C9.72981 4.4216 9.86344 4.55259 9.95528 4.65353C10.0015 4.70431 10.0379 4.7484 10.0646 4.78235C10.078 4.79936 10.089 4.81391 10.0976 4.82559L10.1087 4.84095L10.113 4.84695L10.1148 4.8495L10.1156 4.85067L10.116 4.85123C10.1162 4.8515 10.1163 4.85177 9.49998 5.27907L10.1163 4.85177C10.3523 5.19218 10.2677 5.65945 9.92729 5.89544C9.58951 6.12961 9.12683 6.04808 8.88914 5.71424L8.88913 5.71424L8.88535 5.70934C8.87879 5.70101 8.86552 5.68469 8.84577 5.66298C8.80569 5.61893 8.74252 5.55661 8.65842 5.49399C8.49157 5.36974 8.2612 5.25692 7.96359 5.25583L7.95921 5.25584L7.95468 5.25583C7.55041 5.25709 7.34872 5.42574 7.27364 5.54631C7.20291 5.65989 7.19447 5.79434 7.3034 5.93958C7.5489 6.26691 7.8794 6.33232 8.48557 6.45228L8.61652 6.47829C8.90026 6.53504 9.33648 6.62786 9.68668 6.90623C10.0995 7.23439 10.279 7.71271 10.279 8.27334C10.2791 8.9243 10.0548 9.46915 9.639 9.85101C9.36253 10.1049 9.03581 10.2554 8.70921 10.3329V10.785C8.70921 11.1992 8.37342 11.535 7.95921 11.535C7.545 11.535 7.20921 11.1992 7.20921 10.785V10.2466C7.12226 10.2163 7.03771 10.1818 6.95631 10.1432C6.57699 9.96353 6.15974 9.64196 5.9919 9.13843C5.86091 8.74547 6.07328 8.32073 6.46624 8.18975C6.85653 8.05965 7.27818 8.26826 7.41222 8.65611L7.41225 8.656C7.41238 8.65593 7.41297 8.65669 7.41413 8.65819C7.42303 8.66967 7.46572 8.72474 7.59844 8.7876C7.76267 8.8654 7.98033 8.91054 8.18993 8.89821C8.39982 8.88586 8.54305 8.82091 8.62439 8.74622C8.68933 8.68658 8.77905 8.56425 8.77905 8.27334C8.77905 8.1503 8.76041 8.09701 8.75485 8.0838C8.75338 8.08029 8.75326 8.07977 8.75335 8.07994C8.75342 8.08008 8.75365 8.08073 8.75331 8.08046C8.72087 8.05468 8.62728 8.01015 8.32235 7.94916C8.27498 7.93969 8.22225 7.93013 8.16503 7.91975C7.63421 7.8235 6.71656 7.65712 6.1034 6.83958C5.61663 6.19056 5.60819 5.38313 6.00034 4.75339C6.26715 4.32494 6.69292 4.01359 7.20921 3.86119V3.25C7.20921 2.83579 7.545 2.5 7.95921 2.5Z" fill="#121214"/>
<circle cx="14.5" cy="18.5" r="4.75" stroke="black" stroke-width="1.5"/>
</svg>
