<svg width="16" height="16" viewBox="0 0 16 16" fill="none" xmlns="http://www.w3.org/2000/svg">
<g clip-path="url(#clip0_1591_155)">
<path fill-rule="evenodd" clip-rule="evenodd" d="M0.25 3C0.25 1.48122 1.48122 0.25 3 0.25H13C14.5188 0.25 15.75 1.48122 15.75 3V9.5C15.75 11.0188 14.5188 12.25 13 12.25H7.41421C7.34791 12.25 7.28432 12.2763 7.23744 12.3232L4.88388 14.6768C4.09643 15.4642 2.75 14.9065 2.75 13.7929V12.2388C1.34838 12.1125 0.25 10.9345 0.25 9.5V3ZM3 1.75C2.30964 1.75 1.75 2.30964 1.75 3V9.5C1.75 10.1904 2.30964 10.75 3 10.75C3.69036 10.75 4.25 11.3096 4.25 12V13.1893L6.17678 11.2626C6.50497 10.9344 6.95008 10.75 7.41421 10.75H13C13.6904 10.75 14.25 10.1904 14.25 9.5V3C14.25 2.30964 13.6904 1.75 13 1.75H3ZM3.25 5C3.25 4.58579 3.58579 4.25 4 4.25H11C11.4142 4.25 11.75 4.58579 11.75 5C11.75 5.41421 11.4142 5.75 11 5.75H4C3.58579 5.75 3.25 5.41421 3.25 5ZM4 7.25C3.58579 7.25 3.25 7.58579 3.25 8C3.25 8.41421 3.58579 8.75 4 8.75H9C9.41421 8.75 9.75 8.41421 9.75 8C9.75 7.58579 9.41421 7.25 9 7.25H4Z" fill="#121214"/>
</g>
<defs>
<clipPath id="clip0_1591_155">
<rect width="16" height="16" fill="white"/>
</clipPath>
</defs>
</svg>
