<svg width="16" height="16" viewBox="0 0 16 16" fill="none" xmlns="http://www.w3.org/2000/svg">
<path fill-rule="evenodd" clip-rule="evenodd" d="M1.875 4C1.875 3.37868 2.37868 2.875 3 2.875H13C13.6213 2.875 14.125 3.37868 14.125 4V10.5C14.125 11.1213 13.6213 11.625 13 11.625H4.36205C3.92342 11.625 3.49867 11.7788 3.1617 12.0596L1.875 13.1318V4ZM3 1.125C1.41218 1.125 0.125 2.41218 0.125 4V13.9325C0.125 15.0983 1.48468 15.7351 2.38025 14.9888L4.28203 13.404C4.30449 13.3853 4.33281 13.375 4.36205 13.375H13C14.5878 13.375 15.875 12.0878 15.875 10.5V4C15.875 2.41218 14.5878 1.125 13 1.125H3ZM5 8.5C5.55228 8.5 6 8.05228 6 7.5C6 6.94772 5.55228 6.5 5 6.5C4.44772 6.5 4 6.94772 4 7.5C4 8.05228 4.44772 8.5 5 8.5ZM9 7.5C9 8.05228 8.55229 8.5 8 8.5C7.44772 8.5 7 8.05228 7 7.5C7 6.94772 7.44772 6.5 8 6.5C8.55229 6.5 9 6.94772 9 7.5ZM11 8.5C11.5523 8.5 12 8.05228 12 7.5C12 6.94772 11.5523 6.5 11 6.5C10.4477 6.5 10 6.94772 10 7.5C10 8.05228 10.4477 8.5 11 8.5Z" fill="#121214"/>
</svg>
