<svg width="16" height="16" viewBox="0 0 16 16" fill="none" xmlns="http://www.w3.org/2000/svg">
<g clip-path="url(#clip0_1433_1033)">
<path fill-rule="evenodd" clip-rule="evenodd" d="M2.375 4C2.375 3.93096 2.43096 3.875 2.5 3.875H13C13.069 3.875 13.125 3.93096 13.125 4V5.63386C13.0842 5.62802 13.0424 5.625 13 5.625H2.375V4ZM0.625 6.5V4C0.625 2.96447 1.46447 2.125 2.5 2.125H13C14.0355 2.125 14.875 2.96447 14.875 4V14C14.875 15.0355 14.0355 15.875 13 15.875H2.5C1.46447 15.875 0.625 15.0355 0.625 14V6.5ZM2.375 7.375H13C13.0424 7.375 13.0842 7.37198 13.125 7.36614V14C13.125 14.069 13.069 14.125 13 14.125H2.5C2.43096 14.125 2.375 14.069 2.375 14V7.375Z" fill="#121214"/>
<path d="M12.6464 1.35355L6.10705 7.89295C6.03725 7.96275 5.98967 8.05165 5.97031 8.14845L5.64709 9.76456C5.57711 10.1144 5.88558 10.4229 6.23544 10.3529L7.85155 10.0297C7.94835 10.0103 8.03725 9.96275 8.10705 9.89295L14.6464 3.35355C14.8417 3.15829 14.8417 2.84171 14.6464 2.64645L13.3536 1.35355C13.1583 1.15829 12.8417 1.15829 12.6464 1.35355Z" fill="#F8F8FB" stroke="#121214" stroke-width="1.75" stroke-linecap="round" stroke-linejoin="round"/>
</g>
<defs>
<clipPath id="clip0_1433_1033">
<rect width="16" height="16" fill="white"/>
</clipPath>
</defs>
</svg>
