<svg width="16" height="16" viewBox="0 0 16 16" fill="none" xmlns="http://www.w3.org/2000/svg">
<g clip-path="url(#clip0_1435_1088)">
<path d="M11.293 1.99999L14 4.70699L9.268 9.43899C9.194 9.51299 9.101 9.561 8.999 9.57899L6.585 9.99299C6.557 9.99799 6.528 9.99999 6.5 9.99999C6.368 9.99999 6.241 9.94799 6.146 9.85399C6.031 9.73899 5.979 9.57599 6.006 9.41599L6.42 7.00199C6.438 6.89999 6.486 6.80599 6.56 6.73299L11.293 1.99999ZM9.17 10.564L6.5 11C6.1 11 5.723 10.844 5.439 10.561C5.095 10.219 4.939 9.72799 5.021 9.24799L5.435 6.83299C5.488 6.52499 5.632 6.24699 5.853 6.02599L9.879 1.99999H1.5C0.672 1.99999 0 2.67199 0 3.49999V14.5C0 15.328 0.672 16 1.5 16H12.5C13.328 16 14 15.328 14 14.5V6.12099L9.975 10.146C9.755 10.367 9.477 10.511 9.17 10.564ZM15.561 1.02499L14.975 0.438994C14.391 -0.146006 13.438 -0.146006 12.854 0.438994L12 1.29199L14.707 3.99899L15.561 3.14499C15.844 2.86299 16 2.48599 16 2.08499C16 1.68399 15.844 1.30699 15.561 1.02499Z" fill="#121214"/>
</g>
<defs>
<clipPath id="clip0_1435_1088">
<rect width="16" height="16" fill="white"/>
</clipPath>
</defs>
</svg>
