<svg width="16" height="16" viewBox="0 0 16 16" fill="none" xmlns="http://www.w3.org/2000/svg">
<path d="M10.0265 13.0138C10.0265 14.1797 9.05688 15.1249 7.8608 15.1249C6.66473 15.1249 5.69511 14.1797 5.69511 13.0138H10.0265Z" stroke="#121214" stroke-width="1.5"/>
<path d="M13.1212 13.0138H2.87876C2.25126 13.0138 1.94657 12.5015 2.00772 11.9176C2.02228 11.7786 2.07971 11.6488 2.14942 11.5276L3.10152 9.87314C3.3116 9.50807 3.44246 9.10284 3.48557 8.68385L3.71535 6.45038C3.73575 6.25208 3.76479 6.05557 3.82256 5.86477C4.02893 5.18318 4.69859 3.47554 6.37573 2.77042V2.45832C6.37573 1.58388 7.10294 0.875 8 0.875C8.89706 0.875 9.62427 1.58388 9.62427 2.45832V2.77042C11.2453 3.45194 11.9251 5.06998 12.1551 5.79295C12.2308 6.03063 12.2637 6.27744 12.283 6.52611L12.4444 8.60421C12.4809 9.07437 12.6278 9.5293 12.873 9.93209L13.8363 11.5141C13.9154 11.6441 13.9803 11.7849 13.9941 11.9365C14.0468 12.5125 13.742 13.0138 13.1212 13.0138Z" stroke="#121214" stroke-width="1.5"/>
</svg>
