<svg width="24" height="24" viewBox="0 0 24 24" fill="none" xmlns="http://www.w3.org/2000/svg">
<g clip-path="url(#clip0_1695_1151)">
<path d="M3 9.11428V17.2286V21.6545C3 22.7409 3.8807 23.6216 4.9671 23.6216H19.2286C20.315 23.6216 21.1957 22.7409 21.1957 21.6545V9.11428M3 9.11428H21.1957M3 9.11428L5.70476 5.18008M21.1957 9.11428L18.7368 5.18008M5.70476 5.18008V1.36883C5.70476 1.16513 5.86989 1 6.07359 1H11.6061M5.70476 5.18008H11.6061M18.7368 5.18008H15.2944H13.5731M18.7368 5.18008V1.36883C18.7368 1.16513 18.5716 1 18.3679 1H15.2944H13.5731M13.5731 1V5.18008M13.5731 1H11.6061M13.5731 5.18008L14.2898 6.6134C14.4124 6.85864 14.2341 7.14718 13.9599 7.14718H11.2193C10.9451 7.14718 10.7668 6.85864 10.8894 6.6134L11.6061 5.18008M13.5731 5.18008H11.6061M11.6061 5.18008V1" stroke="black" stroke-width="1.3"/>
<path fill-rule="evenodd" clip-rule="evenodd" d="M11.7673 13.6265C11.7673 13.3081 12.0254 13.05 12.3438 13.05C12.6622 13.05 12.9203 13.3081 12.9203 13.6265C12.9203 13.9429 12.6655 14.1997 12.3499 14.203H12.3378C12.0222 14.1997 11.7673 13.9429 11.7673 13.6265ZM10.6548 14.4451C10.5347 14.1977 10.4673 13.92 10.4673 13.6265C10.4673 12.5901 11.3075 11.75 12.3438 11.75C13.3802 11.75 14.2203 12.5901 14.2203 13.6265C14.2203 13.92 14.1529 14.1978 14.0328 14.4452C15.3841 14.9533 16.3697 16.2084 16.4864 17.7073H16.7242H17.3742L17.3742 18.3573L17.3741 19.8509C17.3741 20.597 16.7693 21.2018 16.0233 21.2018H8.66427C7.9182 21.2018 7.31339 20.5969 7.31342 19.8509L7.31346 18.3573L7.31348 17.7073H7.96346H8.20109C8.31785 16.2083 9.30348 14.9532 10.6548 14.4451ZM12.3329 15.503H11.9933C10.7118 15.503 9.65521 16.4657 9.5072 17.7073H15.1803C15.0323 16.4657 13.9757 15.503 12.6942 15.503H12.3547C12.3511 15.503 12.3474 15.503 12.3438 15.503C12.3402 15.503 12.3365 15.503 12.3329 15.503ZM8.61344 19.0073L8.61342 19.8509C8.61341 19.879 8.63618 19.9018 8.66427 19.9018H16.0233C16.0514 19.9018 16.0741 19.879 16.0741 19.8509L16.0741 19.0073H8.61344Z" fill="#121214"/>
</g>
<defs>
<clipPath id="clip0_1695_1151">
<rect width="24" height="24" fill="white"/>
</clipPath>
</defs>
</svg>
