<svg width="16" height="16" viewBox="0 0 16 16" fill="none" xmlns="http://www.w3.org/2000/svg">
<path d="M5.86185 5.76014L6.17373 4.20074C6.19959 4.07144 6.16757 3.93684 6.08201 3.8365C5.5014 3.1556 4.76032 2.54258 4.42903 2.21129C3.98266 1.76492 1.75079 1.76493 1.75079 4.88952C1.75079 8.01412 8.44638 14.2633 10.6782 14.2633C12.9101 14.2633 14.2492 13.1091 14.2492 12.4778C14.2492 11.1387 13.3565 10.246 12.4637 9.79961C12.2366 9.68603 11.9281 9.73502 11.6131 9.85466C10.7535 10.1811 9.73579 10.1963 9.08562 9.54611L6.10599 6.56648C5.89492 6.35542 5.80331 6.05283 5.86185 5.76014Z" stroke="#121214" stroke-width="2" stroke-linecap="round" stroke-linejoin="round"/>
</svg>
