<svg width="16" height="16" viewBox="0 0 16 16" fill="none" xmlns="http://www.w3.org/2000/svg">
<g clip-path="url(#clip0_1433_1032)">
<path d="M3.75 5V2C3.75 1.44772 4.19772 1 4.75 1H11.25C11.8023 1 12.25 1.44772 12.25 2V5M3.75 5H2.25C1.69772 5 1.25 5.44772 1.25 6V11.5C1.25 12.0523 1.69772 12.5 2.25 12.5H3.75M3.75 5H12.25M12.25 5H13.75C14.3023 5 14.75 5.44772 14.75 6V11C14.75 11.5523 14.3023 12 13.75 12H12.25M12.25 12V10.5C12.25 9.94772 11.8023 9.5 11.25 9.5H4.75C4.19772 9.5 3.75 9.94772 3.75 10.5V12.5M12.25 12V14C12.25 14.5523 11.8023 15 11.25 15H4.75C4.19772 15 3.75 14.5523 3.75 14V12.5" stroke="#121214" stroke-width="1.75" stroke-linecap="round" stroke-linejoin="round"/>
</g>
<defs>
<clipPath id="clip0_1433_1032">
<rect width="16" height="16" fill="white"/>
</clipPath>
</defs>
</svg>
