<svg width="24" height="24" viewBox="0 0 24 24" fill="none" xmlns="http://www.w3.org/2000/svg">
<g clip-path="url(#clip0_1575_493)">
<path d="M17.1429 0H6.85716C5.43945 0 4.28573 1.15371 4.28573 2.57143V7.71429H19.7143V2.57143C19.7143 1.15371 18.5606 0 17.1429 0Z" fill="#213EA7"/>
<path d="M21.4286 6H2.57143C1.15371 6 0 7.15371 0 8.57143V16.2857C0 18.1766 1.53771 19.7143 3.42857 19.7143H20.5714C22.4623 19.7143 24 18.1766 24 16.2857V8.57143C24 7.15371 22.8463 6 21.4286 6Z" fill="#2A4FD6"/>
<path d="M17.1429 12H6.85716C5.437 12 4.28573 13.1513 4.28573 14.5714V21.4286C4.28573 22.8487 5.437 24 6.85716 24H17.1429C18.563 24 19.7143 22.8487 19.7143 21.4286V14.5714C19.7143 13.1513 18.563 12 17.1429 12Z" fill="#4469F0"/>
<path d="M15.4286 15.4286H8.57141C8.09827 15.4286 7.71427 15.8117 7.71427 16.2857C7.71427 16.7597 8.09827 17.1429 8.57141 17.1429H15.4286C15.9017 17.1429 16.2857 16.7597 16.2857 16.2857C16.2857 15.8117 15.9017 15.4286 15.4286 15.4286ZM12.8571 18.8572H8.57141C8.09827 18.8572 7.71427 19.2403 7.71427 19.7143C7.71427 20.1883 8.09827 20.5714 8.57141 20.5714H12.8571C13.3303 20.5714 13.7143 20.1883 13.7143 19.7143C13.7143 19.2403 13.3303 18.8572 12.8571 18.8572Z" fill="#F8F8FB"/>
</g>
<defs>
<clipPath id="clip0_1575_493">
<rect width="24" height="24" fill="white"/>
</clipPath>
</defs>
</svg>
