<svg width="16" height="16" viewBox="0 0 16 16" fill="none" xmlns="http://www.w3.org/2000/svg">
<path fill-rule="evenodd" clip-rule="evenodd" d="M3 2C1.41218 2 0.125 3.28718 0.125 4.875V10.375C0.125 11.9628 1.41218 13.25 3 13.25H7.5C7.98325 13.25 8.375 12.8582 8.375 12.375C8.375 11.8918 7.98325 11.5 7.5 11.5H3C2.37868 11.5 1.875 10.9963 1.875 10.375V4.875C1.875 4.25368 2.37868 3.75 3 3.75H13C13.6213 3.75 14.125 4.25368 14.125 4.875V6.375C14.125 6.85825 14.5168 7.25 15 7.25C15.4832 7.25 15.875 6.85825 15.875 6.375V4.875C15.875 3.28718 14.5878 2 13 2H3ZM4 5C3.51675 5 3.125 5.39175 3.125 5.875C3.125 6.35825 3.51675 6.75 4 6.75H8C8.48325 6.75 8.875 6.35825 8.875 5.875C8.875 5.39175 8.48325 5 8 5H4ZM3.125 8.625C3.125 8.14175 3.51675 7.75 4 7.75H6C6.48325 7.75 6.875 8.14175 6.875 8.625C6.875 9.10825 6.48325 9.5 6 9.5H4C3.51675 9.5 3.125 9.10825 3.125 8.625ZM10.5 8.5C10.0168 8.5 9.625 8.89175 9.625 9.375V12.875C9.625 13.3582 10.0168 13.75 10.5 13.75C10.9832 13.75 11.375 13.3582 11.375 12.875V11.4874L13.8813 13.9937C14.223 14.3354 14.777 14.3354 15.1187 13.9937C15.4604 13.652 15.4604 13.098 15.1187 12.7563L12.6124 10.25H13.6884C14.1716 10.25 14.5634 9.85825 14.5634 9.375C14.5634 8.89175 14.1716 8.5 13.6884 8.5H10.5Z" fill="#121214"/>
</svg>
