<svg width="16" height="16" viewBox="0 0 16 16" fill="none" xmlns="http://www.w3.org/2000/svg">
<g clip-path="url(#clip0_903_5625)">
<path fill-rule="evenodd" clip-rule="evenodd" d="M10.5943 8.27383C10.6197 8.17638 10.6962 7.98366 10.7642 8.00111C10.8095 8.01277 10.8543 8.12106 10.9004 8.23268C10.9406 8.32986 10.9818 8.42957 11.0254 8.47019C11.0624 8.50468 11.1439 8.53474 11.2292 8.56616C11.3596 8.61425 11.4987 8.66552 11.5 8.74073C11.5011 8.80593 11.394 8.84114 11.2795 8.87876C11.1757 8.91289 11.0658 8.94899 11.0254 9.01127C10.9928 9.06153 10.9586 9.14554 10.9243 9.22987C10.8692 9.3652 10.8138 9.50133 10.7642 9.49999C10.7287 9.49903 10.6882 9.40511 10.641 9.29559C10.5809 9.15624 10.5099 8.99163 10.4245 8.96109C10.3995 8.95214 10.3714 8.94272 10.3417 8.93282C10.1908 8.88233 10.0018 8.81916 10 8.74073C9.99867 8.68274 10.1171 8.64143 10.235 8.6003C10.3078 8.57488 10.3805 8.54954 10.4245 8.52037C10.5168 8.45928 10.5762 8.33056 10.5943 8.27383ZM6.54717 4.5037C6.32076 4.44552 6.06581 5.08793 5.98114 5.41277C5.92067 5.60186 5.7228 6.03094 5.41511 6.23458C5.26823 6.33179 5.02609 6.41627 4.78328 6.50098C4.39029 6.63809 3.99555 6.77582 4.00004 6.96911C4.0061 7.23052 4.63589 7.44111 5.13911 7.60939L5.13914 7.60939C5.23789 7.64242 5.33178 7.67381 5.41511 7.70364C5.69954 7.80544 5.93619 8.35412 6.13652 8.81861L6.13652 8.81862C6.29398 9.1837 6.42901 9.49677 6.54717 9.49997C6.7126 9.50445 6.8973 9.05068 7.08093 8.59957C7.19534 8.31848 7.30934 8.03842 7.41799 7.87091C7.55263 7.66331 7.91887 7.54296 8.26508 7.42918C8.64658 7.30381 9.00377 7.18643 8.99997 6.96911C8.99558 6.7184 8.53199 6.54749 8.09722 6.38721C7.81311 6.28247 7.54131 6.18227 7.41799 6.06731C7.27275 5.9319 7.13536 5.59955 7.00145 5.27559C6.84767 4.90355 6.69846 4.54258 6.54717 4.5037ZM7.77359 10.0019C7.66038 9.97276 7.5329 10.294 7.49057 10.4564C7.46033 10.5509 7.3614 10.7655 7.20756 10.8673C7.13411 10.9159 7.01304 10.9581 6.89164 11.0005C6.69515 11.069 6.49778 11.1379 6.50002 11.2346C6.50305 11.3653 6.81795 11.4706 7.06956 11.5547C7.11894 11.5712 7.16589 11.5869 7.20756 11.6018C7.34977 11.6527 7.46809 11.9271 7.56826 12.1593C7.64699 12.3418 7.7145 12.4984 7.77359 12.5C7.8563 12.5022 7.94865 12.2753 8.04046 12.0498C8.09767 11.9092 8.15467 11.7692 8.20899 11.6855C8.27632 11.5817 8.45943 11.5215 8.63254 11.4646C8.82329 11.4019 9.00189 11.3432 8.99998 11.2346C8.99779 11.1092 8.76599 11.0237 8.54861 10.9436C8.40655 10.8912 8.27065 10.8411 8.20899 10.7837C8.13637 10.716 8.06768 10.5498 8.00073 10.3878C7.92383 10.2018 7.84923 10.0213 7.77359 10.0019Z" fill="#121214"/>
<path d="M2.90589 2.53944C5.62077 0.27187 9.58533 0.138266 12.4906 2.14675L12.3711 1.0447C12.3216 0.654226 12.6087 0.299181 13.0147 0.254892C13.4192 0.209128 13.7868 0.489621 13.837 0.879359L14.2061 3.9205C14.2205 4.02509 14.2108 4.13158 14.1778 4.23187C14.1448 4.33215 14.0893 4.42359 14.0156 4.4992L14.0068 4.50806L13.9595 4.54792C13.8186 4.66454 13.6385 4.72507 13.4547 4.71769L10.8653 5.14729L10.8357 5.14507C10.4305 5.11407 10.1242 4.77231 10.1515 4.3811C10.1773 4.0076 10.4962 3.72341 10.8763 3.72046L11.723 3.36615C9.05534 1.45437 5.30042 1.84706 3.16941 4.3154C0.955725 6.87823 1.32775 10.7166 4.0072 12.8867C6.38549 14.8132 9.83851 14.8007 12.1592 12.8623L12.1629 12.8594C13.6466 11.6658 14.4261 9.83965 14.2496 7.96772C14.2098 7.57651 14.5058 7.22737 14.914 7.19268C15.3185 7.15725 15.6787 7.44586 15.7185 7.83707V7.83855C15.9437 10.1711 14.9767 12.4512 13.1277 13.9452C9.89534 16.6431 4.9904 16.2725 2.16923 13.1258C-0.652684 9.97842 -0.325687 5.23734 2.90589 2.5387" fill="#121214"/>
</g>
<defs>
<clipPath id="clip0_903_5625">
<rect width="16" height="16" fill="white"/>
</clipPath>
</defs>
</svg>
