<svg width="16" height="16" viewBox="0 0 16 16" fill="none" xmlns="http://www.w3.org/2000/svg">
<g clip-path="url(#clip0_1172_308)">
<path d="M8 1.6C7.00075 1.60016 6.01542 1.8343 5.12291 2.28367C4.23041 2.73304 3.45552 3.38516 2.86031 4.18779C2.2651 4.99043 1.8661 5.92129 1.69527 6.90582C1.52443 7.89036 1.5865 8.90122 1.87651 9.85746C2.16652 10.8137 2.67641 11.6888 3.36536 12.4125C4.0543 13.1363 4.90314 13.6887 5.84392 14.0255C6.78471 14.3623 7.79128 14.4741 8.78304 14.352C9.77481 14.23 10.7242 13.8773 11.5552 13.3224C11.7316 13.2044 11.9477 13.1614 12.1558 13.2027C12.364 13.244 12.5472 13.3664 12.6652 13.5428C12.7832 13.7192 12.8262 13.9353 12.7849 14.1434C12.7436 14.3516 12.6212 14.5348 12.4448 14.6528C11.1299 15.5334 9.58252 16.0024 8 16C3.5816 16 0 12.4184 0 8C0 3.5816 3.5816 0 8 0C12.4184 0 16 3.5816 16 8C16 9.2024 15.7344 10.344 15.2576 11.3696C15.1943 11.5058 15.0939 11.6214 14.968 11.7032C14.8421 11.785 14.6957 11.8297 14.5455 11.8322C14.3954 11.8347 14.2475 11.7949 14.119 11.7173C13.9904 11.6398 13.8862 11.5276 13.8184 11.3936L12.4864 8.7616C12.4382 8.66782 12.409 8.56544 12.4006 8.46034C12.3921 8.35525 12.4044 8.24951 12.437 8.14921C12.4695 8.04891 12.5215 7.95603 12.5901 7.87591C12.6586 7.79579 12.7423 7.73001 12.8363 7.68235C12.9304 7.63469 13.0329 7.6061 13.1381 7.59821C13.2432 7.59032 13.3489 7.60329 13.449 7.63638C13.5491 7.66947 13.6417 7.72202 13.7214 7.79101C13.8012 7.86001 13.8665 7.94408 13.9136 8.0384L14.34 8.8808C14.4659 7.97456 14.3961 7.05185 14.1351 6.17489C13.8742 5.29794 13.4283 4.48712 12.8275 3.79711C12.2266 3.1071 11.4848 2.55394 10.652 2.17493C9.81929 1.79592 8.91495 1.59987 8 1.6Z" fill="#121214"/>
</g>
<defs>
<clipPath id="clip0_1172_308">
<rect width="16" height="16" fill="white"/>
</clipPath>
</defs>
</svg>
