<svg width="24" height="24" viewBox="0 0 24 24" fill="none" xmlns="http://www.w3.org/2000/svg">
<path d="M4 2.10066L4 21.9012C4.00061 22.1017 4.05432 22.2982 4.15535 22.4696C4.25638 22.641 4.40089 22.7807 4.57335 22.8739C4.7458 22.967 4.93966 23.0099 5.13406 22.9981C5.32846 22.9862 5.51603 22.92 5.67659 22.8066L19.568 12.9063C20.144 12.496 20.144 11.5081 19.568 11.0967L5.67659 1.19644C5.51637 1.08184 5.3287 1.01464 5.13398 1.00213C4.93925 0.989626 4.74493 1.03229 4.57211 1.1255C4.39929 1.21871 4.25459 1.35888 4.15372 1.53081C4.05286 1.70273 3.99969 1.89982 4 2.10066Z" fill="black"/>
</svg>
