<svg width="24" height="24" viewBox="0 0 24 24" fill="none" xmlns="http://www.w3.org/2000/svg">
<g clip-path="url(#clip0_1575_498)">
<path d="M16.8591 10.2948L10.8421 20.0815C10.7887 20.1635 10.7091 20.2249 10.6162 20.2557C10.5234 20.2865 10.4228 20.2848 10.331 20.2509C10.2392 20.217 10.1617 20.1529 10.1112 20.0691C10.0607 19.9854 10.0401 19.8869 10.0529 19.7899L11.1594 12.7436L7.52691 12.9151C7.44598 12.919 7.36559 12.9 7.29502 12.8602C7.22444 12.8204 7.16654 12.7615 7.12799 12.6902C7.08944 12.619 7.07182 12.5382 7.07714 12.4574C7.08246 12.3765 7.11052 12.2989 7.15808 12.2333L13.3767 3.87463C13.4334 3.79866 13.5136 3.74354 13.6048 3.71783C13.6961 3.69213 13.7932 3.69728 13.8813 3.73249C13.9693 3.7677 14.0432 3.83099 14.0915 3.91253C14.1399 3.99407 14.16 4.0893 14.1486 4.18341L13.4581 9.60859L16.4988 9.64289C16.5743 9.64431 16.648 9.66556 16.7127 9.70452C16.7774 9.74348 16.8306 9.79877 16.8671 9.86484C16.9036 9.9309 16.9221 10.0054 16.9207 10.0809C16.9193 10.1564 16.898 10.2301 16.8591 10.2948ZM12 2.49434C12.0563 2.49438 12.1121 2.48331 12.1642 2.46177C12.2162 2.44023 12.2635 2.40864 12.3033 2.36881C12.3432 2.32898 12.3747 2.28168 12.3963 2.22964C12.4178 2.17759 12.4289 2.12181 12.4289 2.06548V0.41367C12.4289 0.299927 12.3837 0.190843 12.3032 0.110415C12.2228 0.0299864 12.1137 -0.0151978 12 -0.0151978C11.8863 -0.0151978 11.7772 0.0299864 11.6967 0.110415C11.6163 0.190843 11.5711 0.299927 11.5711 0.41367V2.06548C11.5711 2.12181 11.5822 2.17759 11.6037 2.22964C11.6252 2.28168 11.6568 2.32898 11.6967 2.36881C11.7365 2.40864 11.7838 2.44023 11.8358 2.46177C11.8879 2.48331 11.9437 2.49438 12 2.49434ZM4.11537 3.50202C4.03442 3.42419 3.92617 3.38121 3.81388 3.38231C3.70159 3.38342 3.59421 3.42852 3.51481 3.50793C3.43541 3.58733 3.39032 3.69472 3.38922 3.80701C3.38812 3.9193 3.43111 4.02754 3.50895 4.10848L4.677 5.27654C4.75742 5.35696 4.8665 5.40214 4.98023 5.40214C5.09396 5.40214 5.20303 5.35696 5.28345 5.27654C5.36387 5.19612 5.40905 5.08705 5.40905 4.97331C5.40905 4.85958 5.36387 4.75051 5.28345 4.67009L4.11537 3.50202ZM2.07238 11.5642H0.420575C0.308281 11.5664 0.201325 11.6126 0.122686 11.6928C0.0440461 11.7729 -3.3693e-06 11.8808 1.93294e-10 11.9931C3.36968e-06 12.1054 0.0440593 12.2133 0.122704 12.2934C0.201348 12.3736 0.308306 12.4198 0.420601 12.422H2.07238C2.18468 12.4198 2.29164 12.3736 2.37028 12.2934C2.44892 12.2132 2.49297 12.1054 2.49297 11.9931C2.49297 11.8808 2.44892 11.7729 2.37028 11.6927C2.29164 11.6126 2.18468 11.5664 2.07238 11.5642ZM4.677 18.7096L3.50892 19.8777C3.4691 19.9175 3.43752 19.9648 3.41597 20.0168C3.39442 20.0689 3.38332 20.1246 3.38332 20.1809C3.38332 20.2373 3.39442 20.293 3.41597 20.345C3.43752 20.3971 3.4691 20.4443 3.50892 20.4842C3.54874 20.524 3.59601 20.5556 3.64804 20.5771C3.70007 20.5987 3.75583 20.6098 3.81214 20.6098C3.86846 20.6098 3.92422 20.5987 3.97625 20.5771C4.02827 20.5556 4.07555 20.524 4.11537 20.4842L5.28344 19.3161C5.36126 19.2351 5.40422 19.1269 5.40312 19.0146C5.40201 18.9023 5.35691 18.795 5.27751 18.7156C5.19812 18.6362 5.09075 18.5911 4.97847 18.59C4.86619 18.5889 4.75795 18.6318 4.677 18.7096ZM12 21.4918C11.9437 21.4918 11.8879 21.5029 11.8358 21.5244C11.7838 21.5459 11.7365 21.5775 11.6967 21.6174C11.6568 21.6572 11.6252 21.7045 11.6037 21.7565C11.5822 21.8086 11.5711 21.8644 11.5711 21.9207V23.5725C11.5711 23.6862 11.6163 23.7953 11.6967 23.8758C11.7772 23.9562 11.8863 24.0014 12 24.0014C12.1137 24.0014 12.2228 23.9562 12.3032 23.8758C12.3837 23.7953 12.4289 23.6862 12.4289 23.5725V21.9207C12.4289 21.8644 12.4178 21.8086 12.3963 21.7565C12.3747 21.7045 12.3432 21.6572 12.3033 21.6174C12.2635 21.5775 12.2162 21.5459 12.1642 21.5244C12.1121 21.5029 12.0563 21.4918 12 21.4918ZM19.323 18.7096C19.242 18.6318 19.1338 18.5888 19.0215 18.5899C18.9092 18.591 18.8018 18.6361 18.7224 18.7155C18.643 18.795 18.5979 18.9023 18.5968 19.0146C18.5957 19.1269 18.6387 19.2352 18.7166 19.3161L19.8846 20.4842C19.9244 20.524 19.9717 20.5556 20.0237 20.5771C20.0758 20.5987 20.1315 20.6098 20.1878 20.6098C20.2442 20.6098 20.2999 20.5987 20.3519 20.5771C20.404 20.5556 20.4512 20.524 20.4911 20.4842C20.5309 20.4443 20.5625 20.3971 20.584 20.345C20.6056 20.293 20.6167 20.2373 20.6167 20.1809C20.6167 20.1246 20.6056 20.0689 20.584 20.0168C20.5625 19.9648 20.5309 19.9175 20.4911 19.8777L19.323 18.7096ZM23.5794 11.5642H21.9276C21.8153 11.5664 21.7083 11.6126 21.6297 11.6928C21.5511 11.7729 21.507 11.8808 21.507 11.9931C21.507 12.1054 21.5511 12.2133 21.6297 12.2934C21.7084 12.3736 21.8153 12.4198 21.9276 12.422H23.5794C23.6917 12.4198 23.7987 12.3736 23.8773 12.2934C23.9559 12.2132 24 12.1054 24 11.9931C24 11.8808 23.9559 11.7729 23.8773 11.6927C23.7987 11.6126 23.6917 11.5664 23.5794 11.5642ZM19.8846 3.50202L18.7165 4.67009C18.6361 4.75051 18.5909 4.85958 18.5909 4.97331C18.5909 5.08705 18.6361 5.19612 18.7165 5.27654C18.797 5.35696 18.906 5.40214 19.0198 5.40214C19.1335 5.40214 19.2426 5.35696 19.323 5.27654L20.4911 4.10846C20.5689 4.02752 20.6119 3.91927 20.6108 3.80696C20.6097 3.69466 20.5646 3.58726 20.4852 3.50785C20.4058 3.42843 20.2984 3.38334 20.1861 3.38225C20.0738 3.38116 19.9656 3.42416 19.8846 3.50202Z" fill="#E5686B"/>
</g>
<defs>
<clipPath id="clip0_1575_498">
<rect width="24" height="24" fill="white"/>
</clipPath>
</defs>
</svg>
