<svg width="16" height="16" viewBox="0 0 16 16" fill="none" xmlns="http://www.w3.org/2000/svg">
<path fill-rule="evenodd" clip-rule="evenodd" d="M5.82843 2.75C5.49691 2.75 5.17896 2.8817 4.94454 3.11612L4.75 3.31066V4C4.75 4.69036 5.30964 5.25 6 5.25H10C10.6904 5.25 11.25 4.69036 11.25 4V2.75H5.82843ZM12 1.25H5.82843C5.09908 1.25 4.39961 1.53973 3.88388 2.05546L3.46977 2.46957C3.4697 2.46964 3.46964 2.4697 3.46957 2.46977L1.55546 4.38388C1.03973 4.89961 0.75 5.59908 0.75 6.32843V12C0.75 13.5188 1.98122 14.75 3.5 14.75H4.5H12.5C14.0188 14.75 15.25 13.5188 15.25 12V4C15.25 2.48122 14.0188 1.25 12.5 1.25H12ZM12.75 2.775V4C12.75 5.51878 11.5188 6.75 10 6.75H6C4.72904 6.75 3.65946 5.88781 3.34425 4.71641L2.61612 5.44454C2.3817 5.67896 2.25 5.99691 2.25 6.32843V12C2.25 12.6904 2.80964 13.25 3.5 13.25H3.75V12C3.75 10.4812 4.98122 9.25 6.5 9.25H9.5C11.0188 9.25 12.25 10.4812 12.25 12V13.25H12.5C13.1904 13.25 13.75 12.6904 13.75 12V4C13.75 3.39526 13.3206 2.89082 12.75 2.775ZM5.25 12V13.25H10.75V12C10.75 11.3096 10.1904 10.75 9.5 10.75H6.5C5.80964 10.75 5.25 11.3096 5.25 12Z" fill="#121214"/>
</svg>
