<svg width="16" height="16" viewBox="0 0 16 16" fill="none" xmlns="http://www.w3.org/2000/svg">
<g clip-path="url(#clip0_1482_348)">
<path fill-rule="evenodd" clip-rule="evenodd" d="M2.08142 1.89246C2.01238 1.89246 1.95642 1.94842 1.95642 2.01746V4.84304C1.95642 5.32629 1.56467 5.71804 1.08142 5.71804C0.598172 5.71804 0.206421 5.32629 0.206421 4.84304V2.01746C0.206421 0.98192 1.04589 0.142456 2.08142 0.142456H4.58142C5.06467 0.142456 5.45642 0.534207 5.45642 1.01746C5.45642 1.50071 5.06467 1.89246 4.58142 1.89246H2.08142ZM14 1.89246C14.069 1.89246 14.125 1.94842 14.125 2.01746V4.84304C14.125 5.32629 14.5168 5.71804 15 5.71804C15.4832 5.71804 15.875 5.32629 15.875 4.84304V2.01746C15.875 0.98192 15.0355 0.142456 14 0.142456H11.5C11.0168 0.142456 10.625 0.534207 10.625 1.01746C10.625 1.50071 11.0168 1.89246 11.5 1.89246H14ZM14.125 14.2616C14.125 14.3306 14.069 14.3866 14 14.3866H11.5C11.0168 14.3866 10.625 14.7783 10.625 15.2616C10.625 15.7448 11.0168 16.1366 11.5 16.1366H14C15.0355 16.1366 15.875 15.2971 15.875 14.2616V11.436C15.875 10.9528 15.4832 10.561 15 10.561C14.5168 10.561 14.125 10.9528 14.125 11.436V14.2616ZM2.08142 14.3866C2.01238 14.3866 1.95642 14.3306 1.95642 14.2616V11.436C1.95642 10.9528 1.56467 10.561 1.08142 10.561C0.598172 10.561 0.206421 10.9528 0.206421 11.436V14.2616C0.206421 15.2971 1.04589 16.1366 2.08142 16.1366H4.58142C5.06467 16.1366 5.45642 15.7448 5.45642 15.2616C5.45642 14.7783 5.06467 14.3866 4.58142 14.3866H2.08142ZM1 7.30524C0.516751 7.30524 0.125 7.69699 0.125 8.18024C0.125 8.66349 0.516751 9.05524 1 9.05524H15C15.4832 9.05524 15.875 8.66349 15.875 8.18024C15.875 7.69699 15.4832 7.30524 15 7.30524H1Z" fill="black"/>
</g>
<defs>
<clipPath id="clip0_1482_348">
<rect width="16" height="16" fill="white"/>
</clipPath>
</defs>
</svg>
