<svg width="16" height="16" viewBox="0 0 16 16" fill="none" xmlns="http://www.w3.org/2000/svg">
<g clip-path="url(#clip0_558_1127)">
<path fill-rule="evenodd" clip-rule="evenodd" d="M12.5 7.25C12.5 10.1495 10.1495 12.5 7.25 12.5C4.3505 12.5 2 10.1495 2 7.25C2 4.3505 4.3505 2 7.25 2C10.1495 2 12.5 4.3505 12.5 7.25ZM11.6207 13.0349C10.4055 13.9545 8.89144 14.5 7.25 14.5C3.24594 14.5 0 11.2541 0 7.25C0 3.24594 3.24594 0 7.25 0C11.2541 0 14.5 3.24594 14.5 7.25C14.5 8.89144 13.9545 10.4055 13.0349 11.6207L15.7071 14.2929C16.0976 14.6834 16.0976 15.3166 15.7071 15.7071C15.3166 16.0976 14.6834 16.0976 14.2929 15.7071L11.6207 13.0349Z" fill="#121214"/>
</g>
<defs>
<clipPath id="clip0_558_1127">
<rect width="16" height="16" fill="white"/>
</clipPath>
</defs>
</svg>
