<svg width="16" height="16" viewBox="0 0 16 16" fill="none" xmlns="http://www.w3.org/2000/svg">
<g clip-path="url(#clip0_1361_233)">
<path fill-rule="evenodd" clip-rule="evenodd" d="M14 1.7H2C1.83431 1.7 1.7 1.83431 1.7 2V5C1.7 5.16569 1.83431 5.3 2 5.3H14C14.1657 5.3 14.3 5.16569 14.3 5V2C14.3 1.83431 14.1657 1.7 14 1.7ZM2 0C0.895431 0 0 0.89543 0 2V5C0 6.10457 0.895431 7 2 7H14C15.1046 7 16 6.10457 16 5V2C16 0.895431 15.1046 0 14 0H2ZM0.125 10C0.125 8.96447 0.964466 8.125 2 8.125H14C15.0355 8.125 15.875 8.96447 15.875 10V11.25C15.875 12.2855 15.0355 13.125 14 13.125H2C0.964467 13.125 0.125 12.2855 0.125 11.25V10ZM2 9.875C1.93096 9.875 1.875 9.93096 1.875 10V11.25C1.875 11.319 1.93096 11.375 2 11.375H14C14.069 11.375 14.125 11.319 14.125 11.25V10C14.125 9.93096 14.069 9.875 14 9.875H2ZM0 15.125C0 14.6418 0.391751 14.25 0.875 14.25H15.125C15.6082 14.25 16 14.6418 16 15.125C16 15.6082 15.6082 16 15.125 16H0.875C0.391751 16 0 15.6082 0 15.125Z" fill="#121214"/>
</g>
<defs>
<clipPath id="clip0_1361_233">
<rect width="16" height="16" fill="white"/>
</clipPath>
</defs>
</svg>
