<svg width="16" height="16" viewBox="0 0 16 16" fill="none" xmlns="http://www.w3.org/2000/svg">
<g clip-path="url(#clip0_251_268)">
<path d="M8 1C8.89216 1 9.61538 1.72323 9.61538 2.61538C9.61538 2.76209 9.71101 2.89081 9.84879 2.94117C9.99193 2.99349 10.1322 3.0517 10.2694 3.11553C10.4025 3.1775 10.5614 3.15412 10.6653 3.05026C11.2961 2.41941 12.3189 2.41941 12.9498 3.05026C13.5806 3.6811 13.5806 4.70393 12.9498 5.33477C12.8459 5.43863 12.8225 5.59748 12.8845 5.73065C12.9483 5.8678 13.0065 6.00809 13.0588 6.15122C13.1092 6.289 13.2379 6.38461 13.3846 6.38461C14.2768 6.38461 15 7.10784 15 8C15 8.89216 14.2768 9.61538 13.3846 9.61538C13.2379 9.61538 13.1092 9.711 13.0588 9.84878C13.0065 9.99192 12.9483 10.1322 12.8845 10.2694C12.8225 10.4026 12.8459 10.5614 12.9497 10.6653C13.5806 11.2961 13.5806 12.3189 12.9497 12.9497C12.3189 13.5806 11.2961 13.5806 10.6653 12.9497C10.5614 12.8459 10.4025 12.8225 10.2694 12.8845C10.1322 12.9483 9.99193 13.0065 9.84879 13.0588C9.71101 13.1092 9.61538 13.2379 9.61538 13.3846C9.61538 14.2768 8.89216 15 8 15C7.10784 15 6.38461 14.2768 6.38461 13.3846C6.38461 13.2379 6.28899 13.1092 6.15121 13.0588C6.00808 13.0065 5.8678 12.9483 5.73065 12.8845C5.59747 12.8225 5.43863 12.8459 5.33476 12.9497C4.70391 13.5806 3.6811 13.5806 3.05026 12.9497C2.41941 12.3189 2.41941 11.2961 3.05026 10.6653C3.15413 10.5614 3.17752 10.4026 3.11554 10.2694C3.05171 10.1322 2.99348 9.99192 2.94115 9.84878C2.89079 9.711 2.76208 9.61538 2.61538 9.61538C1.72323 9.61538 1 8.89216 1 8C1 7.10784 1.72323 6.38461 2.61538 6.38461C2.76208 6.38461 2.89079 6.289 2.94115 6.15122C2.99348 6.00809 3.0517 5.86779 3.11553 5.73064C3.17751 5.59747 3.15412 5.43863 3.05026 5.33477C2.41941 4.70389 2.41941 3.6811 3.05026 3.05026C3.6811 2.41941 4.70391 2.41941 5.33476 3.05026C5.43862 3.15412 5.59745 3.17751 5.73062 3.11553C5.86778 3.0517 6.00807 2.99349 6.15121 2.94117C6.28899 2.89081 6.38461 2.76209 6.38461 2.61538C6.38461 1.72323 7.10784 1 8 1Z" stroke="#121214" stroke-width="2"/>
<circle cx="8" cy="8" r="2" stroke="#121214" stroke-width="2"/>
</g>
<defs>
<clipPath id="clip0_251_268">
<rect width="16" height="16" fill="white"/>
</clipPath>
</defs>
</svg>
