<svg width="16" height="16" viewBox="0 0 16 16" fill="none" xmlns="http://www.w3.org/2000/svg">
<path d="M15.3441 6.98938L9.56616 1.21146C9.46515 1.11049 9.33647 1.04172 9.19639 1.01387C9.05631 0.986015 8.91112 1.00032 8.77917 1.05497C8.64721 1.10962 8.53443 1.20217 8.45506 1.32091C8.3757 1.43965 8.33333 1.57926 8.33329 1.72209V4.28242C6.36035 4.465 4.52653 5.37724 3.19073 6.84062C1.85492 8.30399 1.11326 10.2132 1.1109 12.1946V13.2779C1.11101 13.4278 1.15778 13.574 1.24471 13.6962C1.33165 13.8183 1.45443 13.9104 1.59605 13.9596C1.73766 14.0088 1.89108 14.0127 2.03503 13.9708C2.17897 13.9289 2.30631 13.8432 2.39938 13.7257C3.10695 12.8843 3.97513 12.1923 4.95317 11.6902C5.93122 11.1881 6.99953 10.8859 8.09568 10.8014C8.13179 10.797 8.22207 10.7898 8.33329 10.7826V13.2779C8.33333 13.4207 8.3757 13.5603 8.45506 13.6791C8.53443 13.7978 8.64721 13.8904 8.77917 13.945C8.91112 13.9997 9.05631 14.014 9.19639 13.9861C9.33647 13.9583 9.46515 13.8895 9.56616 13.7885L15.3441 8.01062C15.4795 7.87518 15.5555 7.69151 15.5555 7.5C15.5555 7.30849 15.4795 7.12482 15.3441 6.98938ZM9.77777 11.5344V10.0278C9.77777 9.83629 9.70168 9.65259 9.56623 9.51714C9.43079 9.38169 9.24708 9.3056 9.05553 9.3056C8.87136 9.3056 8.11951 9.34171 7.9274 9.36699C5.98086 9.54634 4.128 10.2859 2.59294 11.4962C2.76717 9.9032 3.52285 8.43049 4.71528 7.36C5.9077 6.28951 7.45309 5.69646 9.05553 5.6944C9.24708 5.6944 9.43079 5.61831 9.56623 5.48286C9.70168 5.34742 9.77777 5.16371 9.77777 4.97216V3.46557L13.8122 7.5L9.77777 11.5344Z" fill="#121214"/>
</svg>
