<svg width="16" height="16" viewBox="0 0 16 16" fill="none" xmlns="http://www.w3.org/2000/svg">
<path d="M3.42878 1.25638C3.57899 1.09234 3.78269 1.00019 3.99508 1.00019C4.20747 1.00019 4.41117 1.09234 4.56137 1.25638L7.76531 4.75638C7.91122 4.9214 7.99195 5.14243 7.99013 5.37185C7.9883 5.60127 7.90406 5.82073 7.75555 5.98297C7.60705 6.1452 7.40615 6.23722 7.19613 6.23921C6.98612 6.24121 6.78379 6.15301 6.63272 5.99362L4.79606 3.98725V14.125C4.79606 14.3571 4.71167 14.5796 4.56146 14.7437C4.41125 14.9078 4.20751 15 3.99508 15C3.78264 15 3.57891 14.9078 3.4287 14.7437C3.27848 14.5796 3.19409 14.3571 3.19409 14.125V3.98725L1.35744 5.99362C1.20637 6.15301 1.00404 6.24121 0.794024 6.23921C0.584009 6.23722 0.383112 6.1452 0.234603 5.98297C0.0860939 5.82073 0.00185526 5.60127 3.02793e-05 5.37185C-0.0017947 5.14243 0.07894 4.9214 0.224846 4.75638L3.42878 1.25638ZM11.2039 12.0128V1.875C11.2039 1.64294 11.2883 1.42038 11.4385 1.25628C11.5888 1.09219 11.7925 1 12.0049 1C12.2174 1 12.4211 1.09219 12.5713 1.25628C12.7215 1.42038 12.8059 1.64294 12.8059 1.875V12.0128L14.6426 10.0064C14.7936 9.84699 14.996 9.75879 15.206 9.76079C15.416 9.76278 15.6169 9.8548 15.7654 10.017C15.9139 10.1793 15.9981 10.3987 16 10.6281C16.0018 10.8576 15.9211 11.0786 15.7752 11.2436L12.5712 14.7436C12.421 14.9077 12.2173 14.9998 12.0049 14.9998C11.7925 14.9998 11.5888 14.9077 11.4386 14.7436L8.23469 11.2436C8.08878 11.0786 8.00805 10.8576 8.00987 10.6281C8.0117 10.3987 8.09594 10.1793 8.24445 10.017C8.39295 9.8548 8.59385 9.76278 8.80387 9.76079C9.01388 9.75879 9.21621 9.84699 9.36728 10.0064L11.2039 12.0128Z" fill="#121214"/>
</svg>
