<svg width="16" height="16" viewBox="0 0 16 16" fill="none" xmlns="http://www.w3.org/2000/svg">
<path d="M4.41275 7H11.838C11.9131 6.99977 11.9868 6.97963 12.0511 6.94174C12.1154 6.90386 12.1678 6.84967 12.2027 6.785C12.2376 6.72032 12.2537 6.64763 12.2493 6.57473C12.2448 6.50183 12.22 6.43149 12.1775 6.37128L8.46485 1.16199C8.31098 0.946004 7.94055 0.946004 7.78627 1.16199L4.07366 6.37128C4.03069 6.43136 4.00549 6.50174 4.0008 6.57476C3.99611 6.64778 4.01211 6.72065 4.04706 6.78546C4.08201 6.85027 4.13458 6.90453 4.19905 6.94235C4.26352 6.98018 4.33743 7.00011 4.41275 7Z" fill="#D3D3D5"/>
<path d="M11.8373 9H4.41204C4.33686 9.00023 4.26318 9.02037 4.19891 9.05826C4.13464 9.09614 4.08222 9.15033 4.0473 9.215C4.01238 9.27968 3.99628 9.35237 4.00072 9.42527C4.00517 9.49817 4.03 9.56851 4.07254 9.62872L7.78515 14.838C7.93902 15.054 8.30945 15.054 8.46373 14.838L12.1763 9.62872C12.2193 9.56864 12.2445 9.49826 12.2492 9.42524C12.2539 9.35222 12.2379 9.27935 12.2029 9.21454C12.168 9.14973 12.1154 9.09547 12.0509 9.05765C11.9865 9.01982 11.9126 8.99989 11.8373 9Z" fill="#121214"/>
</svg>
