<svg width="16" height="16" viewBox="0 0 16 16" fill="none" xmlns="http://www.w3.org/2000/svg">
<g clip-path="url(#clip0_1402_256)">
<path fill-rule="evenodd" clip-rule="evenodd" d="M7.3984 2.37412C7.84261 1.95073 7.87591 1.34839 7.67682 0.914799C7.4682 0.460458 6.92833 0.0580078 6.25266 0.226761C4.9714 0.546764 3.41236 1.18311 2.16277 2.41367C0.886836 3.67018 0 5.48307 0 7.99999C0 9.49189 0.623874 10.7086 1.35161 11.5964C1.50806 11.7873 1.67127 11.9655 1.83722 12.1307C1.76729 12.1459 1.69705 12.1609 1.62652 12.1758C1.00377 12.3075 0.470416 12.8101 0.446797 13.5132C0.421732 14.2594 0.979888 14.7967 1.64345 14.9105C3.57752 15.2423 6.30015 15.5 8 15.5C9.88777 15.5 12.188 14.7513 13.4012 14.307C14.4963 13.9059 14.9513 12.6782 14.5022 11.6678L14.2696 11.1444C14.7163 10.6925 16 9.30003 16 6.99999C16 6.4477 15.5523 5.99999 15 5.99999C14.4477 5.99999 14 6.4477 14 6.99999C14 7.97737 13.6509 8.70145 13.3149 9.18132C13.0086 8.81297 12.5947 8.58673 12.1803 8.48212C12.2163 8.2708 12.243 8.02839 12.2488 7.75983C12.27 6.78067 12.0121 5.49644 11.004 4.15727C10.4692 3.44683 9.50268 3.56251 9.03608 4.10911C8.78751 4.40029 8.39205 4.76939 7.98538 4.90256C7.80789 4.96068 7.65019 4.96683 7.49215 4.9182C7.33243 4.86905 7.08829 4.73777 6.78545 4.38031C6.53359 4.03468 6.52752 3.75836 6.61332 3.48458C6.72011 3.14379 6.99531 2.75833 7.3984 2.37412ZM9.99977 9.00225C9.99935 8.8612 10.0289 8.71791 10.0917 8.58164C10.0932 8.57818 10.0968 8.56939 10.1021 8.55555C10.1138 8.52486 10.1332 8.47007 10.1541 8.3941C10.196 8.2416 10.243 8.00851 10.2493 7.7165C10.2583 7.29883 10.1855 6.73703 9.86296 6.09154C9.5258 6.36791 9.10128 6.64165 8.60776 6.80325C8.10822 6.96683 7.52253 7.02008 6.90398 6.82976C6.29013 6.64088 5.73074 6.23893 5.23178 5.64017C5.22085 5.62705 5.21025 5.61365 5.2 5.59999C4.55838 4.74449 4.44271 3.83098 4.67299 2.99469C4.27901 3.22775 3.90334 3.50658 3.56609 3.83869C2.68324 4.7081 2 6.00267 2 7.99999C2 8.90808 2.37613 9.6914 2.89839 10.3286C3.35616 10.887 3.89378 11.2913 4.27911 11.5145C6.76599 10.7918 8.7264 9.90391 9.99977 9.00225ZM11.6697 10.4167C11.5531 10.3957 11.4381 10.4277 11.3743 10.4754C9.91899 11.5631 7.76632 12.5555 5.148 13.3432C6.20754 13.4409 7.2298 13.5 8 13.5C9.47665 13.5 11.4436 12.8908 12.6605 12.4483L11.778 10.4627L11.7775 10.4616L11.777 10.461C11.7767 10.4606 11.7742 10.4576 11.7676 10.4529C11.7535 10.4429 11.7218 10.4261 11.6697 10.4167Z" fill="#121214"/>
</g>
<defs>
<clipPath id="clip0_1402_256">
<rect width="16" height="16" fill="white"/>
</clipPath>
</defs>
</svg>
