<svg width="16" height="16" viewBox="0 0 16 16" fill="none" xmlns="http://www.w3.org/2000/svg">
<g clip-path="url(#clip0_1401_244)">
<path fill-rule="evenodd" clip-rule="evenodd" d="M14.25 8C14.25 11.4518 11.4518 14.25 8 14.25C4.54822 14.25 1.75 11.4518 1.75 8C1.75 4.54822 4.54822 1.75 8 1.75C11.4518 1.75 14.25 4.54822 14.25 8ZM16 8C16 12.4183 12.4183 16 8 16C3.58172 16 0 12.4183 0 8C0 3.58172 3.58172 0 8 0C12.4183 0 16 3.58172 16 8ZM7 5C5.89543 5 5 5.89543 5 7V9C5 10.1046 5.89543 11 7 11H9C10.1046 11 11 10.1046 11 9V7C11 5.89543 10.1046 5 9 5H7Z" fill="#121214"/>
</g>
<defs>
<clipPath id="clip0_1401_244">
<rect width="16" height="16" fill="white"/>
</clipPath>
</defs>
</svg>
