<svg width="16" height="16" viewBox="0 0 16 16" fill="none" xmlns="http://www.w3.org/2000/svg">
<g clip-path="url(#clip0_870_5506)">
<path d="M11.2587 7.51077C11.2587 7.27848 11.2587 7.16566 11.2919 7.0661C11.3914 6.76744 11.6569 6.65462 11.9224 6.53515C12.221 6.40241 12.367 6.32941 12.5197 6.32277C12.6856 6.3095 12.8582 6.34268 12.9975 6.42896C13.19 6.53515 13.3228 6.7409 13.4555 6.90018C14.0794 7.66342 14.3979 8.04173 14.5108 8.45985C14.6037 8.79833 14.6037 9.15009 14.5108 9.48857C14.3448 10.0992 13.8139 10.6102 13.4223 11.0881C13.2232 11.3336 13.1236 11.4531 12.9975 11.5261C12.8515 11.6057 12.6856 11.6456 12.5197 11.6323C12.3737 11.619 12.221 11.5526 11.9224 11.4199C11.6569 11.3004 11.3914 11.181 11.2919 10.889C11.2587 10.7894 11.2587 10.6699 11.2587 10.4443V7.53069V7.51077Z" stroke="#121214" stroke-width="1.5"/>
<path d="M4.62177 7.51078C4.62177 7.21876 4.61513 6.95992 4.38284 6.76082C4.29656 6.68781 4.18373 6.63472 3.95808 6.53516C3.65942 6.40242 3.51341 6.32942 3.36076 6.32278C2.91609 6.2896 2.67716 6.58826 2.42496 6.90019C1.80109 7.66343 1.48252 8.04174 1.36969 8.45986C1.27677 8.79834 1.27677 9.1501 1.36969 9.48858C1.53561 10.0992 2.06656 10.6102 2.45814 11.0881C2.70371 11.3867 2.94263 11.6588 3.36076 11.6257C3.50677 11.6124 3.65942 11.546 3.95808 11.4133C4.18373 11.3137 4.29656 11.2606 4.38284 11.1876C4.61513 10.9819 4.62177 10.723 4.62177 10.4377V7.52406V7.51078Z" stroke="#121214" stroke-width="1.5"/>
<path d="M13.2497 6.64136V5.64582C13.2497 3.07735 10.8737 1 7.9402 1C5.0067 1 2.63069 3.07735 2.63069 5.64582V6.64136" stroke="#121214" stroke-width="1.5" stroke-linecap="round" stroke-linejoin="round"/>
<path d="M13.2497 11.2872C12.9113 14.1676 12.0617 14.2804 9.83174 14.2738" stroke="#121214" stroke-width="1.5" stroke-linecap="round" stroke-linejoin="round"/>
<path d="M8.69271 13.3363H6.81782C6.35989 13.3363 5.98866 13.7075 5.98866 14.1655V14.3263C5.98866 14.7843 6.35989 15.1555 6.81782 15.1555H8.69271C9.15064 15.1555 9.52186 14.7843 9.52186 14.3263V14.1655C9.52186 13.7075 9.15064 13.3363 8.69271 13.3363Z" stroke="#121214" stroke-width="1.3" stroke-miterlimit="10"/>
</g>
<defs>
<clipPath id="clip0_870_5506">
<rect width="16" height="16" fill="white"/>
</clipPath>
</defs>
</svg>
