<svg width="16" height="16" viewBox="0 0 16 16" fill="none" xmlns="http://www.w3.org/2000/svg">
<path fill-rule="evenodd" clip-rule="evenodd" d="M10.5209 2.79693C10.5833 2.76023 10.6637 2.78403 10.6961 2.84877L12.0842 5.62497H5.71327L10.5209 2.79693ZM2.26173 5.62497L9.63365 1.28855C10.5695 0.738053 11.7758 1.09503 12.2614 2.06615L14.041 5.62541C15.0576 5.64722 15.875 6.47814 15.875 7.49997V7.88194C15.875 8.59432 15.4579 9.14898 15.2058 9.45402C15.0537 9.63803 14.875 9.96972 14.875 10.5C14.875 11.0804 15.0202 11.3971 15.1309 11.5431L15.1733 11.5987C15.2867 11.7472 15.4463 11.9562 15.5738 12.1788C15.7232 12.4399 15.875 12.7949 15.875 13.2207V13.5C15.875 14.5355 15.0355 15.375 14 15.375H2C0.964442 15.375 0.125 14.5355 0.125 13.5V13.4976V13.4953V13.4929V13.4906V13.4882V13.4859V13.4835V13.4812V13.4788V13.4765V13.4741V13.4718V13.4694V13.4671V13.4648V13.4624V13.4601V13.4577V13.4554V13.453V13.4507V13.4484V13.446V13.4437V13.4413V13.439V13.4367V13.4343V13.432V13.4296V13.4273V13.425V13.4226V13.4203V13.418V13.4156V13.4133V13.4109V13.4086V13.4063V13.4039V13.4016V13.3993V13.3969V13.3946V13.3923V13.39V13.3876V13.3853V13.383V13.3806V13.3783V13.376V13.3737V13.3713V13.369V13.3667V13.3644V13.362V13.3597V13.3574V13.3551V13.3527V13.3504V13.3481V13.3458V13.3435V13.3411V13.3388V13.3365V13.3342V13.3319V13.3296V13.3273V13.3249V13.3226V13.3203V13.318V13.3157V13.3134V13.3111V13.3088V13.3065V13.3042V13.3019V13.2996V13.2973V13.295V13.2927V13.2904V13.2881V13.2858V13.2835V13.2812V13.2789V13.2766V13.2743V13.272V13.2697V13.2674V13.2651V13.2628V13.2606V13.2583V13.256V13.2537V13.2514V13.2491V13.2469V13.2446V13.2423V13.24V13.2377V13.2355V13.2332V13.2309V13.2286V13.2264V13.2241V13.2218V13.2196V13.2173V13.215V13.2128V13.2105V13.2082V13.206V13.2037V13.2015V13.1992V13.1969V13.1947V13.1924V13.1902V13.1879V13.1857V13.1834V13.1812V13.1789V13.1767V13.1744V13.1722V13.17V13.1677V13.1655V13.1632V13.161V13.1588V13.1565V13.1543V13.1521V13.1499V13.1476V13.1454V13.1432V13.141V13.1387V13.1365V13.1343V13.1321V13.1299V13.1276V13.1254V13.1232V13.121V13.1188V13.1166V13.1144V13.1122V13.11V13.1078V13.1056V13.1034V13.1012V13.099V13.0968V13.0946V13.0924V13.0902V13.088V13.0859V13.0837V13.0815V13.0793V13.0771V13.0749V13.0728V13.0706V13.0684V13.0663V13.0641V13.0619V13.0598V13.0576V13.0554V13.0533V13.0511V13.049V13.0468V13.0446V13.0425V13.0403V13.0382V13.0361V13.0339V13.0318V13.0296V13.0275V13.0253V13.0232V13.0211V13.0189V13.0168V13.0147V13.0126V13.0104V13.0083V13.0062V13.0041V13.002V12.9999V12.9977V12.9956V12.9935V12.9914V12.9893V12.9872V12.9851V12.983V12.9809V12.9788V12.9767V12.9746V12.9725V12.9705V12.9684V12.9663V12.9642V12.9621V12.9601V12.958V12.9559V12.9538V12.9518V12.9497V12.9477V12.9456V12.9435V12.9415V12.9394V12.9374V12.9353V12.9333V12.9312V12.9292V12.9271V12.9251V12.9231V12.921V12.919V12.917V12.9149V12.9129V12.9109V12.9089V12.9068V12.9048V12.9028V12.9008V12.8988V12.8968V12.8948V12.8928V12.8908V12.8888V12.8868V12.8848V12.8828V12.8808V12.8788V12.8768V12.8749V12.8729V12.8709V12.8689V12.867V12.865V12.863V12.8611V12.8591V12.8571V12.8552V12.8532V12.8513V12.8493V12.8474V12.8454V12.8435V12.8416V12.8396V12.8377V12.8358V12.8338V12.8319V12.83V12.8281V12.8261V12.8242V12.8223V12.8204V12.8185V12.8166V12.8147V12.8128V12.8109V12.809V12.8071V12.8052V12.8033V12.8015V12.7996V12.7977V12.7958V12.794V12.7921V12.7902V12.7884V12.7865V12.7846V12.7828V12.7809V12.7791V12.7772V12.7754V12.7735V12.7717V12.7699V12.768V12.7662V12.7644V12.7626V12.7607V12.7589V12.7571V12.7553V12.7535V12.7517V12.7499V12.7481V12.7463V12.7445V12.7427V12.7409V12.7391V12.7373V12.7355V12.7338V12.732V12.7302V12.7285V12.7267V12.7249V12.7232V12.7214V12.7197V12.7179V12.7162V12.7144V12.7127V12.711V12.7092V12.7075V12.7058V12.704V12.7023V12.7006V12.6989V12.6972V12.6955V12.6938V12.6921V12.6904V12.6887V12.687V12.6853V12.6836V12.6819V12.6802V12.6786V12.6769V12.6752V12.6736V12.6719V12.6702V12.6686V12.6669V12.6653V12.6636V12.662V12.6603V12.6587V12.6571V12.6554V12.6538V12.6522V12.6506V12.649V12.6474V12.6457V12.6441V12.6425V12.6409V12.6393V12.6378V12.6362V12.6346V12.633V12.6314V12.6299V12.6283V12.6267V12.6252V12.6236V12.622V12.6205V12.6189V12.6174V12.6158V12.6143V12.6128V12.6112V12.6097V12.6082V12.6067V12.6052V12.6036V12.6021V12.6006V12.5991V12.5976V12.5961V12.5946V12.5932V12.5917V12.5902V12.5887V12.5872V12.5858V12.5843V12.5829V12.5814V12.5799V12.5785V12.577V12.5756V12.5742V12.5727V12.5713V12.5699V12.5685V12.567V12.5656V12.5642V12.5628V12.5614V12.56V12.5586V12.5572V12.5558V12.5544V12.5531V12.5517V12.5503V12.5489V12.5476V12.5462V12.5449V12.5435V12.5422V12.5408V12.5395V12.5381V12.5368V12.5355V12.5342V12.5328V12.5315V12.5302V12.5289V12.5276V12.5263V12.525V12.5237V12.5224V12.5211V12.5199V12.5186V12.5173V12.5161V12.5148V12.5135V12.5123V12.511V12.5098V12.5085V12.5073V12.5061V12.5048V12.5036V12.5024V12.5012V12.5C0.125 12.0309 0.380974 11.7253 0.537532 11.5688C0.604745 11.5015 0.679017 11.4373 0.728784 11.3943L0.728798 11.3943L0.743342 11.3817C0.801367 11.3314 0.84293 11.2946 0.881282 11.2563C0.978234 11.1593 1.125 11.0027 1.125 10.5C1.125 9.94782 1.03161 9.63914 0.95554 9.48422C0.915608 9.40289 0.859263 9.30762 0.779604 9.17962L0.73135 9.10247L0.731336 9.10244C0.666602 8.99918 0.590153 8.87723 0.521076 8.75736C0.354112 8.46763 0.125 8.02083 0.125 7.49997C0.125 6.46444 0.964467 5.62497 2 5.62497H2.26173ZM2 7.37497C1.93096 7.37497 1.875 7.43094 1.875 7.49997C1.875 7.5314 1.89466 7.63602 2.03732 7.88358C2.08859 7.97254 2.14184 8.05755 2.20361 8.15615L2.20364 8.15619L2.20365 8.1562L2.26539 8.25498C2.34748 8.3869 2.44461 8.54635 2.52639 8.7129C2.75216 9.1727 2.875 9.76347 2.875 10.5C2.875 11.4972 2.52177 12.0906 2.11872 12.4937C2.03207 12.5803 1.94863 12.6529 1.88947 12.7042L1.875 12.7167V12.7179V12.7197V12.7214V12.7232V12.7249V12.7267V12.7285V12.7302V12.732V12.7338V12.7355V12.7373V12.7391V12.7409V12.7427V12.7445V12.7463V12.7481V12.7499V12.7517V12.7535V12.7553V12.7571V12.7589V12.7607V12.7626V12.7644V12.7662V12.768V12.7699V12.7717V12.7735V12.7754V12.7772V12.7791V12.7809V12.7828V12.7846V12.7865V12.7884V12.7902V12.7921V12.794V12.7958V12.7977V12.7996V12.8015V12.8033V12.8052V12.8071V12.809V12.8109V12.8128V12.8147V12.8166V12.8185V12.8204V12.8223V12.8242V12.8261V12.8281V12.83V12.8319V12.8338V12.8358V12.8377V12.8396V12.8416V12.8435V12.8454V12.8474V12.8493V12.8513V12.8532V12.8552V12.8571V12.8591V12.8611V12.863V12.865V12.867V12.8689V12.8709V12.8729V12.8749V12.8768V12.8788V12.8808V12.8828V12.8848V12.8868V12.8888V12.8908V12.8928V12.8948V12.8968V12.8988V12.9008V12.9028V12.9048V12.9068V12.9089V12.9109V12.9129V12.9149V12.917V12.919V12.921V12.9231V12.9251V12.9271V12.9292V12.9312V12.9333V12.9353V12.9374V12.9394V12.9415V12.9435V12.9456V12.9477V12.9497V12.9518V12.9538V12.9559V12.958V12.9601V12.9621V12.9642V12.9663V12.9684V12.9705V12.9725V12.9746V12.9767V12.9788V12.9809V12.983V12.9851V12.9872V12.9893V12.9914V12.9935V12.9956V12.9977V12.9999V13.002V13.0041V13.0062V13.0083V13.0104V13.0126V13.0147V13.0168V13.0189V13.0211V13.0232V13.0253V13.0275V13.0296V13.0318V13.0339V13.0361V13.0382V13.0403V13.0425V13.0446V13.0468V13.049V13.0511V13.0533V13.0554V13.0576V13.0598V13.0619V13.0641V13.0663V13.0684V13.0706V13.0728V13.0749V13.0771V13.0793V13.0815V13.0837V13.0859V13.088V13.0902V13.0924V13.0946V13.0968V13.099V13.1012V13.1034V13.1056V13.1078V13.11V13.1122V13.1144V13.1166V13.1188V13.121V13.1232V13.1254V13.1276V13.1299V13.1321V13.1343V13.1365V13.1387V13.141V13.1432V13.1454V13.1476V13.1499V13.1521V13.1543V13.1565V13.1588V13.161V13.1632V13.1655V13.1677V13.17V13.1722V13.1744V13.1767V13.1789V13.1812V13.1834V13.1857V13.1879V13.1902V13.1924V13.1947V13.1969V13.1992V13.2015V13.2037V13.206V13.2082V13.2105V13.2128V13.215V13.2173V13.2196V13.2218V13.2241V13.2264V13.2286V13.2309V13.2332V13.2355V13.2377V13.24V13.2423V13.2446V13.2469V13.2491V13.2514V13.2537V13.256V13.2583V13.2606V13.2628V13.2651V13.2674V13.2697V13.272V13.2743V13.2766V13.2789V13.2812V13.2835V13.2858V13.2881V13.2904V13.2927V13.295V13.2973V13.2996V13.3019V13.3042V13.3065V13.3088V13.3111V13.3134V13.3157V13.318V13.3203V13.3226V13.3249V13.3273V13.3296V13.3319V13.3342V13.3365V13.3388V13.3411V13.3435V13.3458V13.3481V13.3504V13.3527V13.3551V13.3574V13.3597V13.362V13.3644V13.3667V13.369V13.3713V13.3737V13.376V13.3783V13.3806V13.383V13.3853V13.3876V13.39V13.3923V13.3946V13.3969V13.3993V13.4016V13.4039V13.4063V13.4086V13.4109V13.4133V13.4156V13.418V13.4203V13.4226V13.425V13.4273V13.4296V13.432V13.4343V13.4367V13.439V13.4413V13.4437V13.446V13.4484V13.4507V13.453V13.4554V13.4577V13.4601V13.4624V13.4648V13.4671V13.4694V13.4718V13.4741V13.4765V13.4788V13.4812V13.4835V13.4859V13.4882V13.4906V13.4929V13.4953V13.4976V13.5C1.875 13.569 1.93099 13.625 2 13.625H9.625V7.37497H2ZM14 13.625H11.375V7.37497H14C14.069 7.37497 14.125 7.43094 14.125 7.49997V7.88194C14.125 7.89378 14.1216 7.93659 14.0774 8.02285C14.032 8.11153 13.9598 8.21462 13.857 8.33902C13.46 8.81924 13.125 9.54057 13.125 10.5C13.125 11.3628 13.3414 12.0795 13.7365 12.6005L13.7813 12.6595L13.7813 12.6595C13.9038 12.8207 13.9889 12.9327 14.055 13.0481C14.1236 13.1681 14.125 13.2161 14.125 13.2207V13.5C14.125 13.569 14.069 13.625 14 13.625Z" fill="#121214"/>
</svg>
