<svg width="16" height="16" viewBox="0 0 16 16" fill="none" xmlns="http://www.w3.org/2000/svg">
<g clip-path="url(#clip0_742_2141)">
<path fill-rule="evenodd" clip-rule="evenodd" d="M14 8C14 11.3137 11.3137 14 8 14C4.68629 14 2 11.3137 2 8C2 4.68629 4.68629 2 8 2C11.3137 2 14 4.68629 14 8ZM16 8C16 12.4183 12.4183 16 8 16C3.58172 16 0 12.4183 0 8C0 3.58172 3.58172 0 8 0C12.4183 0 16 3.58172 16 8ZM11.7071 6.66545C12.0976 6.27493 12.0976 5.64176 11.7071 5.25124C11.3166 4.86071 10.6834 4.86071 10.2929 5.25124L6.91667 8.62746L5.76771 7.47851C5.37719 7.08799 4.74403 7.08799 4.3535 7.47851C3.96298 7.86903 3.96298 8.5022 4.3535 8.89272L6.20956 10.7488C6.60009 11.1393 7.23325 11.1393 7.62378 10.7488L11.7071 6.66545Z" fill="#121214"/>
</g>
<defs>
<clipPath id="clip0_742_2141">
<rect width="16" height="16" fill="white"/>
</clipPath>
</defs>
</svg>
