<svg width="18" height="16" viewBox="0 0 18 16" fill="none" xmlns="http://www.w3.org/2000/svg">
<path fill-rule="evenodd" clip-rule="evenodd" d="M1.1813 3.38128C1.52301 3.03957 2.07703 3.03957 2.41874 3.38128L6.60001 7.56256L9.18129 4.98128C9.34539 4.81719 9.56795 4.725 9.80001 4.725C10.0321 4.725 10.2546 4.81719 10.4187 4.98128L15.325 9.88755L15.325 8.79999C15.325 8.31674 15.7167 7.92499 16.2 7.92499C16.6832 7.92499 17.075 8.31674 17.075 8.79999L17.075 12C17.075 12.2321 16.9828 12.4546 16.8187 12.6187C16.6546 12.7828 16.4321 12.875 16.2 12.875L13 12.875C12.5167 12.875 12.125 12.4832 12.125 12C12.125 11.5167 12.5168 11.125 13 11.125L14.0876 11.125L9.80001 6.83744L7.21873 9.41871C7.05464 9.58281 6.83208 9.675 6.60001 9.675C6.36795 9.675 6.14539 9.58281 5.9813 9.41872L1.1813 4.61872C0.839591 4.27701 0.839591 3.72299 1.1813 3.38128Z" fill="black"/>
</svg>
