<svg width="16" height="16" viewBox="0 0 16 16" fill="none" xmlns="http://www.w3.org/2000/svg">
<path fill-rule="evenodd" clip-rule="evenodd" d="M11.0139 4.11108C11.0139 3.62783 11.4056 3.23608 11.8889 3.23608H15C15.4832 3.23608 15.875 3.62783 15.875 4.11108V7.2222C15.875 7.70544 15.4832 8.0972 15 8.0972C14.5168 8.0972 14.125 7.70544 14.125 7.2222V6.22352L9.3965 10.952C9.2324 11.1161 9.00984 11.2083 8.77778 11.2083C8.54571 11.2083 8.32315 11.1161 8.15906 10.952L5.66667 8.45963L1.61872 12.5076C1.27701 12.8493 0.72299 12.8493 0.381282 12.5076C0.0395728 12.1659 0.0395728 11.6119 0.381282 11.2701L5.04795 6.60348C5.21204 6.43938 5.4346 6.3472 5.66667 6.3472C5.89873 6.3472 6.12129 6.43938 6.28539 6.60348L8.77778 9.09587L12.8876 4.98608H11.8889C11.4056 4.98608 11.0139 4.59433 11.0139 4.11108Z" fill="black"/>
</svg>
