<svg width="16" height="16" viewBox="0 0 16 16" fill="none" xmlns="http://www.w3.org/2000/svg">
<path d="M15.9764 8.77442C15.7022 12.3385 12.804 15.178 9.2203 15.3934C9.06364 15.3934 8.90697 15.413 8.75031 15.413C5.38205 15.3739 2.42503 12.9847 1.75921 9.65565L0.564651 9.63606C0.349239 9.63606 0.15341 9.51857 0.0554952 9.32274C-0.0424194 9.12691 -0.00325351 8.89191 0.114244 8.73525L2.32711 5.95448C2.44461 5.8174 2.60127 5.73906 2.77752 5.73906C2.95377 5.73906 3.11043 5.8174 3.22793 5.95448L5.38205 8.794C5.51913 8.97024 5.53871 9.18566 5.4408 9.38149C5.34288 9.57732 5.14705 9.69481 4.93164 9.69481H3.93291C4.6379 12.0448 6.87035 13.5526 9.35738 13.2981C11.7661 13.0043 13.7048 11.0069 13.881 8.57859C13.9789 7.20778 13.5285 5.87614 12.6277 4.83825C11.7269 3.80036 10.4736 3.19329 9.1028 3.11495C8.78947 3.09537 8.55448 2.84079 8.55448 2.54705V1.5679C8.55448 1.41124 8.61323 1.27416 8.73073 1.15666C8.84822 1.05875 8.9853 1 9.14197 1C11.1003 1.09791 12.9019 1.95956 14.1944 3.42828C15.5064 4.91658 16.1331 6.81612 15.9764 8.77442Z" fill="#1A1A1A"/>
</svg>
