<svg width="16" height="16" viewBox="0 0 16 16" fill="none" xmlns="http://www.w3.org/2000/svg">
<g clip-path="url(#clip0_308_159)">
<path d="M1 8.05668H1.78814e-07H1ZM1 12.7895H2H1ZM12.7895 15V16V15ZM3.21053 15V16V15ZM15 8.0567H14H15ZM15 12.7895H16H15ZM12.7895 5.84617L12.7895 6.84617L12.7895 5.84617ZM3.21053 5.84616L3.21053 6.84616H3.21053L3.21053 5.84616ZM2.69231 5.30769C2.69231 5.85998 3.14002 6.30769 3.69231 6.30769C4.24459 6.30769 4.69231 5.85998 4.69231 5.30769H2.69231ZM10.0668 2.72505C10.4978 3.07049 11.1271 3.00119 11.4726 2.57027C11.818 2.13935 11.7487 1.50999 11.3178 1.16455L10.0668 2.72505ZM7 11.2308C7 11.7831 7.44772 12.2308 8 12.2308C8.55229 12.2308 9 11.7831 9 11.2308L7 11.2308ZM9 9.07692C9 8.52464 8.55229 8.07692 8 8.07692C7.44772 8.07692 7 8.52464 7 9.07692L9 9.07692ZM1.78814e-07 8.05668L0 12.7895H2L2 8.05668H1.78814e-07ZM12.7895 14L3.21053 14L3.21053 16L12.7895 16L12.7895 14ZM14 8.0567V12.7895H16V8.0567H14ZM12.7895 4.84617L3.21053 4.84616L3.21053 6.84616L12.7895 6.84617L12.7895 4.84617ZM16 8.0567C16 6.28357 14.5626 4.84617 12.7895 4.84617L12.7895 6.84617C13.458 6.84617 14 7.38814 14 8.0567H16ZM2 8.05668C2 7.38813 2.54197 6.84616 3.21053 6.84616L3.21053 4.84616C1.4374 4.84615 2.98023e-07 6.28356 1.78814e-07 8.05668H2ZM0 12.7895C-1.19209e-07 14.5626 1.4374 16 3.21053 16V14C2.54197 14 2 13.458 2 12.7895H0ZM12.7895 16C14.5626 16 16 14.5626 16 12.7895H14C14 13.458 13.458 14 12.7895 14L12.7895 16ZM4.69231 5.30769C4.69231 3.4809 6.17321 2 8 2V0C5.06864 0 2.69231 2.37634 2.69231 5.30769H4.69231ZM8 2C8.7832 2 9.50037 2.27095 10.0668 2.72505L11.3178 1.16455C10.4093 0.436281 9.25423 0 8 0V2ZM9 11.2308L9 9.07692L7 9.07692L7 11.2308L9 11.2308Z" fill="#121214"/>
</g>
<defs>
<clipPath id="clip0_308_159">
<rect width="16" height="16" fill="white"/>
</clipPath>
</defs>
</svg>
