<svg width="24" height="24" viewBox="0 0 24 24" fill="none" xmlns="http://www.w3.org/2000/svg">
<path d="M2.10066 20H21.9012C22.1017 19.9994 22.2982 19.9457 22.4696 19.8447C22.641 19.7436 22.7807 19.5991 22.8739 19.4267C22.967 19.2542 23.0099 19.0603 22.9981 18.8659C22.9862 18.6715 22.92 18.484 22.8066 18.3234L12.9063 4.43197C12.496 3.85601 11.5081 3.85601 11.0967 4.43197L1.19644 18.3234C1.08184 18.4836 1.01464 18.6713 1.00213 18.866C0.989627 19.0607 1.03229 19.2551 1.1255 19.4279C1.21871 19.6007 1.35888 19.7454 1.53081 19.8463C1.70273 19.9471 1.89982 20.0003 2.10066 20Z" fill="black"/>
</svg>
