<svg width="24" height="24" viewBox="0 0 24 24" fill="none" xmlns="http://www.w3.org/2000/svg">
<path d="M21.8993 4H2.09877C1.8983 4.00061 1.7018 4.05432 1.53041 4.15535C1.35903 4.25638 1.21925 4.40089 1.12613 4.57335C1.03301 4.7458 0.990068 4.93966 1.00193 5.13406C1.01379 5.32846 1.08001 5.51603 1.19345 5.67659L11.0937 19.568C11.504 20.144 12.4919 20.144 12.9033 19.568L22.8036 5.67659C22.9182 5.51637 22.9854 5.3287 22.9979 5.13398C23.0104 4.93925 22.9677 4.74493 22.8745 4.57211C22.7813 4.39929 22.6411 4.25459 22.4692 4.15372C22.2973 4.05286 22.1002 3.99969 21.8993 4Z" fill="black"/>
</svg>
