<svg width="16" height="16" viewBox="0 0 16 16" fill="none" xmlns="http://www.w3.org/2000/svg">
<path fill-rule="evenodd" clip-rule="evenodd" d="M8.70711 1.29289C8.31658 0.902369 7.68342 0.902369 7.29289 1.29289L4.29289 4.29289C3.90237 4.68342 3.90237 5.31658 4.29289 5.70711C4.68342 6.09763 5.31658 6.09763 5.70711 5.70711L8 3.41421L10.2929 5.70711C10.6834 6.09763 11.3166 6.09763 11.7071 5.70711C12.0976 5.31658 12.0976 4.68342 11.7071 4.29289L8.70711 1.29289ZM4.29289 11.7071L7.29289 14.7071C7.68342 15.0976 8.31658 15.0976 8.70711 14.7071L11.7071 11.7071C12.0976 11.3166 12.0976 10.6834 11.7071 10.2929C11.3166 9.90237 10.6834 9.90237 10.2929 10.2929L8 12.5858L5.70711 10.2929C5.31658 9.90237 4.68342 9.90237 4.29289 10.2929C3.90237 10.6834 3.90237 11.3166 4.29289 11.7071Z" fill="#121214"/>
</svg>
