<svg width="16" height="16" viewBox="0 0 16 16" fill="none" xmlns="http://www.w3.org/2000/svg">
<g clip-path="url(#clip0_526_264)">
<path fill-rule="evenodd" clip-rule="evenodd" d="M8.70711 0.292893C8.31658 -0.0976311 7.68342 -0.0976311 7.29289 0.292893L4.29289 3.29289C3.90237 3.68342 3.90237 4.31658 4.29289 4.70711C4.68342 5.09763 5.31658 5.09763 5.70711 4.70711L7 3.41421V10.5C7 11.0523 7.44772 11.5 8 11.5C8.55228 11.5 9 11.0523 9 10.5V3.41421L10.2929 4.70711C10.6834 5.09763 11.3166 5.09763 11.7071 4.70711C12.0976 4.31658 12.0976 3.68342 11.7071 3.29289L8.70711 0.292893ZM2 10C2 9.44771 1.55228 9 1 9C0.447715 9 0 9.44771 0 10V13C0 14.6569 1.34315 16 3 16H13C14.6569 16 16 14.6569 16 13V10C16 9.44771 15.5523 9 15 9C14.4477 9 14 9.44771 14 10V13C14 13.5523 13.5523 14 13 14H3C2.44772 14 2 13.5523 2 13V10Z" fill="#121214"/>
</g>
<defs>
<clipPath id="clip0_526_264">
<rect width="16" height="16" fill="white"/>
</clipPath>
</defs>
</svg>
