<svg width="16" height="16" viewBox="0 0 16 16" fill="none" xmlns="http://www.w3.org/2000/svg">
<g clip-path="url(#clip0_775_2769)">
<path fill-rule="evenodd" clip-rule="evenodd" d="M8.64018 0.231779C8.26934 -0.0772595 7.73066 -0.0772595 7.35982 0.231779L4.35982 2.73178C3.93554 3.08534 3.87821 3.71591 4.23178 4.14018C4.58534 4.56446 5.21591 4.62179 5.64018 4.26822L7 3.13504V11C7 11.5523 7.44772 12 8 12C8.55228 12 9 11.5523 9 11V3.13504L10.3598 4.26822C10.7841 4.62179 11.4147 4.56446 11.7682 4.14018C12.1218 3.71591 12.0645 3.08534 11.6402 2.73178L8.64018 0.231779ZM3.5 5.5C1.84315 5.5 0.5 6.84315 0.5 8.5V13C0.5 14.6569 1.84315 16 3.5 16H12.5C14.1569 16 15.5 14.6569 15.5 13V8.5C15.5 6.84315 14.1569 5.5 12.5 5.5C11.9477 5.5 11.5 5.94772 11.5 6.5C11.5 7.05228 11.9477 7.5 12.5 7.5C13.0523 7.5 13.5 7.94772 13.5 8.5V13C13.5 13.5523 13.0523 14 12.5 14H3.5C2.94772 14 2.5 13.5523 2.5 13V8.5C2.5 7.94772 2.94772 7.5 3.5 7.5C4.05228 7.5 4.5 7.05228 4.5 6.5C4.5 5.94772 4.05228 5.5 3.5 5.5Z" fill="#121214"/>
</g>
<defs>
<clipPath id="clip0_775_2769">
<rect width="16" height="16" fill="white"/>
</clipPath>
</defs>
</svg>
