<svg width="16" height="16" viewBox="0 0 16 16" fill="none" xmlns="http://www.w3.org/2000/svg">
<path fill-rule="evenodd" clip-rule="evenodd" d="M0 8.09091C1.67855 5.224 4.41018 3 8 3C11.5891 3 14.3222 5.224 16 8.09091C14.3222 10.9578 11.5898 13.1818 8 13.1818C4.41018 13.1818 1.67855 10.9578 0 8.09091ZM1.728 8.09091C2.90255 9.75418 4.86545 11.7273 8 11.7273C11.1353 11.7273 13.0982 9.75418 14.272 8.09091C13.0982 6.42764 11.1353 4.45455 8 4.45455C4.86545 4.45455 2.90255 6.42764 1.728 8.09091ZM10.1818 8.09091C10.1818 9.29589 9.20498 10.2727 7.99999 10.2727C6.79501 10.2727 5.81818 9.29589 5.81818 8.09091C5.81818 6.88592 6.79501 5.90909 7.99999 5.90909C9.20498 5.90909 10.1818 6.88592 10.1818 8.09091Z" fill="#121214"/>
</svg>
