<svg width="16" height="16" viewBox="0 0 16 16" fill="none" xmlns="http://www.w3.org/2000/svg">
<g clip-path="url(#clip0_742_2115)">
<path fill-rule="evenodd" clip-rule="evenodd" d="M7.28147 3.04546C7.49444 2.64791 8.0617 2.64016 8.28546 3.03174L13.7307 12.5608C13.9493 12.9434 13.673 13.4193 13.2325 13.4193H2.68238C2.24874 13.4193 1.97181 12.9568 2.17659 12.5746L7.28147 3.04546ZM10.078 2.00745C9.04912 0.206979 6.44089 0.242627 5.46164 2.07055L0.356759 11.5997C-0.584788 13.3572 0.68851 15.4838 2.68238 15.4838H13.2325C15.2582 15.4838 16.5282 13.2954 15.5232 11.5366L10.078 2.00745ZM7.74999 5.49998C8.30228 5.49998 8.74999 5.94769 8.74999 6.49998V8.99998C8.74999 9.55226 8.30228 9.99998 7.74999 9.99998C7.19771 9.99998 6.74999 9.55226 6.74999 8.99998V6.49998C6.74999 5.94769 7.19771 5.49998 7.74999 5.49998ZM8.74999 11.5C8.74999 12.0523 8.30228 12.5 7.74999 12.5C7.19771 12.5 6.74999 12.0523 6.74999 11.5C6.74999 10.9477 7.19771 10.5 7.74999 10.5C8.30228 10.5 8.74999 10.9477 8.74999 11.5Z" fill="#121214"/>
</g>
<defs>
<clipPath id="clip0_742_2115">
<rect width="16" height="16" fill="white"/>
</clipPath>
</defs>
</svg>
