<svg width="16" height="16" viewBox="0 0 16 16" fill="none" xmlns="http://www.w3.org/2000/svg">
<g clip-path="url(#clip0_1728_1211)">
<path fill-rule="evenodd" clip-rule="evenodd" d="M6.71529 3.29999C6.81149 2.67697 7.35005 2.19999 8 2.19999H8.5C9.14996 2.19999 9.68851 2.67697 9.78471 3.29999H6.71529ZM5.3073 3.29999C5.40964 1.90221 6.5761 0.799988 8 0.799988H8.5C9.9239 0.799988 11.0904 1.90221 11.1927 3.29999H13C14.4912 3.29999 15.7 4.50882 15.7 5.99999V13C15.7 14.4912 14.4912 15.7 13 15.7H3C1.50883 15.7 0.300003 14.4912 0.300003 13V5.99999C0.300003 4.50882 1.50883 3.29999 3 3.29999H5.3073ZM1.7 5.99999C1.7 5.28202 2.28203 4.69999 3 4.69999H13C13.718 4.69999 14.3 5.28202 14.3 5.99999V8.56405C12.8697 9.25393 10.3868 10.3 8 10.3C5.61581 10.3 2.99853 9.25399 1.7 8.58321V5.99999ZM8.7 11.6751C10.8321 11.5265 12.9056 10.7408 14.3 10.1099V13C14.3 13.718 13.718 14.3 13 14.3H3C2.28203 14.3 1.7 13.718 1.7 13V10.1393C3.08027 10.7738 5.19451 11.5305 7.3 11.6754V12.5C7.3 12.8866 7.6134 13.2 8 13.2C8.3866 13.2 8.7 12.8866 8.7 12.5V11.6751Z" fill="#121214"/>
</g>
<defs>
<clipPath id="clip0_1728_1211">
<rect width="16" height="16" fill="white"/>
</clipPath>
</defs>
</svg>
