<svg width="24" height="24" viewBox="0 0 24 24" fill="none" xmlns="http://www.w3.org/2000/svg">
<g clip-path="url(#clip0_1672_225)">
<path fill-rule="evenodd" clip-rule="evenodd" d="M6.48311 21.0522V1.72806H21.9406V21.0522C21.9406 21.859 21.2778 22.5219 20.4709 22.5219H6.08854C6.33935 22.0886 6.48311 21.5864 6.48311 21.0522ZM20.4709 24H3.53902L3.53662 24C1.91345 24 0.588806 22.6754 0.588806 21.0522V16.2746C0.588806 15.8665 0.919682 15.5356 1.32784 15.5356H5.00504V1.48172C5.00504 0.801457 5.5565 0.25 6.23676 0.25H22.187C22.8673 0.25 23.4187 0.801462 23.4187 1.48172V21.0522C23.4187 22.6754 22.0941 24 20.4709 24ZM5.00504 17.0137H2.06687V21.0522C2.06687 21.8583 2.72846 22.5206 3.53424 22.5219L3.53663 22.5219C4.34162 22.5219 5.00504 21.8583 5.00504 21.0522V17.0137ZM15.0016 3.47232C14.8611 3.30363 14.653 3.20609 14.4335 3.20613C14.214 3.20616 14.0059 3.30376 13.8655 3.4725L11.9412 5.78546H10.9353C10.7069 5.78546 10.4913 5.89107 10.3513 6.07154C10.2113 6.25201 10.1626 6.48707 10.2194 6.7083L11.1006 10.1399C11.1845 10.4667 11.4791 10.6951 11.8164 10.6951H17.0522C17.3896 10.6951 17.6841 10.4667 17.768 10.1399L18.6492 6.7083C18.706 6.48707 18.6573 6.25201 18.5173 6.07154C18.3773 5.89107 18.1618 5.78546 17.9334 5.78546H16.9272L15.0016 3.47232ZM15.004 5.78546L14.4338 5.10047L13.8639 5.78546H15.004ZM12.3897 9.21706L11.888 7.26352H16.9806L16.479 9.21706H12.3897ZM11.7972 14.0274C12.0595 13.7146 12.0185 13.2485 11.7057 12.9863C11.3929 12.724 10.9268 12.765 10.6646 13.0778L9.66134 14.2744L9.44259 14.0888C9.13134 13.8248 8.66498 13.8631 8.40095 14.1743C8.13691 14.4856 8.17519 14.9519 8.48644 15.216L9.27203 15.8824C9.42206 16.0097 9.61665 16.0719 9.81269 16.0552C10.0087 16.0385 10.19 15.9444 10.3164 15.7936L11.7972 14.0274ZM12.5972 14.9051C12.5972 14.4969 12.9281 14.166 13.3362 14.166H19.6613C20.0694 14.166 20.4003 14.4969 20.4003 14.9051C20.4003 15.3132 20.0694 15.6441 19.6613 15.6441H13.3362C12.9281 15.6441 12.5972 15.3132 12.5972 14.9051ZM12.5972 18.7976C12.5972 18.3894 12.9281 18.0585 13.3362 18.0585H19.6613C20.0694 18.0585 20.4003 18.3894 20.4003 18.7976C20.4003 19.2057 20.0694 19.5366 19.6613 19.5366H13.3362C12.9281 19.5366 12.5972 19.2057 12.5972 18.7976ZM11.7057 16.8788C12.0185 17.141 12.0594 17.6071 11.7972 17.9199L10.3164 19.6861C10.19 19.8368 10.0087 19.931 9.81269 19.9476C9.61665 19.9643 9.42206 19.9021 9.27203 19.7748L8.48644 19.1084C8.17519 18.8444 8.13691 18.378 8.40095 18.0668C8.66498 17.7555 9.13134 17.7172 9.44259 17.9813L9.66135 18.1668L10.6646 16.9703C10.9268 16.6575 11.3929 16.6165 11.7057 16.8788Z" fill="#121214"/>
</g>
<defs>
<clipPath id="clip0_1672_225">
<rect width="24" height="24" fill="white"/>
</clipPath>
</defs>
</svg>
