<svg width="16" height="16" viewBox="0 0 16 16" fill="none" xmlns="http://www.w3.org/2000/svg">
<g clip-path="url(#clip0_508_1489)">
<path fill-rule="evenodd" clip-rule="evenodd" d="M7.25 12.5C10.1495 12.5 12.5 10.1495 12.5 7.25C12.5 4.3505 10.1495 2 7.25 2C4.3505 2 2 4.3505 2 7.25C2 10.1495 4.3505 12.5 7.25 12.5ZM7.25 14.5C8.89144 14.5 10.4055 13.9545 11.6207 13.0349L14.2929 15.7071C14.6834 16.0976 15.3166 16.0976 15.7071 15.7071C16.0976 15.3166 16.0976 14.6834 15.7071 14.2929L13.0349 11.6207C13.9545 10.4055 14.5 8.89144 14.5 7.25C14.5 3.24594 11.2541 0 7.25 0C3.24594 0 0 3.24594 0 7.25C0 11.2541 3.24594 14.5 7.25 14.5ZM8.25 4.75C8.25 4.19772 7.80228 3.75 7.25 3.75C6.69772 3.75 6.25 4.19772 6.25 4.75V6.25H4.75C4.19772 6.25 3.75 6.69772 3.75 7.25C3.75 7.80228 4.19772 8.25 4.75 8.25H6.25V9.75C6.25 10.3023 6.69772 10.75 7.25 10.75C7.80228 10.75 8.25 10.3023 8.25 9.75V8.25H9.75C10.3023 8.25 10.75 7.80228 10.75 7.25C10.75 6.69772 10.3023 6.25 9.75 6.25H8.25V4.75Z" fill="#121214"/>
</g>
<defs>
<clipPath id="clip0_508_1489">
<rect width="16" height="16" fill="white"/>
</clipPath>
</defs>
</svg>
