<svg width="24" height="24" viewBox="0 0 24 24" fill="none" xmlns="http://www.w3.org/2000/svg">
<path fill-rule="evenodd" clip-rule="evenodd" d="M12 19.5C16.4183 19.5 20 15.9183 20 11.5C20 7.08172 16.4183 3.5 12 3.5C7.58172 3.5 4 7.08172 4 11.5C4 15.9183 7.58172 19.5 12 19.5ZM12 21.5C14.1321 21.5 16.1084 20.8327 17.7314 19.6956L20.5627 22.527C20.9533 22.9175 21.5864 22.9175 21.977 22.527C22.3675 22.1364 22.3675 21.5033 21.977 21.1127L19.2508 18.3866C20.9545 16.5934 22 14.1688 22 11.5C22 5.97715 17.5228 1.5 12 1.5C6.47715 1.5 2 5.97715 2 11.5C2 17.0228 6.47715 21.5 12 21.5ZM16.2 12.5C16.7523 12.5 17.2 12.0523 17.2 11.5C17.2 10.9477 16.7523 10.5 16.2 10.5L7.8 10.5C7.24772 10.5 6.8 10.9477 6.8 11.5C6.8 12.0523 7.24772 12.5 7.8 12.5L16.2 12.5Z" fill="#121214"/>
</svg>
