<svg width="22" height="22" viewBox="0 0 22 22" fill="none" xmlns="http://www.w3.org/2000/svg">
<path d="M20.8993 3H1.09877C0.898304 3.00061 0.701799 3.05432 0.530415 3.15535C0.35903 3.25638 0.219254 3.40089 0.126133 3.57335C0.0330105 3.7458 -0.00993156 3.93966 0.00193024 4.13406C0.013792 4.32846 0.0800076 4.51603 0.193449 4.67659L10.0937 18.568C10.504 19.144 11.4919 19.144 11.9033 18.568L21.8036 4.67659C21.9182 4.51637 21.9854 4.3287 21.9979 4.13398C22.0104 3.93925 21.9677 3.74493 21.8745 3.57211C21.7813 3.39929 21.6411 3.25459 21.4692 3.15372C21.2973 3.05286 21.1002 2.99969 20.8993 3Z" fill="black"/>
</svg>
