<svg width="24" height="24" viewBox="0 0 24 24" fill="none" xmlns="http://www.w3.org/2000/svg">
<g clip-path="url(#clip0_1400_229)">
<path d="M19.7966 8.78206C19.7795 8.73983 19.7501 8.70368 19.7122 8.67824C19.6744 8.65279 19.6299 8.6392 19.5843 8.6392C19.5387 8.6392 19.4941 8.65279 19.4563 8.67824C19.4185 8.70368 19.3891 8.73983 19.3719 8.78206C19.0787 9.49624 18.4059 10.6276 17.1166 10.5299C17.1166 10.5299 17.5226 2.8243 11.2303 0.0239637C11.1943 0.0077562 11.1549 0.00107442 11.1156 0.00456276C11.0764 0.0080511 11.0387 0.0215919 11.0062 0.0438793C10.9737 0.0661667 10.9475 0.0964487 10.9302 0.131805C10.9128 0.167162 10.9048 0.2064 10.907 0.245735C10.9384 1.82384 10.6408 3.39118 10.0331 4.84793C9.42541 6.30468 8.52099 7.6189 7.37745 8.70688C6.868 9.21138 6.43493 9.78755 6.09192 10.4172C5.31009 10.1202 4.86654 9.33085 4.64101 8.78206C4.62383 8.73983 4.59444 8.70368 4.55661 8.67824C4.51878 8.65279 4.47423 8.6392 4.42864 8.6392C4.38305 8.6392 4.33849 8.65279 4.30066 8.67824C4.26283 8.70368 4.23345 8.73983 4.21626 8.78206C3.46942 10.6551 3.05844 12.6452 3.00216 14.6609C2.89315 19.7616 6.92639 24.058 12.0234 24.058C14.3805 24.0553 16.6422 23.1268 18.3212 21.4724C20.0002 19.818 20.962 17.5702 20.9995 15.2134C21.0147 13.0123 20.6064 10.8289 19.7966 8.78206Z" fill="#F26666"/>
<path d="M10.9034 0.569092V0.242073C10.9012 0.202738 10.9092 0.1635 10.9266 0.128143C10.944 0.0927866 10.9702 0.0625046 11.0027 0.0402172C11.0351 0.0179298 11.0728 0.00438899 11.1121 0.00090065C11.1513 -0.00258769 11.1908 0.00409409 11.2267 0.0203016C16.6018 2.41468 17.1995 8.22585 17.1055 10.5263C17.1055 10.5263 15.7486 10.3571 15.7448 10.0602C15.7147 8.46641 15.2787 3.21156 10.9034 0.569092ZM20.9997 15.2135C20.9622 17.5697 20.0009 19.8169 18.3227 21.4712C16.6445 23.1254 14.3838 24.0544 12.0273 24.0581C11.7905 24.0581 11.5537 24.0581 11.3244 24.0318C13.5596 23.8632 15.651 22.8652 17.188 21.2336C18.725 19.602 19.5965 17.4548 19.6315 15.2135C19.6495 13.3664 19.3638 11.5289 18.7857 9.77449C19.0311 9.4745 19.2289 9.13854 19.3721 8.7784C19.3893 8.73617 19.4187 8.70002 19.4565 8.67458C19.4943 8.64913 19.5389 8.63554 19.5845 8.63554C19.6301 8.63554 19.6746 8.64913 19.7124 8.67458C19.7503 8.70002 19.7797 8.73617 19.7968 8.7784C20.6071 10.8264 21.0154 13.0112 20.9997 15.2135Z" fill="#EF5361"/>
<path d="M6.3963 13.0785C6.4097 13.0489 6.43137 13.0237 6.45871 13.0061C6.48604 12.9884 6.51788 12.9791 6.55041 12.9791C6.58294 12.9791 6.61478 12.9884 6.64211 13.0061C6.66944 13.0237 6.69111 13.0489 6.70452 13.0785C6.91502 13.5935 7.39615 14.4054 8.3321 14.334C8.3321 14.334 8.03891 8.79718 12.5608 6.78621C12.5865 6.77464 12.6148 6.76985 12.6429 6.77229C12.671 6.77472 12.698 6.78431 12.7214 6.80013C12.7447 6.81595 12.7636 6.83748 12.7763 6.86268C12.789 6.88787 12.795 6.91589 12.7938 6.94408C12.7723 8.07828 12.9867 9.20458 13.4235 10.2515C13.8603 11.2985 14.5099 12.2432 15.3311 13.0259C15.6994 13.3867 16.0112 13.8011 16.2557 14.255C16.4989 14.1381 16.7162 13.9738 16.895 13.7718C17.0738 13.5698 17.2105 13.3341 17.2969 13.0785C17.309 13.0475 17.3302 13.0208 17.3577 13.002C17.3852 12.9832 17.4177 12.9731 17.451 12.9731C17.4844 12.9731 17.5169 12.9832 17.5444 13.002C17.5719 13.0208 17.5931 13.0475 17.6052 13.0785C18.1391 14.4291 18.4317 15.8629 18.4697 17.3147C18.4957 18.1843 18.3482 19.0504 18.0357 19.8623C17.7233 20.6742 17.2522 21.4157 16.6499 22.0435C16.0477 22.6713 15.3263 23.1728 14.5281 23.5187C13.7298 23.8646 12.8706 24.048 12.0007 24.0581C10.3035 24.0612 8.67331 23.3961 7.4627 22.2066C6.2521 21.0171 5.55843 19.3989 5.53176 17.7019C5.52133 16.1196 5.81482 14.5501 6.3963 13.0785Z" fill="#EF5361"/>
<path d="M8.1028 16.4201C8.11178 16.3992 8.12672 16.3813 8.14576 16.3687C8.1648 16.3562 8.18712 16.3495 8.20993 16.3495C8.23275 16.3495 8.25506 16.3562 8.2741 16.3687C8.29315 16.3813 8.30808 16.3992 8.31706 16.4201C8.46365 16.796 8.79819 17.3411 9.44471 17.2922C9.44471 17.2922 9.24173 13.4394 12.3879 12.0298C12.4056 12.0212 12.4254 12.0174 12.445 12.0188C12.4647 12.0202 12.4837 12.0268 12.5 12.0378C12.5164 12.0489 12.5296 12.064 12.5383 12.0817C12.5469 12.0994 12.5508 12.1191 12.5495 12.1388C12.5345 12.9282 12.6838 13.7121 12.9879 14.4408C13.292 15.1694 13.7444 15.8268 14.3162 16.3713C14.5696 16.6239 14.786 16.9112 14.9589 17.2245C15.127 17.1427 15.2772 17.0286 15.401 16.8886C15.5249 16.7486 15.6199 16.5856 15.6806 16.4089C15.6896 16.3879 15.7045 16.37 15.7236 16.3574C15.7426 16.3449 15.7649 16.3382 15.7878 16.3382C15.8106 16.3382 15.8329 16.3449 15.8519 16.3574C15.871 16.37 15.8859 16.3879 15.8949 16.4089C16.2718 17.3513 16.4804 18.3525 16.5113 19.3671C16.5299 19.973 16.4272 20.5765 16.2094 21.1422C15.9915 21.7079 15.6629 22.2243 15.2427 22.6613C14.8225 23.0983 14.3193 23.4469 13.7626 23.6868C13.2059 23.9266 12.6069 24.0529 12.0007 24.0581C10.8199 24.0583 9.68607 23.5955 8.84272 22.769C7.99936 21.9425 7.51373 20.8183 7.49011 19.6377C7.48417 18.5356 7.69225 17.4429 8.1028 16.4201Z" fill="#FCB72B"/>
<path d="M14.4818 19.198C14.4757 19.1852 14.4661 19.1745 14.4541 19.167C14.4421 19.1595 14.4283 19.1555 14.4142 19.1555C14.4 19.1555 14.3862 19.1595 14.3742 19.167C14.3623 19.1745 14.3527 19.1852 14.3465 19.198C14.3037 19.3569 14.2099 19.4974 14.0795 19.5979C13.9492 19.6984 13.7894 19.7533 13.6248 19.7543C13.6248 19.7543 13.7564 17.3035 11.7454 16.4127C11.734 16.4077 11.7216 16.4056 11.7093 16.4066C11.697 16.4076 11.6851 16.4116 11.6747 16.4183C11.6642 16.425 11.6556 16.4342 11.6496 16.445C11.6436 16.4558 11.6403 16.4679 11.6401 16.4803C11.6511 16.9834 11.5565 17.4833 11.3622 17.9475C11.168 18.4117 10.8785 18.83 10.5125 19.1754C10.356 19.3354 10.2243 19.5179 10.1216 19.7167C10.0139 19.6643 9.91766 19.5912 9.83832 19.5015C9.75898 19.4119 9.69812 19.3074 9.65923 19.1942C9.65445 19.18 9.64535 19.1677 9.63321 19.159C9.62107 19.1503 9.60651 19.1456 9.59157 19.1456C9.57663 19.1456 9.56207 19.1503 9.54993 19.159C9.53779 19.1677 9.52869 19.18 9.52391 19.1942C9.28949 19.7938 9.16226 20.43 9.14803 21.0736C9.13652 21.4576 9.20149 21.8401 9.33915 22.1988C9.47681 22.5575 9.68442 22.8852 9.9499 23.1629C10.2154 23.4407 10.5334 23.6628 10.8855 23.8165C11.2377 23.9702 11.6168 24.0523 12.001 24.0581C12.7512 24.0572 13.4711 23.7616 14.0054 23.235C14.5398 22.7084 14.8459 21.9929 14.8577 21.2428C14.865 20.5433 14.7373 19.8491 14.4818 19.198Z" fill="#FFC850"/>
</g>
<defs>
<clipPath id="clip0_1400_229">
<rect width="24" height="24" fill="white"/>
</clipPath>
</defs>
</svg>
