<svg width="23" height="22" viewBox="0 0 23 22" fill="none" xmlns="http://www.w3.org/2000/svg">
<path fill-rule="evenodd" clip-rule="evenodd" d="M21.099 0.0273556C21.2449 0.659574 21.4029 0.817629 22.0351 0.963526C22.0716 0.975684 22.0716 1.03647 22.0351 1.03647C21.4029 1.18237 21.2449 1.34043 21.099 1.97264C21.0868 2.00912 21.026 2.00912 21.026 1.97264C20.8801 1.34043 20.7221 1.18237 20.0899 1.03647C20.0534 1.02432 20.0534 0.963526 20.0899 0.963526C20.7221 0.817629 20.8801 0.659574 21.026 0.0273556C21.0382 -0.00911854 21.099 -0.00911854 21.099 0.0273556ZM2.74 2.27H7.11L7.12 2.26C7.19 2.24 7.41 2.17 7.59 1.96C7.77 1.74 7.8 1.51 7.8 1.43C7.81 1.36 7.84 1.12 7.7 0.88C7.54411 0.607188 7.29328 0.524239 7.22501 0.501661L7.22 0.5H2.47C2.2 0.55 1.33 0.76 0.67 1.56C0.17 2.16 0.04 2.79 0 3.08V6.32C0.01 6.39 0.05 6.67 0.3 6.88C0.550871 7.10192 0.848294 7.10041 0.922769 7.10003L0.93 7.1C0.98 7.1 1.3 7.1 1.55 6.85C1.79 6.61 1.79 6.32 1.79 6.26V3.38C1.79 3.29 1.8 2.97 2.03 2.68C2.29 2.35 2.66 2.28 2.74 2.27ZM2.74 19.73H7.11L7.12 19.74C7.19 19.76 7.41 19.83 7.59 20.04C7.77 20.26 7.8 20.49 7.8 20.57C7.81 20.64 7.84 20.88 7.7 21.12C7.5441 21.3928 7.29327 21.4758 7.22501 21.4983L7.22 21.5H2.47C2.2 21.45 1.33 21.24 0.67 20.44C0.17 19.84 0.04 19.21 0 18.92V15.68C0.01 15.61 0.05 15.33 0.3 15.12C0.550873 14.8981 0.848296 14.8996 0.92277 14.9L0.93 14.9C0.98 14.9 1.3 14.9 1.55 15.15C1.79 15.39 1.79 15.68 1.79 15.74V18.62C1.79 18.71 1.8 19.03 2.03 19.32C2.29 19.65 2.66 19.72 2.74 19.73ZM13.82 19.73H18.19C18.27 19.72 18.64 19.65 18.9 19.32C19.13 19.03 19.14 18.71 19.14 18.62V15.74C19.14 15.68 19.14 15.39 19.38 15.15C19.63 14.9 19.95 14.9 20 14.9L20.0072 14.9C20.0817 14.8996 20.3791 14.8981 20.63 15.12C20.88 15.33 20.92 15.61 20.93 15.68V18.92C20.89 19.21 20.76 19.84 20.26 20.44C19.6 21.24 18.73 21.45 18.46 21.5H13.71L13.705 21.4983C13.6367 21.4758 13.3859 21.3928 13.23 21.12C13.09 20.88 13.12 20.64 13.13 20.57C13.13 20.49 13.16 20.26 13.34 20.04C13.52 19.83 13.74 19.76 13.81 19.74L13.82 19.73ZM9.82999 14.97V9.02001L9.81999 9.01001C9.47499 9.01001 9.12749 9.00501 8.77999 9.00001C8.43249 8.99501 8.08499 8.99001 7.73999 8.99001L7.73652 8.98988C7.71684 8.98897 7.63484 8.98516 7.56999 9.05001C7.51999 9.11001 7.51999 9.20001 7.51999 9.21001C7.52999 9.57001 7.52999 9.93001 7.52999 10.29C7.51999 10.35 7.47999 10.53 7.30999 10.68C7.10999 10.84 6.88999 10.84 6.83999 10.84C6.78999 10.84 6.56999 10.83 6.37999 10.67C6.20999 10.52 6.15999 10.33 6.14999 10.27V9.04001C6.15999 8.91001 6.22999 8.42001 6.63999 8.03001C7.01999 7.67001 7.44999 7.61001 7.58999 7.60001H13.41L13.432 7.60196C13.5711 7.61376 14.0548 7.65481 14.45 8.05001C14.82 8.43001 14.87 8.89001 14.87 9.01001V10.33L14.8671 10.3426C14.8541 10.4018 14.8147 10.5813 14.64 10.71C14.4754 10.838 14.2941 10.8323 14.2337 10.8303L14.22 10.83C14.16 10.83 13.96 10.83 13.77 10.69C13.62 10.57 13.56 10.43 13.54 10.37L13.52 9.22001C13.52 9.20001 13.52 9.13 13.46 9.07001C13.4 9.00001 13.34 9.00001 13.32 9.00001H11.21V14.95C11.2126 14.95 11.2168 14.9497 11.2224 14.9492C11.2252 14.949 11.2284 14.9487 11.2319 14.9483C11.3264 14.9395 11.6669 14.9079 11.91 15.16C12.1 15.35 12.12 15.58 12.12 15.65C12.13 15.69 12.16 15.92 12 16.12C11.86 16.31 11.61 16.35 11.61 16.35H9.48999C9.43999 16.35 9.20999 16.32 9.03999 16.11C8.89999 15.95 8.88999 15.77 8.88999 15.71C8.88999 15.66 8.89999 15.37 9.12999 15.15C9.41999 14.88 9.82999 14.97 9.82999 14.97ZM20.4425 3.6625C18.9525 3.2425 18.4025 2.6925 17.9825 1.2025C17.9025 0.9325 17.5125 0.9325 17.4325 1.2025C17.0125 2.6925 16.4625 3.2425 14.9725 3.6625C14.7025 3.7425 14.7025 4.1325 14.9725 4.2125C16.4625 4.6325 17.0125 5.1825 17.4325 6.6725C17.5125 6.9425 17.9025 6.9425 17.9825 6.6725C18.4025 5.1825 18.9525 4.6325 20.4425 4.2125C20.7125 4.1325 20.7125 3.7425 20.4425 3.6625Z" fill="#121214"/>
</svg>
