<svg width="24" height="24" viewBox="0 0 24 24" fill="none" xmlns="http://www.w3.org/2000/svg">
<g clip-path="url(#clip0_1672_183)">
<path fill-rule="evenodd" clip-rule="evenodd" d="M18 16.9994C18 18.1024 18.897 18.9994 20 18.9994C21.103 18.9994 22 18.1024 22 16.9994C22 15.8964 21.103 14.9994 20 14.9994C18.897 14.9994 18 15.8964 18 16.9994ZM19.8084 16.5379C19.8691 16.5126 19.9342 16.4995 20 16.4994C20.1329 16.4991 20.2604 16.5516 20.3546 16.6454C20.4487 16.7392 20.5017 16.8665 20.502 16.9994C20.5023 17.1323 20.4497 17.2598 20.356 17.3539C20.2622 17.4481 20.1349 17.5011 20.002 17.5014C19.9362 17.5015 19.871 17.4887 19.8102 17.4636C19.7494 17.4386 19.6941 17.4018 19.6474 17.3554C19.6008 17.3089 19.5638 17.2538 19.5385 17.193C19.5132 17.1323 19.5001 17.0672 19.5 17.0014C19.4999 16.9356 19.5127 16.8704 19.5378 16.8096C19.5628 16.7487 19.5996 16.6934 19.646 16.6468C19.6925 16.6002 19.7476 16.5632 19.8084 16.5379ZM22.7197 23.7797C22.8603 23.9204 23.0511 23.9994 23.25 23.9994C23.4489 23.9994 23.6397 23.9204 23.7803 23.7797C23.921 23.6391 24 23.4483 24 23.2494V22.7494C23.9995 22.0202 23.7096 21.321 23.194 20.8054C22.6783 20.2898 21.9792 19.9999 21.25 19.9994H18.75C18.0208 19.9999 17.3217 20.2898 16.806 20.8054C16.2904 21.321 16.0005 22.0202 16 22.7494V23.2494C16 23.4483 16.079 23.6391 16.2197 23.7797C16.3603 23.9204 16.5511 23.9994 16.75 23.9994C16.9489 23.9994 17.1397 23.9204 17.2803 23.7797C17.421 23.6391 17.5 23.4483 17.5 23.2494V22.7494C17.5 22.0604 18.061 21.4994 18.75 21.4994H21.25C21.939 21.4994 22.5 22.0604 22.5 22.7494V23.2494C22.5 23.4483 22.579 23.6391 22.7197 23.7797ZM5.25 19.9994H14.25C14.4489 19.9994 14.6397 19.9204 14.7803 19.7797C14.921 19.6391 15 19.4483 15 19.2494C15 19.0505 14.921 18.8597 14.7803 18.7191C14.6397 18.5784 14.4489 18.4994 14.25 18.4994H5.25C4.836 18.4994 4.5 18.1624 4.5 17.7494V10.7494C4.5 10.5505 4.42098 10.3597 4.28033 10.2191C4.13968 10.0784 3.94891 9.99938 3.75 9.99938H1.881L10.5 1.78538L13.733 4.86238C13.8393 4.96352 13.9729 5.03127 14.1173 5.05722C14.2617 5.08318 14.4106 5.06621 14.5454 5.00841C14.6803 4.95061 14.7952 4.85453 14.876 4.73206C14.9568 4.60959 14.9999 4.4661 15 4.31938V2.49938H16.5V7.17938C16.5 7.28095 16.5207 7.38146 16.5608 7.4748C16.6008 7.56814 16.6594 7.65237 16.733 7.72238L19.12 9.99938H17.25C17.0511 9.99938 16.8603 10.0784 16.7197 10.2191C16.579 10.3597 16.5 10.5505 16.5 10.7494V13.2494C16.5 13.4483 16.579 13.6391 16.7197 13.7797C16.8603 13.9204 17.0511 13.9994 17.25 13.9994C17.4489 13.9994 17.6397 13.9204 17.7803 13.7797C17.921 13.6391 18 13.4483 18 13.2494V11.4994H19.75C20.439 11.4994 21 10.9384 21 10.2494C21 9.90138 20.852 9.56738 20.607 9.34538L18 6.85738V1.74938C18 1.55047 17.921 1.35971 17.7803 1.21905C17.6397 1.0784 17.4489 0.999383 17.25 0.999383H14.25C14.0511 0.999383 13.8603 1.0784 13.7197 1.21905C13.579 1.35971 13.5 1.55047 13.5 1.74938V2.56938L11.017 0.206383C10.8773 0.0738691 10.6921 0 10.4995 0C10.3069 0 10.1217 0.0738691 9.982 0.206383L0.406 9.33338C0.148 9.56738 0 9.90138 0 10.2494C0 10.9384 0.561 11.4994 1.25 11.4994H3V17.7494C3.00079 18.3459 3.2381 18.9177 3.65989 19.3395C4.08167 19.7613 4.65351 19.9986 5.25 19.9994ZM10.2912 10.5988H10.7209C11.9832 10.5988 13.0083 11.5836 13.0083 12.7966C13.0083 13.8575 12.2205 14.7438 11.1775 14.9497V15.469C11.1775 15.8405 10.8776 16.1404 10.5061 16.1404C10.1345 16.1404 9.83462 15.8405 9.83462 15.469V14.9452C9.16766 14.8154 8.58574 14.4126 8.26345 13.8172C8.0844 13.4904 8.20526 13.0831 8.53203 12.9041C8.85879 12.725 9.26613 12.8459 9.44518 13.1726C9.60633 13.4681 9.9331 13.6516 10.2957 13.6516H10.7254C11.2446 13.6516 11.6699 13.2666 11.6699 12.7966C11.6699 12.3266 11.2446 11.9417 10.7254 11.9417H10.2957C9.03337 11.9417 8.0083 10.9569 8.0083 9.7438C8.0083 8.68293 8.79613 7.79662 9.8391 7.59071V7.07147C9.8391 6.69994 10.139 6.40002 10.5105 6.40002C10.8821 6.40002 11.182 6.69994 11.182 7.07147V7.59519C11.8489 7.725 12.4309 8.12787 12.7532 8.72321C12.9322 9.04998 12.8113 9.45732 12.4846 9.63637C12.1578 9.81542 11.7505 9.69456 11.5714 9.36779C11.4103 9.07236 11.0835 8.88883 10.7209 8.88883H10.2912C9.77195 8.88883 9.34671 9.26932 9.34671 9.7438C9.34671 10.2138 9.77195 10.5988 10.2912 10.5988Z" fill="#121214"/>
</g>
<defs>
<clipPath id="clip0_1672_183">
<rect width="24" height="24" fill="white"/>
</clipPath>
</defs>
</svg>
