<svg width="22" height="22" viewBox="0 0 22 22" fill="none" xmlns="http://www.w3.org/2000/svg">
<path d="M19 20.8993L19 1.09877C18.9994 0.898304 18.9457 0.7018 18.8447 0.530415C18.7436 0.35903 18.5991 0.219254 18.4267 0.126133C18.2542 0.0330107 18.0603 -0.00993138 17.8659 0.00193041C17.6715 0.0137922 17.484 0.0800077 17.3234 0.193449L3.43197 10.0937C2.85601 10.504 2.85601 11.4919 3.43197 11.9033L17.3234 21.8036C17.4836 21.9182 17.6713 21.9854 17.866 21.9979C18.0607 22.0104 18.2551 21.9677 18.4279 21.8745C18.6007 21.7813 18.7454 21.6411 18.8463 21.4692C18.9471 21.2973 19.0003 21.1002 19 20.8993Z" fill="black"/>
</svg>
