<svg width="23" height="24" viewBox="0 0 23 24" fill="none" xmlns="http://www.w3.org/2000/svg">
<circle cx="7" cy="7" r="6.25" stroke="black" stroke-width="1.5"/>
<path d="M18.5 8V9.58579C18.5 9.851 18.3946 10.1054 18.2071 10.2929L18 10.5" stroke="#121214" stroke-width="1.5" stroke-linecap="round"/>
<circle cx="13.5" cy="17.5" r="1.5" fill="#D9D9D9" stroke="black" stroke-width="1.5"/>
<path d="M11 22.5V20C11 19.4477 11.4477 19 12 19H15C15.5523 19 16 19.4477 16 20V22.5" stroke="#121214" stroke-width="1.5" stroke-linecap="round"/>
<circle cx="18.5" cy="9.5" r="3.75" stroke="black" stroke-width="1.5"/>
<path fill-rule="evenodd" clip-rule="evenodd" d="M6.95921 2.5C7.37342 2.5 7.70921 2.83579 7.70921 3.25V3.86432C8.05709 3.96798 8.34034 4.13158 8.5543 4.29091C8.72981 4.4216 8.86344 4.55259 8.95528 4.65353C9.00148 4.70431 9.03793 4.7484 9.06462 4.78235C9.07799 4.79936 9.08898 4.81391 9.09758 4.82559L9.10873 4.84095L9.11298 4.84695L9.11477 4.8495L9.11559 4.85067L9.11598 4.85123C9.11616 4.8515 9.11635 4.85177 8.49998 5.27907L9.11635 4.85177C9.35234 5.19218 9.2677 5.65945 8.92729 5.89544C8.58951 6.12961 8.12683 6.04808 7.88914 5.71424L7.88913 5.71424L7.88535 5.70934C7.87879 5.70101 7.86552 5.68469 7.84577 5.66298C7.80569 5.61893 7.74252 5.55661 7.65842 5.49399C7.49157 5.36974 7.2612 5.25692 6.96359 5.25583L6.95921 5.25584L6.95468 5.25583C6.55041 5.25709 6.34872 5.42574 6.27364 5.54631C6.20291 5.65989 6.19447 5.79434 6.3034 5.93958C6.5489 6.26691 6.8794 6.33232 7.48557 6.45228L7.61652 6.47829C7.90026 6.53504 8.33648 6.62786 8.68668 6.90623C9.09953 7.23439 9.27905 7.71271 9.27905 8.27334C9.27905 8.9243 9.05481 9.46915 8.639 9.85101C8.36253 10.1049 8.03581 10.2554 7.70921 10.3329V10.785C7.70921 11.1992 7.37342 11.535 6.95921 11.535C6.545 11.535 6.20921 11.1992 6.20921 10.785V10.2466C6.12226 10.2163 6.03771 10.1818 5.95631 10.1432C5.57699 9.96353 5.15974 9.64196 4.9919 9.13843C4.86091 8.74547 5.07328 8.32073 5.46624 8.18975C5.85653 8.05965 6.27818 8.26826 6.41222 8.65611L6.41225 8.656C6.41238 8.65593 6.41297 8.65669 6.41413 8.65819C6.42303 8.66967 6.46572 8.72474 6.59844 8.7876C6.76267 8.8654 6.98033 8.91054 7.18993 8.89821C7.39982 8.88586 7.54305 8.82091 7.62439 8.74622C7.68933 8.68658 7.77905 8.56425 7.77905 8.27334C7.77905 8.1503 7.76041 8.09701 7.75485 8.0838C7.75338 8.08029 7.75326 8.07977 7.75335 8.07994C7.75342 8.08008 7.75365 8.08073 7.75331 8.08046C7.72087 8.05468 7.62728 8.01015 7.32235 7.94916C7.27498 7.93969 7.22225 7.93013 7.16503 7.91975C6.63421 7.8235 5.71656 7.65712 5.1034 6.83958C4.61663 6.19056 4.60819 5.38313 5.00034 4.75339C5.26715 4.32494 5.69292 4.01359 6.20921 3.86119V3.25C6.20921 2.83579 6.545 2.5 6.95921 2.5Z" fill="#121214"/>
<circle cx="13.5" cy="18.5" r="4.75" stroke="black" stroke-width="1.5"/>
</svg>
