<svg width="24" height="24" viewBox="0 0 24 24" fill="none" xmlns="http://www.w3.org/2000/svg">
<path fill-rule="evenodd" clip-rule="evenodd" d="M2.5 1.25C1.46447 1.25 0.625 2.08947 0.625 3.125V17.125C0.625 18.1605 1.46447 19 2.5 19H5.125V20.5C5.125 21.5355 5.96447 22.375 7 22.375H18.875C19.9105 22.375 20.75 21.5355 20.75 20.5V8.54439L23.3042 5.94537C24.0256 5.21133 24.0205 4.03303 23.2927 3.3053L22.0403 2.0529C21.3036 1.31616 20.1075 1.32136 19.3772 2.06448L18.25 3.21146V3.125C18.25 2.08947 17.4105 1.25 16.375 1.25H2.5ZM16.5564 4.93476C16.52 4.83847 16.5 4.73406 16.5 4.625V3.125C16.5 3.05596 16.444 3 16.375 3H2.5C2.43096 3 2.375 3.05596 2.375 3.125V17.125C2.375 17.194 2.43096 17.25 2.5 17.25H5.125V7C5.125 5.96447 5.96447 5.125 7 5.125H16.3694L16.5564 4.93476ZM20.8029 3.29033C20.7538 3.24122 20.674 3.24156 20.6254 3.29111L11.9947 12.0732C11.9813 12.0868 11.9713 12.1032 11.9652 12.1213L11.2585 14.2415L13.37 13.5377C13.3887 13.5314 13.4058 13.5208 13.4196 13.5067L19.0912 7.73561C19.1738 7.5696 19.3077 7.43355 19.472 7.34812L22.0561 4.71874C22.1042 4.6698 22.1038 4.59125 22.0553 4.54273L20.8029 3.29033ZM14.6678 14.7333L19 10.3251V20.5C19 20.569 18.944 20.625 18.875 20.625H7C6.93096 20.625 6.875 20.569 6.875 20.5V7C6.875 6.93096 6.93096 6.875 7 6.875H14.6496L10.7465 10.8466C10.5463 11.0503 10.3953 11.297 10.305 11.5679L9.36113 14.3996C9.00282 15.4745 10.0255 16.4972 11.1004 16.1389L13.9234 15.1979C14.2048 15.1041 14.4599 14.9449 14.6678 14.7333Z" fill="#121214"/>
</svg>
