<svg width="24" height="24" viewBox="0 0 24 24" fill="none" xmlns="http://www.w3.org/2000/svg">
<path fill-rule="evenodd" clip-rule="evenodd" d="M16.0461 4.85028C16.0461 5.35321 15.6384 5.76091 15.1355 5.76091C14.6325 5.76091 14.2248 5.35321 14.2248 4.85028C14.2248 4.34735 14.6325 3.93964 15.1355 3.93964C15.6384 3.93964 16.0461 4.34735 16.0461 4.85028ZM16.5511 6.41492C16.9776 6.02884 17.2455 5.47084 17.2455 4.85028C17.2455 3.68495 16.3008 2.74026 15.1355 2.74026C13.9702 2.74026 13.0255 3.68495 13.0255 4.85028C13.0255 5.47084 13.2934 6.02884 13.7198 6.41492C10.7765 6.8118 8.50718 9.33389 8.50718 12.386H9.70655C9.70655 9.72064 11.8673 7.55994 14.5326 7.55994H15.7383C18.4037 7.55994 20.5644 9.72064 20.5644 12.386H21.7638C21.7638 9.3339 19.4945 6.81181 16.5511 6.41492ZM7 12.3892H7.59969H22.6712H23.2709V12.9889V14.1946C23.2709 15.1917 22.4626 16 21.4655 16H8.80541C7.80831 16 7 15.1917 7 14.1946V12.9889V12.3892ZM8.19937 13.5886V14.1946C8.19937 14.5293 8.47071 14.8006 8.80541 14.8006H21.4655C21.8002 14.8006 22.0715 14.5293 22.0715 14.1946V13.5886H8.19937Z" fill="#121214"/>
<path d="M4.0708 14.6814C3.42575 15.0039 2.86352 15.5808 2.47782 16.0723C2.17906 16.4529 1.73675 16.7168 1.25284 16.7168C1.1132 16.7168 1 16.83 1 16.9697V22.1213C1 22.2857 1.12938 22.4206 1.29366 22.4263C3.20755 22.4926 6.08989 22.5706 7.32743 22.4159C8.20252 22.3065 9.55523 21.7012 10.6575 21.1304C11.563 20.6615 12.5308 20.3129 13.5421 20.1818L22.3371 19.0417C22.6678 18.9988 22.8639 18.6496 22.7285 18.3449C22.3985 17.6024 21.6622 17.1239 20.8496 17.1239H11.0357C11.0068 17.1239 10.9788 17.1143 10.9559 17.0965L9.1754 15.7116C9.16666 15.7048 9.16544 15.6921 9.17273 15.6838L11.0455 13.5435C11.5938 12.9168 11.583 11.9779 11.0203 11.364C10.3563 10.6397 9.20785 10.6612 8.57151 11.4099L6.31538 14.0642C6.3118 14.0684 6.30687 14.0708 6.30134 14.0708C5.95549 14.0728 5.03984 14.1969 4.0708 14.6814Z" fill="white" stroke="#121214" stroke-width="1.2"/>
</svg>
