<svg width="24" height="24" viewBox="0 0 24 24" fill="none" xmlns="http://www.w3.org/2000/svg">
<g clip-path="url(#clip0_1680_254)">
<path fill-rule="evenodd" clip-rule="evenodd" d="M20.8722 4.82002C21.28 5.00622 21.6447 5.27486 21.9435 5.60902C22.2405 5.9253 22.4711 6.29793 22.6216 6.70486C22.7721 7.1118 22.8395 7.54478 22.8198 7.97821L22.1383 18.9262C22.0528 20.3019 21.4454 21.5931 20.4401 22.5361C19.4348 23.479 18.1075 24.0026 16.7291 24H7.27402C5.89569 24.0026 4.56835 23.479 3.56305 22.5361C2.55776 21.5931 1.95037 20.3019 1.86491 18.9262L1.18337 7.97821C1.15524 7.53504 1.21836 7.09081 1.36882 6.67301C1.51928 6.25522 1.75388 5.87274 2.0581 5.54925C2.36232 5.22577 2.72968 4.96815 3.13746 4.79235C3.54525 4.61655 3.98477 4.52631 4.42883 4.5272H6.70066C6.94895 3.30443 7.61234 2.2051 8.57842 1.41547C9.5445 0.625845 10.7539 0.194489 12.0016 0.194489C13.2493 0.194489 14.4587 0.625845 15.4247 1.41547C16.3908 2.2051 17.0542 3.30443 17.3025 4.5272H19.5743C20.0225 4.53413 20.4644 4.63383 20.8722 4.82002ZM13.87 2.96174C13.3238 2.57438 12.6712 2.36544 12.0016 2.36355C11.332 2.36544 10.6794 2.57438 10.1332 2.96174C9.58703 3.34909 9.17404 3.8959 8.95084 4.5272H15.0523C14.8291 3.8959 14.4161 3.34909 13.87 2.96174ZM18.9435 20.9596C19.5466 20.3947 19.9115 19.6211 19.9638 18.7964L20.6562 7.83757C20.665 7.69014 20.6436 7.54246 20.5932 7.40362C20.5428 7.26478 20.4645 7.13773 20.3632 7.03029C20.2618 6.92286 20.1396 6.83732 20.0039 6.77894C19.8682 6.72056 19.722 6.69058 19.5743 6.69084H17.4107V7.77266C17.4107 8.05958 17.2967 8.33475 17.0938 8.53763C16.891 8.74051 16.6158 8.85449 16.3289 8.85449C16.042 8.85449 15.7668 8.74051 15.5639 8.53763C15.361 8.33475 15.247 8.05958 15.247 7.77266V6.69084H8.75612V7.77266C8.75612 8.05958 8.64214 8.33475 8.43926 8.53763C8.23638 8.74051 7.96121 8.85449 7.67429 8.85449C7.38738 8.85449 7.11221 8.74051 6.90933 8.53763C6.70645 8.33475 6.59247 8.05958 6.59247 7.77266V6.69084H4.42883C4.28113 6.69058 4.13494 6.72056 3.99927 6.77894C3.8636 6.83732 3.74132 6.92286 3.63997 7.03029C3.53862 7.13773 3.46034 7.26478 3.40995 7.40362C3.35957 7.54246 3.33815 7.69014 3.34701 7.83757L4.02856 18.7964C4.08089 19.6211 4.44579 20.3947 5.04885 20.9596C5.65191 21.5244 6.44773 21.838 7.27402 21.8363H16.7183C17.5446 21.838 18.3404 21.5244 18.9435 20.9596ZM11.1794 15.7024L15.6148 11.3751C15.7164 11.275 15.8367 11.1958 15.9689 11.1421C16.1011 11.0885 16.2425 11.0614 16.3852 11.0624C16.5278 11.0634 16.6689 11.0925 16.8003 11.148C16.9317 11.2035 17.0509 11.2844 17.151 11.3859C17.2512 11.4875 17.3304 11.6078 17.384 11.74C17.4377 11.8722 17.4648 12.0136 17.4638 12.1563C17.4628 12.2989 17.4337 12.44 17.3782 12.5714C17.3226 12.7028 17.2418 12.822 17.1402 12.9221L11.9367 18.0391C11.734 18.2406 11.4598 18.3537 11.174 18.3537C10.8882 18.3537 10.614 18.2406 10.4113 18.0391L7.94473 15.6159C7.73959 15.4136 7.6232 15.1381 7.62117 14.85C7.61914 14.5619 7.73164 14.2848 7.93391 14.0797C8.13619 13.8745 8.41168 13.7581 8.69977 13.7561C8.98786 13.7541 9.26495 13.8666 9.4701 14.0689L11.1794 15.7024Z" fill="#121214"/>
</g>
<defs>
<clipPath id="clip0_1680_254">
<rect width="24" height="24" fill="white"/>
</clipPath>
</defs>
</svg>
