<svg width="24" height="24" viewBox="0 0 24 24" fill="none" xmlns="http://www.w3.org/2000/svg">
<path fill-rule="evenodd" clip-rule="evenodd" d="M10.5629 9.98146C10.5629 10.5685 10.087 11.0444 9.49998 11.0444C8.91292 11.0444 8.43702 10.5685 8.43702 9.98146C8.43702 9.3944 8.91292 8.91849 9.49998 8.91849C10.087 8.91849 10.5629 9.3944 10.5629 9.98146ZM11.1524 11.8078C11.6502 11.3572 11.9629 10.7058 11.9629 9.98146C11.9629 8.6212 10.8602 7.51849 9.49998 7.51849C8.13973 7.51849 7.03702 8.6212 7.03702 9.98146C7.03702 10.7058 7.34974 11.3572 7.84754 11.8078C4.41182 12.2711 1.76296 15.2151 1.76296 18.7777H3.16296C3.16296 15.6665 5.68509 13.1444 8.79629 13.1444H10.2037C13.3149 13.1444 15.837 15.6665 15.837 18.7777H17.237C17.237 15.2151 14.5882 12.2711 11.1524 11.8078ZM0.00366211 18.7815H0.703662H18.2963H18.9963V19.4815V20.8889C18.9963 22.0527 18.0527 22.9963 16.8888 22.9963H2.11107C0.94718 22.9963 0.00366211 22.0527 0.00366211 20.8889V19.4815V18.7815ZM1.40366 20.1814V20.8889C1.40366 21.2795 1.72038 21.5963 2.11107 21.5963H16.8888C17.2795 21.5963 17.5963 21.2795 17.5963 20.8889V20.1814H1.40366Z" fill="#121214"/>
<path fill-rule="evenodd" clip-rule="evenodd" d="M22.6 6C22.6 8.54051 20.5405 10.6 18 10.6C15.4595 10.6 13.4 8.54051 13.4 6C13.4 3.45949 15.4595 1.4 18 1.4C20.5405 1.4 22.6 3.45949 22.6 6ZM24 6C24 9.31371 21.3137 12 18 12C14.6863 12 12 9.31371 12 6C12 2.68629 14.6863 0 18 0C21.3137 0 24 2.68629 24 6ZM20.6591 5.27426C20.8934 5.03995 20.8934 4.66005 20.6591 4.42574C20.4248 4.19142 20.0449 4.19142 19.8106 4.42574L17.1515 7.08481L16.1743 6.10755C15.9399 5.87324 15.5601 5.87324 15.3257 6.10755C15.0914 6.34187 15.0914 6.72177 15.3257 6.95608L16.7273 8.3576C16.9616 8.59191 17.3415 8.59191 17.5758 8.3576L20.6591 5.27426Z" fill="#121214"/>
</svg>
