<svg width="24" height="24" viewBox="0 0 24 24" fill="none" xmlns="http://www.w3.org/2000/svg">
<path fill-rule="evenodd" clip-rule="evenodd" d="M10.5629 9.98146C10.5629 10.5685 10.087 11.0444 9.49998 11.0444C8.91292 11.0444 8.43702 10.5685 8.43702 9.98146C8.43702 9.3944 8.91292 8.91849 9.49998 8.91849C10.087 8.91849 10.5629 9.3944 10.5629 9.98146ZM11.1524 11.8078C11.6502 11.3572 11.9629 10.7058 11.9629 9.98146C11.9629 8.6212 10.8602 7.51849 9.49998 7.51849C8.13973 7.51849 7.03702 8.6212 7.03702 9.98146C7.03702 10.7058 7.34974 11.3572 7.84754 11.8078C4.41183 12.2711 1.76296 15.2151 1.76296 18.7777H3.16296C3.16296 15.6665 5.68509 13.1444 8.79629 13.1444H10.2037C13.3149 13.1444 15.837 15.6665 15.837 18.7777H17.237C17.237 15.2151 14.5882 12.2711 11.1524 11.8078ZM0.00366211 18.7815H0.703662H18.2963H18.9963V19.4815V20.8889C18.9963 22.0527 18.0527 22.9963 16.8888 22.9963H2.11107C0.94718 22.9963 0.00366211 22.0527 0.00366211 20.8889V19.4815V18.7815ZM1.40366 20.1814V20.8889C1.40366 21.2795 1.72038 21.5963 2.11107 21.5963H16.8888C17.2795 21.5963 17.5963 21.2795 17.5963 20.8889V20.1814H1.40366Z" fill="#121214"/>
<path fill-rule="evenodd" clip-rule="evenodd" d="M22.6 5.5C22.6 7.76437 20.7644 9.6 18.5 9.6C16.2356 9.6 14.4 7.76437 14.4 5.5C14.4 3.23563 16.2356 1.4 18.5 1.4C20.7644 1.4 22.6 3.23563 22.6 5.5ZM24 5.5C24 8.53757 21.5376 11 18.5 11C15.4624 11 13 8.53757 13 5.5C13 2.46243 15.4624 0 18.5 0C21.5376 0 24 2.46243 24 5.5ZM19.2 3.09375C19.2 2.70715 18.8866 2.39375 18.5 2.39375C18.1134 2.39375 17.8 2.70715 17.8 3.09375V5.84375C17.8 6.23035 18.1134 6.54375 18.5 6.54375H20.2188C20.6053 6.54375 20.9187 6.23035 20.9187 5.84375C20.9187 5.45715 20.6053 5.14375 20.2188 5.14375H19.2V3.09375Z" fill="#121214"/>
</svg>
