<svg width="24" height="24" viewBox="0 0 24 24" fill="none" xmlns="http://www.w3.org/2000/svg">
<path fill-rule="evenodd" clip-rule="evenodd" d="M9.48338 3.47658C9.22563 3.78424 9.14236 4.17892 9.11516 4.5053C9.10969 4.57094 9.098 4.63457 9.08071 4.69566H13.2147L13.2145 4.67695C13.2145 3.87152 12.9013 3.46464 12.5696 3.22578C12.1869 2.95021 11.6975 2.84857 11.3862 2.84857C10.1966 2.84857 9.70693 3.20974 9.48338 3.47658ZM7.12207 4.33921C7.11177 4.46281 7.12441 4.58302 7.15643 4.69566H6.51216C5.14189 4.69566 3.98282 5.70906 3.79987 7.06705L2.02496 20.2421C1.80378 21.8839 3.08057 23.3442 4.73725 23.3442H16.9275C17.5935 23.3442 18.1986 23.1081 18.6695 22.7186C18.7292 22.7088 18.7948 22.6975 18.8655 22.6846C19.1895 22.6255 19.6346 22.5297 20.0992 22.3832C20.5539 22.2399 21.0825 22.031 21.5407 21.7244C21.9873 21.4256 22.5078 20.9378 22.6727 20.1956C22.7677 19.7683 22.7375 19.3061 22.6749 18.8938C22.6095 18.4626 22.4923 17.9866 22.3449 17.4903C22.0501 16.4976 21.6059 15.3301 21.108 14.1152C20.637 12.9657 20.1065 11.7466 19.5911 10.5619L19.591 10.5617L19.5909 10.5616L19.5909 10.5615L19.498 10.3481C18.9509 9.09025 18.4265 7.88028 17.999 6.8116L17.9921 6.81439C17.7086 5.58678 16.6111 4.69566 15.3258 4.69566H15.2144L15.2145 4.67695C15.2145 3.21968 14.5849 2.21237 13.7382 1.60271C12.9425 1.02977 12.0176 0.848572 11.3862 0.848572C9.74731 0.848572 8.63669 1.37289 7.95029 2.1922C7.29807 2.97071 7.16176 3.86287 7.12207 4.33921ZM6.04232 7.36915C6.07401 7.13391 6.27479 6.95836 6.51216 6.95836H15.3258C15.5655 6.95836 15.7675 7.13728 15.7964 7.37523L17.3981 20.5502C17.4325 20.8327 17.212 21.0815 16.9275 21.0815H4.73725C4.45027 21.0815 4.22909 20.8286 4.26741 20.5442L6.04232 7.36915ZM18.9932 14.9218L19.6294 20.1544C19.8939 20.0592 20.1183 19.9537 20.2825 19.8438C20.4045 19.7622 20.4515 19.707 20.4666 19.6862L20.4679 19.6724C20.4698 19.6497 20.4712 19.618 20.4705 19.5759C20.4691 19.4904 20.4597 19.3772 20.4378 19.2331C20.3938 18.9427 20.3069 18.5756 20.1759 18.1346C19.9139 17.2526 19.5042 16.1687 19.0143 14.9732L18.9932 14.9218ZM8.51186 13.6562C8.02568 13.418 7.44306 12.8472 7.50448 11.7416C7.60149 9.99534 8.66864 9.21923 9.15371 9.21923C9.63878 9.21923 10.5074 10.3834 10.6089 11.7416C10.6481 12.266 10.3992 13.1835 9.66916 13.5833C9.86051 13.7384 9.98371 13.9739 9.98371 14.2376V17.9223C9.98371 18.3894 9.59719 18.768 9.13014 18.768C8.66308 18.768 8.27656 18.3894 8.27656 17.9223V14.2376C8.27656 14.0124 8.36643 13.8078 8.51186 13.6562ZM11.6129 12.9578C11.6129 13.6931 11.9396 14.0195 12.2232 14.1858C12.4571 14.3231 12.6129 14.5305 12.6129 14.8017V18.3064C12.6129 18.6895 12.9234 19 13.3064 19C13.6895 19 14.0001 18.6916 14.0023 18.3086C14.0117 16.6634 14.0485 14.0085 14.0771 11.9456C14.0887 11.1044 14.099 10.3617 14.1055 9.82597C14.11 9.45982 13.7415 9.24233 13.473 9.49137C12.4773 10.4151 11.6129 12.1996 11.6129 12.9578Z" fill="#121214"/>
</svg>
