<svg width="24" height="24" viewBox="0 0 24 24" fill="none" xmlns="http://www.w3.org/2000/svg">
<path fill-rule="evenodd" clip-rule="evenodd" d="M8.28497 2.53793C8.28497 1.85258 8.84056 1.297 9.52591 1.297H14.4896C15.175 1.297 15.7306 1.85258 15.7306 2.53793C15.7306 3.22328 15.175 3.77886 14.4896 3.77886H13.2488V5.5447C21.5528 6.31508 23.8267 13.1485 23.9902 17.7412C24.0246 18.7067 23.21 19.4456 22.244 19.4456H2.19685C1.21535 19.4456 0.394368 18.6841 0.439144 17.7036C0.655906 12.957 2.91576 6.03461 10.7669 5.50661V3.77886H9.52591C8.84056 3.77886 8.28497 3.22328 8.28497 2.53793ZM1.38237 20.3763C0.739854 20.3763 0.218994 20.8971 0.218994 21.5397C0.218994 22.1822 0.739854 22.703 1.38237 22.703H22.7884C23.431 22.703 23.9518 22.1822 23.9518 21.5397C23.9518 20.8971 23.431 20.3763 22.7884 20.3763H1.38237Z" fill="#2F58EE"/>
</svg>
