<svg width="24" height="24" viewBox="0 0 24 24" fill="none" xmlns="http://www.w3.org/2000/svg">
<path fill-rule="evenodd" clip-rule="evenodd" d="M17.5 7.25H19.6248C20.2378 7.23446 20.832 7.46254 21.2772 7.88428C21.7224 8.30601 21.9823 8.88701 22 9.5V11.75C22 11.9489 21.921 12.1397 21.7803 12.2803C21.6397 12.421 21.4489 12.5 21.25 12.5C21.0511 12.5 20.8603 12.421 20.7197 12.2803C20.579 12.1397 20.5 11.9489 20.5 11.75V9.5C20.482 9.28503 20.3801 9.0858 20.2162 8.94543C20.0524 8.80506 19.8399 8.73485 19.6248 8.75H3.37525C3.16006 8.73485 2.94756 8.80506 2.78375 8.94543C2.61994 9.0858 2.518 9.28503 2.5 9.5V16.25C2.518 16.465 2.61994 16.6642 2.78375 16.8046C2.94756 16.9449 3.16006 17.0151 3.37525 17H5.5V14.75C5.5 14.5511 5.57902 14.3603 5.71967 14.2197C5.86032 14.079 6.05109 14 6.25 14H10C10.1989 14 10.3897 14.079 10.5303 14.2197C10.671 14.3603 10.75 14.5511 10.75 14.75C10.75 14.9489 10.671 15.1397 10.5303 15.2803C10.3897 15.421 10.1989 15.5 10 15.5H7V20H11.5C11.6989 20 11.8897 20.079 12.0303 20.2197C12.171 20.3603 12.25 20.5511 12.25 20.75C12.25 20.9489 12.171 21.1397 12.0303 21.2803C11.8897 21.421 11.6989 21.5 11.5 21.5H7C6.60218 21.5 6.22064 21.342 5.93934 21.0607C5.65804 20.7794 5.5 20.3978 5.5 20V18.5H3.37525C2.7622 18.5155 2.16799 18.2875 1.72278 17.8657C1.27757 17.444 1.01766 16.863 1 16.25V9.5C1.01766 8.88701 1.27757 8.30601 1.72278 7.88428C2.16799 7.46254 2.7622 7.23446 3.37525 7.25H5.5V3.5C5.5 3.10218 5.65804 2.72064 5.93934 2.43934C6.22064 2.15804 6.60218 2 7 2H14.5C14.6989 2.00004 14.8896 2.07909 15.0303 2.21975L17.2803 4.46975C17.4209 4.61037 17.5 4.8011 17.5 5V7.25ZM14.1895 3.5H7V7.25H16V5.3105L14.1895 3.5ZM4.96967 11.5303C5.11032 11.671 5.30109 11.75 5.5 11.75H8.5C8.69891 11.75 8.88968 11.671 9.03033 11.5303C9.17098 11.3897 9.25 11.1989 9.25 11C9.25 10.8011 9.17098 10.6103 9.03033 10.4697C8.88968 10.329 8.69891 10.25 8.5 10.25H5.5C5.30109 10.25 5.11032 10.329 4.96967 10.4697C4.82902 10.6103 4.75 10.8011 4.75 11C4.75 11.1989 4.82902 11.3897 4.96967 11.5303Z" fill="#121214"/>
<path fill-rule="evenodd" clip-rule="evenodd" d="M18.0119 13.6386C18.1593 13.3634 18.5519 13.358 18.7068 13.6291L22.4756 20.2246C22.6269 20.4893 22.4357 20.8188 22.1308 20.8188H14.8286C14.5285 20.8188 14.3368 20.4986 14.4785 20.2341L18.0119 13.6386ZM19.9474 12.9201C19.2353 11.6739 17.4301 11.6986 16.7523 12.9638L13.219 19.5593C12.5673 20.7758 13.4486 22.2477 14.8286 22.2477H22.1308C23.5329 22.2477 24.4119 20.733 23.7163 19.5156L19.9474 12.9201ZM18.3361 15.3374C18.7184 15.3374 19.0283 15.6473 19.0283 16.0296V17.7599C19.0283 18.1422 18.7184 18.4521 18.3361 18.4521C17.9539 18.4521 17.644 18.1422 17.644 17.7599V16.0296C17.644 15.6473 17.9539 15.3374 18.3361 15.3374ZM19.0283 19.4903C19.0283 19.8726 18.7184 20.1824 18.3361 20.1824C17.9539 20.1824 17.644 19.8726 17.644 19.4903C17.644 19.108 17.9539 18.7982 18.3361 18.7982C18.7184 18.7982 19.0283 19.108 19.0283 19.4903Z" fill="#121214"/>
</svg>
