<svg width="24" height="24" viewBox="0 0 24 24" fill="none" xmlns="http://www.w3.org/2000/svg">
<path d="M21.2854 7.21432H18.8571V4.6429C18.8571 4.41559 18.7668 4.1976 18.606 4.0369L16.0346 1.46547C15.8739 1.30471 15.6559 1.21437 15.4286 1.21432H6.85714C6.40249 1.21432 5.96645 1.39494 5.64496 1.71643C5.32347 2.03792 5.14286 2.47395 5.14286 2.92861V7.21432H2.71457C2.01401 7.1968 1.33504 7.45754 0.826275 7.93947C0.317515 8.4214 0.020412 9.08527 0 9.78575V17.5C0.020412 18.2005 0.317515 18.8644 0.826275 19.3463C1.33504 19.8283 2.01401 20.089 2.71457 20.0715H5.14286V21.7858C5.14286 22.2404 5.32347 22.6764 5.64496 22.9979C5.96645 23.3194 6.40249 23.5 6.85714 23.5H12C12.2273 23.5 12.4453 23.4097 12.6061 23.249C12.7668 23.0882 12.8571 22.8702 12.8571 22.6429C12.8571 22.4156 12.7668 22.1975 12.6061 22.0368C12.4453 21.8761 12.2273 21.7858 12 21.7858H6.85714V16.6429H11.202C11.3822 15.2077 12.0118 13.8663 13.0008 12.8108C13.9898 11.7553 15.2875 11.0398 16.7079 10.7668C18.1284 10.4937 19.5988 10.6772 20.9087 11.2908C22.2185 11.9044 23.3006 12.9168 24 14.1829V9.78575C23.9796 9.08527 23.6825 8.4214 23.1737 7.93947C22.665 7.45754 21.986 7.1968 21.2854 7.21432ZM8.57143 12.3572H5.14286C4.91553 12.3572 4.69751 12.2669 4.53677 12.1061C4.37602 11.9454 4.28571 11.7274 4.28571 11.5C4.28571 11.2727 4.37602 11.0547 4.53677 10.8939C4.69751 10.7332 4.91553 10.6429 5.14286 10.6429H8.57143C8.79876 10.6429 9.01677 10.7332 9.17752 10.8939C9.33827 11.0547 9.42857 11.2727 9.42857 11.5C9.42857 11.7274 9.33827 11.9454 9.17752 12.1061C9.01677 12.2669 8.79876 12.3572 8.57143 12.3572ZM17.1429 7.21432H6.85714V2.92861H15.0737L17.1429 4.99775V7.21432Z" fill="#121214"/>
<circle cx="18" cy="18" r="6" fill="#121214"/>
<path fill-rule="evenodd" clip-rule="evenodd" d="M19 15.5C19 14.9477 18.5523 14.5 18 14.5C17.4477 14.5 17 14.9477 17 15.5V18C17 18.5523 17.4477 19 18 19C18.5523 19 19 18.5523 19 18V15.5ZM18 21.5C18.5523 21.5 19 21.0523 19 20.5C19 19.9477 18.5523 19.5 18 19.5C17.4477 19.5 17 19.9477 17 20.5C17 21.0523 17.4477 21.5 18 21.5Z" fill="#F8F8FB"/>
</svg>
