<svg width="22" height="22" viewBox="0 0 22 22" fill="none" xmlns="http://www.w3.org/2000/svg">
<path d="M3 1.10066L3 20.9012C3.00061 21.1017 3.05432 21.2982 3.15535 21.4696C3.25638 21.641 3.40089 21.7807 3.57335 21.8739C3.7458 21.967 3.93966 22.0099 4.13406 21.9981C4.32846 21.9862 4.51603 21.92 4.67659 21.8066L18.568 11.9063C19.144 11.496 19.144 10.5081 18.568 10.0967L4.67659 0.196436C4.51637 0.0818401 4.3287 0.0146384 4.13398 0.00213223C3.93925 -0.010374 3.74493 0.0322936 3.57211 0.125499C3.39929 0.218705 3.25459 0.358884 3.15372 0.530806C3.05286 0.702728 2.99969 0.899818 3 1.10066Z" fill="black"/>
</svg>
