<svg width="24" height="24" viewBox="0 0 24 24" fill="none" xmlns="http://www.w3.org/2000/svg">
<g clip-path="url(#clip0_69_112)">
<path fill-rule="evenodd" clip-rule="evenodd" d="M6.28836 5.6381C8.72925 3.97665 11.2986 4.3461 11.751 4.42478L11.751 4.4248L11.7579 4.42596C12.1164 4.48571 14.9695 5.0037 16.7678 7.6012L16.7683 7.60202C17.5072 8.66693 18.0916 9.54303 18.3848 10.535L14.4893 8.91186C13.9795 8.69944 13.394 8.94052 13.1816 9.45032C12.9692 9.96012 13.2103 10.5456 13.7201 10.758L19.7201 13.258C19.9766 13.3649 20.266 13.3602 20.519 13.2451C20.7719 13.13 20.9655 12.9148 21.0534 12.6512L23.0534 6.65116C23.228 6.12722 22.9449 5.5609 22.4209 5.38625C21.897 5.21161 21.3307 5.49476 21.156 6.01871L20.0651 9.29134C19.6359 8.22761 19.0035 7.31518 18.4119 6.4624C16.1348 3.17361 12.582 2.53592 12.0901 2.45374C11.4644 2.34527 8.25089 1.88347 5.16396 3.98409C2.68747 5.66155 1.77489 7.98943 1.51517 8.72964L1.51451 8.73153C1.26726 9.44075 0.429335 12.0968 1.56693 15.1845L1.5669 15.1846L1.5698 15.1922C1.78891 15.7722 2.97 18.8302 6.36353 20.4814L6.36458 20.4819C7.02237 20.8011 9.49 21.9108 12.6107 21.2151C14.8379 20.7213 16.3156 19.5542 16.9791 18.9493C17.3872 18.5772 17.4164 17.9447 17.0443 17.5366C16.6722 17.1285 16.0397 17.0993 15.6315 17.4714C15.1093 17.9476 13.9366 18.8728 12.1768 19.2628L12.1756 19.2631C9.71711 19.8111 7.75598 18.934 7.23835 18.6829C4.57067 17.3847 3.62214 14.9651 3.44222 14.4893C2.54785 12.0577 3.20786 9.94998 3.40271 9.39085C3.60845 8.80473 4.3352 6.96071 6.28637 5.63945L6.28836 5.6381Z" fill="#121214"/>
</g>
<defs>
<clipPath id="clip0_69_112">
<rect width="22" height="22" fill="white" transform="translate(1 1)"/>
</clipPath>
</defs>
</svg>
