<svg width="24" height="24" viewBox="0 0 24 24" fill="none" xmlns="http://www.w3.org/2000/svg">
<g clip-path="url(#clip0_69_111)">
<path fill-rule="evenodd" clip-rule="evenodd" d="M17.8416 5.6381C15.4007 3.97665 12.8314 4.3461 12.379 4.42478L12.379 4.4248L12.372 4.42596C12.0135 4.48571 9.16043 5.0037 7.36216 7.6012L7.3616 7.60202C6.62278 8.66693 6.03832 9.54303 5.74514 10.535L9.64063 8.91186C10.1504 8.69944 10.7359 8.94052 10.9483 9.45032C11.1607 9.96012 10.9197 10.5456 10.4099 10.758L4.40986 13.258C4.15335 13.3649 3.86392 13.3602 3.61099 13.2451C3.35806 13.13 3.16444 12.9148 3.07657 12.6512L1.07656 6.65116C0.901917 6.12722 1.18508 5.5609 1.70902 5.38625C2.23296 5.21161 2.79928 5.49476 2.97393 6.01871L4.06481 9.29134C4.49406 8.22761 5.1264 7.31518 5.71804 6.4624C7.99514 3.17361 11.5479 2.53592 12.0398 2.45374C12.6656 2.34527 15.8791 1.88347 18.966 3.98409C21.4425 5.66155 22.3551 7.98943 22.6148 8.72964L22.6154 8.73153C22.8627 9.44075 23.7006 12.0968 22.563 15.1845L22.563 15.1846L22.5601 15.1922C22.341 15.7722 21.1599 18.8302 17.7664 20.4814L17.7654 20.4819C17.1076 20.8011 14.6399 21.9108 11.5192 21.2151C9.292 20.7213 7.81435 19.5542 7.15089 18.9493C6.74277 18.5772 6.71358 17.9447 7.08569 17.5366C7.45779 17.1285 8.09028 17.0993 8.4984 17.4714C9.02066 17.9476 10.1933 18.8728 11.9531 19.2628L11.9544 19.2631C14.4128 19.8111 16.374 18.934 16.8916 18.6829C19.5593 17.3847 20.5078 14.9651 20.6877 14.4893C21.5821 12.0577 20.9221 9.94998 20.7272 9.39085C20.5215 8.80473 19.7947 6.96071 17.8436 5.63945L17.8416 5.6381Z" fill="#121214"/>
</g>
<defs>
<clipPath id="clip0_69_111">
<rect width="22" height="22" fill="white" transform="translate(1 1)"/>
</clipPath>
</defs>
</svg>
