<svg width="22" height="22" viewBox="0 0 22 22" fill="none" xmlns="http://www.w3.org/2000/svg">
<path d="M1.10066 19H20.9012C21.1017 18.9994 21.2982 18.9457 21.4696 18.8447C21.641 18.7436 21.7807 18.5991 21.8739 18.4267C21.967 18.2542 22.0099 18.0603 21.9981 17.8659C21.9862 17.6715 21.92 17.484 21.8066 17.3234L11.9063 3.43197C11.496 2.85601 10.5081 2.85601 10.0967 3.43197L0.196437 17.3234C0.0818408 17.4836 0.0146391 17.6713 0.00213288 17.866C-0.0103733 18.0607 0.0322943 18.2551 0.1255 18.4279C0.218706 18.6007 0.358885 18.7454 0.530807 18.8463C0.702729 18.9471 0.899819 19.0003 1.10066 19Z" fill="black"/>
</svg>
