<svg width="24" height="24" viewBox="0 0 24 24" fill="none" xmlns="http://www.w3.org/2000/svg">
<g clip-path="url(#clip0_1575_497)">
<path d="M15.8365 7.39214C13.2943 5.2707 9.51362 5.61183 7.39218 8.15407C5.53593 10.3785 5.53598 13.6121 7.39223 15.8365L15.8365 7.39214Z" fill="#DD3030"/>
<path d="M8.16351 16.608C10.7058 18.7294 14.4864 18.3883 16.6079 15.846C18.4641 13.6216 18.4641 10.388 16.6078 8.16354L8.16351 16.608Z" fill="#DD3030"/>
<path d="M12 19.5909H12.0006C16.1906 19.5861 19.5861 16.1906 19.591 12.0006V12C19.591 7.80765 16.1924 4.40909 12 4.40909C7.80765 4.40909 4.40909 7.80771 4.40909 12C4.40909 16.1924 7.80766 19.5909 12 19.5909ZM4.36362 0.5H19.6364C21.7702 0.5 23.5 2.22981 23.5 4.36362V19.6364C23.5 21.7702 21.7702 23.5 19.6364 23.5H4.36362C2.22981 23.5 0.5 21.7702 0.5 19.6364V4.36362C0.5 2.22981 2.22981 0.5 4.36362 0.5Z" fill="#DD3030" stroke="#941E1E"/>
<path fill-rule="evenodd" clip-rule="evenodd" d="M18 12C18 15.3137 15.3137 18 12 18C10.8249 18 9.72872 17.6622 8.80323 17.0784L16.8981 8.53381C17.5921 9.51272 18 10.7087 18 12ZM7.31173 15.7447L15.4862 7.11613C14.5036 6.41349 13.3001 6 12 6C8.68629 6 6 8.68629 6 12C6 13.4165 6.49085 14.7183 7.31173 15.7447ZM20 12C20 16.4183 16.4183 20 12 20C7.58172 20 4 16.4183 4 12C4 7.58172 7.58172 4 12 4C16.4183 4 20 7.58172 20 12Z" fill="#F8F8FB"/>
</g>
<defs>
<clipPath id="clip0_1575_497">
<rect width="24" height="24" fill="white"/>
</clipPath>
</defs>
</svg>
