<svg width="22" height="22" viewBox="0 0 22 22" fill="none" xmlns="http://www.w3.org/2000/svg">
<path fill-rule="evenodd" clip-rule="evenodd" d="M11 18.5C15.4183 18.5 19 14.9183 19 10.5C19 6.08172 15.4183 2.5 11 2.5C6.58172 2.5 3 6.08172 3 10.5C3 14.9183 6.58172 18.5 11 18.5ZM11 20.5C13.1321 20.5 15.1084 19.8327 16.7314 18.6956L19.5627 21.527C19.9533 21.9175 20.5864 21.9175 20.977 21.527C21.3675 21.1364 21.3675 20.5033 20.977 20.1127L18.2508 17.3866C19.9545 15.5934 21 13.1688 21 10.5C21 4.97715 16.5228 0.5 11 0.5C5.47715 0.5 1 4.97715 1 10.5C1 16.0228 5.47715 20.5 11 20.5ZM15.2 11.5C15.7523 11.5 16.2 11.0523 16.2 10.5C16.2 9.94772 15.7523 9.5 15.2 9.5L6.8 9.5C6.24772 9.5 5.8 9.94771 5.8 10.5C5.8 11.0523 6.24772 11.5 6.8 11.5L15.2 11.5Z" fill="#121214"/>
</svg>
